SplineFontDB: 3.0
FontName: Keypunch029-Bold
FullName: Keypunch029 Bold
FamilyName: Keypunch029
Weight: Bold
Copyright: Copyright (c) 2017, Stewart C. Russell, Toronto, Canada, scruss@scruss.com
UComments: "2017-3-21: Created with FontForge (http://fontforge.org)+AAoACgAA-Generated from a bitmap of the code plate (character generator) of an IBM 029 keypunch+AAoA"
FontLog: "2017-03-21: scruss+AAoA - initial release"
Version: 001.000
ItalicAngle: 0
UnderlinePosition: -100
UnderlineWidth: 50
Ascent: 800
Descent: 200
InvalidEm: 0
LayerCount: 2
Layer: 0 0 "Back" 1
Layer: 1 0 "Fore" 0
XUID: [1021 800 -1421464343 5765702]
StyleMap: 0x0020
FSType: 0
OS2Version: 0
OS2_WeightWidthSlopeOnly: 0
OS2_UseTypoMetrics: 1
CreationTime: 1490117755
ModificationTime: 1490125519
PfmFamily: 49
TTFWeight: 700
TTFWidth: 5
LineGap: 90
VLineGap: 0
OS2TypoAscent: 0
OS2TypoAOffset: 1
OS2TypoDescent: 0
OS2TypoDOffset: 1
OS2TypoLinegap: 90
OS2WinAscent: 0
OS2WinAOffset: 1
OS2WinDescent: 0
OS2WinDOffset: 1
HheadAscent: 0
HheadAOffset: 1
HheadDescent: 0
HheadDOffset: 1
OS2Vendor: 'PfEd'
MarkAttachClasses: 1
DEI: 91125

StartChar: sterling
Encoding: 163 163 0
Width: 522
VWidth: 0
UnlinkRmOvrlpSave: 1
Flags: W
HStem: 200 86<52.6424 110.718 111.282 153.717 154.282 173 177 196.717 197.282 216 220 239.717 240.282 281.718 282.283 324.718 325.283 367.718 368.283 410.718 411.282 453.717 454.282 512.358> 286 85<137.853 173 177 196.718 197.281 216 220 255.147> 457 86<52.6424 110.718 111.282 153.717 154.281 173 177 196.718 197.281 216 220 239.718 240.282 281.718 282.283 341.358> 629 85<137.642 173 177 196.717 197.282 216 220 255.358> 714 86<223.642 281.718 282.283 324.718 325.283 367.718 368.283 410.718 411.282 453.717 454.282 512.358>
VStem: 132 129<291.784 365.448 377.304 450.696 549.304 622.696 634.552 708.358>
LayerCount: 2
Back
Fore
SplineSet
518 243 m 0xa4
 518 219 499 200 475 200 c 0
 467 200 460 202 454 206 c 1
 448 202 440 200 432 200 c 0
 424 200 417 202 411 206 c 1
 405 202 398 200 390 200 c 0
 382 200 374 202 368 206 c 1
 362 202 355 200 347 200 c 0
 339 200 331 202 325 206 c 1
 319 202 312 200 304 200 c 0
 296 200 288 202 282 206 c 1
 276 202 269 200 261 200 c 0
 253 200 246 202 240 206 c 1
 234 202 226 200 218 200 c 0
 210 200 203 202 197 206 c 1
 191 202 183 200 175 200 c 0
 167 200 160 202 154 206 c 1
 148 202 140 200 132 200 c 0
 124 200 117 202 111 206 c 1
 105 202 98 200 90 200 c 0
 66 200 47 219 47 243 c 0
 47 267 66 286 90 286 c 0
 98 286 105 284 111 280 c 1
 117 284 124 286 132 286 c 0
 140 286 148 284 154 280 c 1
 160 283 166 286 173 286 c 1xa4
 150 287 132 306 132 329 c 0
 132 352 150 370 173 371 c 1
 150 372 132 391 132 414 c 0
 132 437 150 456 173 457 c 1
 166 457 160 460 154 463 c 1
 148 459 140 457 132 457 c 0
 124 457 117 459 111 463 c 1
 105 459 98 457 90 457 c 0
 66 457 47 476 47 500 c 0
 47 524 66 543 90 543 c 0
 98 543 105 541 111 537 c 1
 117 541 124 543 132 543 c 0
 140 543 148 541 154 537 c 1
 160 540 166 543 173 543 c 1
 150 544 132 563 132 586 c 0
 132 609 150 628 173 629 c 1x74
 150 630 132 648 132 671 c 0
 132 695 151 714 175 714 c 0
 183 714 191 713 197 709 c 1
 203 713 210 714 218 714 c 0x2c
 242 714 261 695 261 671 c 0
 261 648 243 630 220 629 c 1
 243 628 261 609 261 586 c 1
 261 563 243 544 220 543 c 1
 227 543 234 540 240 537 c 1
 246 541 253 543 261 543 c 0
 269 543 276 541 282 537 c 1
 288 541 296 543 304 543 c 0
 328 543 347 524 347 500 c 0
 347 476 328 457 304 457 c 0
 296 457 288 459 282 463 c 1
 276 459 269 457 261 457 c 0
 253 457 246 459 240 463 c 1
 234 460 227 457 220 457 c 1
 243 456 261 437 261 414 c 1
 261 391 243 372 220 371 c 1x74
 243 370 261 352 261 329 c 0
 261 306 243 287 220 286 c 1
 227 286 234 283 240 280 c 1
 246 284 253 286 261 286 c 0
 269 286 276 284 282 280 c 1
 288 284 296 286 304 286 c 0
 312 286 319 284 325 280 c 1
 331 284 339 286 347 286 c 0
 355 286 362 284 368 280 c 1
 374 284 382 286 390 286 c 0
 398 286 405 284 411 280 c 1
 417 284 424 286 432 286 c 0
 440 286 448 284 454 280 c 1
 460 284 467 286 475 286 c 0
 499 286 518 267 518 243 c 0xa4
518 757 m 0
 518 733 499 714 475 714 c 0
 467 714 460 716 454 720 c 1
 448 716 440 714 432 714 c 0
 424 714 417 716 411 720 c 1
 405 716 398 714 390 714 c 0
 382 714 374 716 368 720 c 1
 362 716 355 714 347 714 c 0
 339 714 331 716 325 720 c 1
 319 716 312 714 304 714 c 0
 296 714 288 716 282 720 c 1
 276 716 269 714 261 714 c 0
 237 714 218 733 218 757 c 0
 218 781 237 800 261 800 c 0
 269 800 276 798 282 794 c 1
 288 798 296 800 304 800 c 0
 312 800 319 798 325 794 c 1
 331 798 339 800 347 800 c 0
 355 800 362 798 368 794 c 1
 374 798 382 800 390 800 c 0
 398 800 405 798 411 794 c 1
 417 798 424 800 432 800 c 0
 440 800 448 798 454 794 c 1
 460 798 467 800 475 800 c 0x2c
 499 800 518 781 518 757 c 0
216 286 m 1xa4
 209 286 203 288 197 291 c 1
 191 288 184 286 177 286 c 1
 184 286 191 283 197 280 c 1
 203 283 209 286 216 286 c 1xa4
216 371 m 1x64
 209 371 203 374 197 377 c 1
 191 374 184 371 177 371 c 1
 184 371 191 369 197 366 c 1
 203 369 209 371 216 371 c 1x64
216 457 m 1
 209 457 203 460 197 463 c 1
 191 460 184 457 177 457 c 1
 184 457 191 454 197 451 c 1
 203 454 209 457 216 457 c 1
216 543 m 1
 209 543 203 546 197 549 c 1
 191 546 184 543 177 543 c 1
 184 543 191 540 197 537 c 1
 203 540 209 543 216 543 c 1
216 629 m 1x34
 209 629 203 631 197 634 c 1
 191 631 184 629 177 629 c 1
 184 629 191 626 197 623 c 1
 203 626 209 629 216 629 c 1x34
EndSplineSet
EndChar

StartChar: Euro
Encoding: 8364 8364 1
Width: 522
VWidth: 0
UnlinkRmOvrlpSave: 1
Flags: W
HStem: 200 86<223.642 281.718 282.283 324.718 325.283 367.718 368.283 410.718 411.282 453.717 454.282 512.358> 286 85<137.642 173 177 196.717 197.282 216 220 255.358> 371 86<52.6424 110.718 111.282 153.717 154.281 173 177 196.718 197.281 216 220 239.718 240.282 281.718 282.283 341.358> 543 86<52.6424 110.718 111.282 153.717 154.281 173 177 196.718 197.281 216 220 239.718 240.282 281.718 282.283 341.358> 629 85<137.642 173 177 196.717 197.282 216 220 255.358> 714 86<223.642 281.718 282.283 324.718 325.283 367.718 368.283 410.718 411.282 453.717 454.282 512.358>
VStem: 132 129<291.642 365.448 463.304 536.696 634.552 708.358>
LayerCount: 2
Back
Fore
SplineSet
518 243 m 0x82
 518 219 499 200 475 200 c 0
 467 200 460 202 454 206 c 1
 448 202 440 200 432 200 c 0
 424 200 417 202 411 206 c 1
 405 202 398 200 390 200 c 0
 382 200 374 202 368 206 c 1
 362 202 355 200 347 200 c 0
 339 200 331 202 325 206 c 1
 319 202 312 200 304 200 c 0
 296 200 288 202 282 206 c 1
 276 202 269 200 261 200 c 0
 237 200 218 219 218 243 c 0
 218 267 237 286 261 286 c 0
 269 286 276 284 282 280 c 1
 288 284 296 286 304 286 c 0
 312 286 319 284 325 280 c 1
 331 284 339 286 347 286 c 0
 355 286 362 284 368 280 c 1
 374 284 382 286 390 286 c 0
 398 286 405 284 411 280 c 1
 417 284 424 286 432 286 c 0
 440 286 448 284 454 280 c 1
 460 284 467 286 475 286 c 0
 499 286 518 267 518 243 c 0x82
261 329 m 0
 261 305 242 286 218 286 c 0
 210 286 203 287 197 291 c 1
 191 287 183 286 175 286 c 0
 151 286 132 305 132 329 c 0
 132 352 150 370 173 371 c 1x42
 166 371 160 374 154 377 c 1
 148 373 140 371 132 371 c 0
 124 371 117 373 111 377 c 1
 105 373 98 371 90 371 c 0
 66 371 47 390 47 414 c 0
 47 438 66 457 90 457 c 0
 98 457 105 455 111 451 c 1
 117 455 124 457 132 457 c 0
 140 457 148 455 154 451 c 1
 160 454 166 457 173 457 c 1
 150 458 132 477 132 500 c 1
 132 523 150 542 173 543 c 1
 166 543 160 546 154 549 c 1
 148 545 140 543 132 543 c 0
 124 543 117 545 111 549 c 1
 105 545 98 543 90 543 c 0
 66 543 47 562 47 586 c 0
 47 610 66 629 90 629 c 0
 98 629 105 627 111 623 c 1
 117 627 124 629 132 629 c 0
 140 629 148 627 154 623 c 1
 160 626 166 629 173 629 c 1
 150 630 132 648 132 671 c 0
 132 695 151 714 175 714 c 0
 183 714 191 713 197 709 c 1
 203 713 210 714 218 714 c 0
 242 714 261 695 261 671 c 0
 261 648 243 630 220 629 c 1
 227 629 234 626 240 623 c 1
 246 627 253 629 261 629 c 0
 269 629 276 627 282 623 c 1
 288 627 296 629 304 629 c 0
 328 629 347 610 347 586 c 0
 347 562 328 543 304 543 c 0
 296 543 288 545 282 549 c 1
 276 545 269 543 261 543 c 0
 253 543 246 545 240 549 c 1
 234 546 227 543 220 543 c 1
 243 542 261 523 261 500 c 1
 261 477 243 458 220 457 c 1
 227 457 234 454 240 451 c 1
 246 455 253 457 261 457 c 0
 269 457 276 455 282 451 c 1
 288 455 296 457 304 457 c 0
 328 457 347 438 347 414 c 0
 347 390 328 371 304 371 c 0
 296 371 288 373 282 377 c 1
 276 373 269 371 261 371 c 0x36
 253 371 246 373 240 377 c 1
 234 374 227 371 220 371 c 1x42
 243 370 261 352 261 329 c 0
518 757 m 0
 518 733 499 714 475 714 c 0
 467 714 460 716 454 720 c 1
 448 716 440 714 432 714 c 0
 424 714 417 716 411 720 c 1
 405 716 398 714 390 714 c 0
 382 714 374 716 368 720 c 1
 362 716 355 714 347 714 c 0
 339 714 331 716 325 720 c 1
 319 716 312 714 304 714 c 0
 296 714 288 716 282 720 c 1
 276 716 269 714 261 714 c 0
 237 714 218 733 218 757 c 0
 218 781 237 800 261 800 c 0
 269 800 276 798 282 794 c 1
 288 798 296 800 304 800 c 0
 312 800 319 798 325 794 c 1
 331 798 339 800 347 800 c 0
 355 800 362 798 368 794 c 1
 374 798 382 800 390 800 c 0
 398 800 405 798 411 794 c 1
 417 798 424 800 432 800 c 0
 440 800 448 798 454 794 c 1
 460 798 467 800 475 800 c 0x06
 499 800 518 781 518 757 c 0
216 371 m 1x42
 209 371 203 374 197 377 c 1
 191 374 184 371 177 371 c 1
 184 371 191 369 197 366 c 1
 203 369 209 371 216 371 c 1x42
216 457 m 1x22
 209 457 203 460 197 463 c 1
 191 460 184 457 177 457 c 1
 184 457 191 454 197 451 c 1
 203 454 209 457 216 457 c 1x22
216 543 m 1x12
 209 543 203 546 197 549 c 1
 191 546 184 543 177 543 c 1
 184 543 191 540 197 537 c 1
 203 540 209 543 216 543 c 1x12
216 629 m 1
 209 629 203 631 197 634 c 1
 191 631 184 629 177 629 c 1
 184 629 191 626 197 623 c 1
 203 626 209 629 216 629 c 1
EndSplineSet
EndChar

StartChar: logicalnot
Encoding: 172 172 2
Width: 522
VWidth: 0
UnlinkRmOvrlpSave: 1
Flags: W
HStem: 286 85<395.58 430 435 453.719 454.281 473 477 512.147> 371 86<52.6424 110.718 111.282 153.717 154.282 196.717 197.282 239.717 240.282 281.718 282.283 324.718 325.283 367.718 368.283 410.718 411.282 430 435 453.717 454.282 473 477 512.147>
VStem: 390 128<206.167 279.696 291.784 365.448>
LayerCount: 2
Back
Fore
SplineSet
518 243 m 0xa0
 518 219 499 200 475 200 c 0
 467 200 460 202 454 206 c 1
 448 202 440 200 432 200 c 0
 408 200 390 219 390 243 c 0
 390 266 407 285 430 286 c 1
 407 287 390 306 390 329 c 0
 390 352 407 370 430 371 c 1xa0
 423 371 417 374 411 377 c 1
 405 373 398 371 390 371 c 0
 382 371 374 373 368 377 c 1
 362 373 355 371 347 371 c 0
 339 371 331 373 325 377 c 1
 319 373 312 371 304 371 c 0
 296 371 288 373 282 377 c 1
 276 373 269 371 261 371 c 0
 253 371 246 373 240 377 c 1
 234 373 226 371 218 371 c 0
 210 371 203 373 197 377 c 1
 191 373 183 371 175 371 c 0
 167 371 160 373 154 377 c 1
 148 373 140 371 132 371 c 0
 124 371 117 373 111 377 c 1
 105 373 98 371 90 371 c 0
 66 371 47 390 47 414 c 0
 47 438 66 457 90 457 c 0
 98 457 105 455 111 451 c 1
 117 455 124 457 132 457 c 0
 140 457 148 455 154 451 c 1
 160 455 167 457 175 457 c 0
 183 457 191 455 197 451 c 1
 203 455 210 457 218 457 c 0
 226 457 234 455 240 451 c 1
 246 455 253 457 261 457 c 0
 269 457 276 455 282 451 c 1
 288 455 296 457 304 457 c 0
 312 457 319 455 325 451 c 1
 331 455 339 457 347 457 c 0
 355 457 362 455 368 451 c 1
 374 455 382 457 390 457 c 0
 398 457 405 455 411 451 c 1
 417 455 424 457 432 457 c 0
 440 457 448 455 454 451 c 1
 460 455 467 457 475 457 c 0x60
 499 457 518 438 518 414 c 0
 518 391 500 372 477 371 c 1
 500 370 518 352 518 329 c 0
 518 306 500 287 477 286 c 1
 500 285 518 266 518 243 c 0xa0
473 286 m 1
 466 286 460 288 454 291 c 1
 448 288 442 286 435 286 c 1
 442 286 448 283 454 280 c 1
 460 283 466 286 473 286 c 1
473 371 m 1
 466 371 460 374 454 377 c 1
 448 374 442 371 435 371 c 1
 442 371 448 369 454 366 c 1
 460 369 466 371 473 371 c 1
EndSplineSet
EndChar

StartChar: sqlozenge
Encoding: 8977 8977 3
Width: 522
VWidth: 0
UnlinkRmOvrlpSave: 1
Flags: W
HStem: 200 86<52.6424 110.718 111.282 169.358 395.39 453.717 454.282 512.358> 286 85<137.642 173 177 196.717 197.282 216 220 239.717 240.282 281.718 282.283 324.718 325.283 345 349 367.718 368.283 388 392 427.358> 457 86<137.853 173 177 196.718 197.281 216 220 255.147 309.853 345 349 367.719 368.282 388 392 427.147> 629 85<137.642 173 177 196.717 197.282 216 220 239.717 240.282 281.718 282.283 324.718 325.283 345 349 367.718 368.283 388 392 427.358> 714 86<52.6424 110.718 111.282 169.358 395.39 453.717 454.282 512.358>
VStem: 47 128<206.167 279.833 720.167 793.833> 132 129<377.304 450.696 463.304 536.696 549.304 622.696> 304 129<377.304 450.696 463.304 536.696 549.304 622.696> 390 128<206.167 279.833 720.167 793.833>
LayerCount: 2
Back
Fore
SplineSet
518 243 m 0xa080
 518 219 499 200 475 200 c 0
 467 200 460 202 454 206 c 1
 448 202 440 200 432 200 c 0
 408 200 390 219 390 243 c 0
 390 267 408 286 432 286 c 0
 440 286 448 284 454 280 c 1
 460 284 467 286 475 286 c 0
 499 286 518 267 518 243 c 0xa080
175 243 m 0xa4
 175 219 156 200 132 200 c 0xa2
 124 200 117 202 111 206 c 1
 105 202 98 200 90 200 c 0
 66 200 47 219 47 243 c 0xa4
 47 267 66 286 90 286 c 0
 98 286 105 284 111 280 c 1
 117 284 124 286 132 286 c 0xa2
 156 286 175 267 175 243 c 0xa4
433 329 m 0x71
 433 305 414 286 390 286 c 0x7080
 382 286 374 287 368 291 c 1
 362 287 355 286 347 286 c 0
 339 286 331 287 325 291 c 1
 319 287 312 286 304 286 c 0
 296 286 288 287 282 291 c 1
 276 287 269 286 261 286 c 0x73
 253 286 246 287 240 291 c 1
 234 287 226 286 218 286 c 0
 210 286 203 287 197 291 c 1
 191 287 183 286 175 286 c 0x74
 151 286 132 305 132 329 c 0
 132 352 150 370 173 371 c 1
 150 372 132 391 132 414 c 0
 132 437 150 456 173 457 c 1
 150 458 132 477 132 500 c 1
 132 523 150 542 173 543 c 1
 150 544 132 563 132 586 c 0
 132 609 150 628 173 629 c 1
 150 630 132 648 132 671 c 0x72
 132 695 151 714 175 714 c 0
 183 714 191 713 197 709 c 1
 203 713 210 714 218 714 c 0x2c
 226 714 234 713 240 709 c 1
 246 713 253 714 261 714 c 0
 269 714 276 713 282 709 c 1
 288 713 296 714 304 714 c 0x33
 312 714 319 713 325 709 c 1
 331 713 339 714 347 714 c 0
 355 714 362 713 368 709 c 1
 374 713 382 714 390 714 c 0x2880
 414 714 433 695 433 671 c 0
 433 648 415 630 392 629 c 1
 415 628 433 609 433 586 c 1
 433 563 415 544 392 543 c 1
 415 542 433 523 433 500 c 0
 433 477 415 458 392 457 c 1
 415 456 433 437 433 414 c 0
 433 391 415 372 392 371 c 1
 415 370 433 352 433 329 c 0x71
518 757 m 0
 518 733 499 714 475 714 c 0
 467 714 460 716 454 720 c 1
 448 716 440 714 432 714 c 0
 408 714 390 733 390 757 c 0
 390 781 408 800 432 800 c 0
 440 800 448 798 454 794 c 1
 460 798 467 800 475 800 c 0x2880
 499 800 518 781 518 757 c 0
175 757 m 0x2c
 175 733 156 714 132 714 c 0x2a
 124 714 117 716 111 720 c 1
 105 716 98 714 90 714 c 0
 66 714 47 733 47 757 c 0x2c
 47 781 66 800 90 800 c 0
 98 800 105 798 111 794 c 1
 117 798 124 800 132 800 c 0x2a
 156 800 175 781 175 757 c 0x2c
388 371 m 1x60
 381 371 374 374 368 377 c 1
 362 374 356 371 349 371 c 1
 356 371 362 369 368 366 c 1
 374 369 381 371 388 371 c 1x60
216 371 m 1
 209 371 203 374 197 377 c 1
 191 374 184 371 177 371 c 1
 184 371 191 369 197 366 c 1
 203 369 209 371 216 371 c 1
220 371 m 1
 227 371 234 369 240 366 c 1
 246 370 253 371 261 371 c 0
 269 371 276 370 282 366 c 1
 288 370 296 371 304 371 c 0
 312 371 319 370 325 366 c 1
 331 369 338 371 345 371 c 1
 322 372 304 391 304 414 c 0
 304 437 322 456 345 457 c 1
 322 458 304 477 304 500 c 0
 304 523 322 542 345 543 c 1
 322 544 304 563 304 586 c 0
 304 609 322 628 345 629 c 1
 338 629 331 631 325 634 c 1
 319 630 312 629 304 629 c 0
 296 629 288 630 282 634 c 1
 276 630 269 629 261 629 c 0
 253 629 246 630 240 634 c 1
 234 631 227 629 220 629 c 1
 243 628 261 609 261 586 c 1
 261 563 243 544 220 543 c 1
 243 542 261 523 261 500 c 1
 261 477 243 458 220 457 c 1
 243 456 261 437 261 414 c 1x73
 261 391 243 372 220 371 c 1
388 457 m 1
 381 457 374 460 368 463 c 1
 362 460 356 457 349 457 c 1
 356 457 362 454 368 451 c 1
 374 454 381 457 388 457 c 1
216 457 m 1
 209 457 203 460 197 463 c 1
 191 460 184 457 177 457 c 1
 184 457 191 454 197 451 c 1
 203 454 209 457 216 457 c 1
388 543 m 1
 381 543 374 546 368 549 c 1
 362 546 356 543 349 543 c 1
 356 543 362 540 368 537 c 1
 374 540 381 543 388 543 c 1
216 543 m 1
 209 543 203 546 197 549 c 1
 191 546 184 543 177 543 c 1
 184 543 191 540 197 537 c 1
 203 540 209 543 216 543 c 1
388 629 m 1
 381 629 374 631 368 634 c 1
 362 631 356 629 349 629 c 1
 356 629 362 626 368 623 c 1
 374 626 381 629 388 629 c 1
216 629 m 1
 209 629 203 631 197 634 c 1
 191 631 184 629 177 629 c 1
 184 629 191 626 197 623 c 1
 203 626 209 629 216 629 c 1
EndSplineSet
EndChar

StartChar: exclam
Encoding: 33 33 4
Width: 522
VWidth: 0
UnlinkRmOvrlpSave: 1
Flags: W
HStem: 200 86<52.6424 110.718 111.283 170.358> 371 86<52.8528 88 92 110.718 111.283 131 135 170.147> 457 86<52.8528 88 92 110.719 111.282 131 135 170.147> 629 85<52.8528 88 92 110.719 111.282 131 135 170.147>
VStem: 47 129<206.167 279.833 377.167 450.696 463.304 536.696 549.304 622.696 634.552 708.216 720.304 793.833>
LayerCount: 2
Back
Fore
SplineSet
176 243 m 0x98
 176 219 157 200 133 200 c 0
 125 200 117 202 111 206 c 1
 105 202 98 200 90 200 c 0
 66 200 47 219 47 243 c 0
 47 267 66 286 90 286 c 0
 98 286 105 284 111 280 c 1
 117 284 125 286 133 286 c 0
 157 286 176 267 176 243 c 0x98
176 414 m 0
 176 390 157 371 133 371 c 0
 125 371 117 373 111 377 c 1
 105 373 98 371 90 371 c 0
 66 371 47 390 47 414 c 0
 47 437 65 456 88 457 c 1xd8
 65 458 47 477 47 500 c 0
 47 523 65 542 88 543 c 1
 65 544 47 563 47 586 c 0
 47 609 65 628 88 629 c 1
 65 630 47 648 47 671 c 1
 47 694 65 713 88 714 c 1
 65 715 47 734 47 757 c 0
 47 781 66 800 90 800 c 0
 98 800 105 798 111 794 c 1
 117 798 125 800 133 800 c 0
 157 800 176 781 176 757 c 0
 176 734 158 715 135 714 c 1
 158 713 176 694 176 671 c 1
 176 648 158 630 135 629 c 1
 158 628 176 609 176 586 c 1
 176 563 158 544 135 543 c 1xb8
 158 542 176 523 176 500 c 0
 176 477 158 458 135 457 c 1xd8
 158 456 176 437 176 414 c 0
131 457 m 1
 124 457 117 460 111 463 c 1
 105 460 99 457 92 457 c 1
 99 457 105 454 111 451 c 1
 117 454 124 457 131 457 c 1
131 543 m 1xb8
 124 543 117 546 111 549 c 1
 105 546 99 543 92 543 c 1
 99 543 105 540 111 537 c 1
 117 540 124 543 131 543 c 1xb8
131 629 m 1
 124 629 117 631 111 634 c 1
 105 631 99 629 92 629 c 1
 99 629 105 626 111 623 c 1
 117 626 124 629 131 629 c 1
131 714 m 1
 124 714 117 717 111 720 c 1
 105 717 99 714 92 714 c 1
 99 714 105 712 111 709 c 1
 117 712 124 714 131 714 c 1
EndSplineSet
EndChar

StartChar: numbersign
Encoding: 35 35 6
Width: 522
VWidth: 0
UnlinkRmOvrlpSave: 1
Flags: W
HStem: 286 85<137.853 173 177 196.718 197.281 216 220 255.147 309.853 345 349 367.719 368.282 388 392 427.147> 371 86<52.6424 110.718 111.282 153.717 154.282 173 177 196.717 197.282 216 220 255.147 309.853 345 349 367.718 368.283 388 392 410.718 411.282 453.717 454.282 512.358> 543 86<52.6424 110.718 111.282 153.717 154.282 173 177 196.717 197.282 216 220 255.147 309.853 345 349 367.718 368.283 388 392 410.718 411.282 453.717 454.282 512.358> 629 85<137.853 173 177 196.718 197.281 216 220 255.147 309.853 345 349 367.719 368.282 388 392 427.147>
VStem: 47 214<377.304 450.833 549.167 622.696> 132 129<206.167 279.696 291.784 365.448 634.552 708.216 720.304 793.833> 304 214<377.304 450.833 549.167 622.696> 304 129<206.167 279.696 291.784 365.448 634.552 708.216 720.304 793.833>
LayerCount: 2
Back
Fore
SplineSet
433 243 m 0x81
 433 219 414 200 390 200 c 0
 382 200 374 202 368 206 c 1
 362 202 355 200 347 200 c 0
 323 200 304 219 304 243 c 0
 304 266 322 285 345 286 c 1
 322 287 304 306 304 329 c 0
 304 352 322 370 345 371 c 1x81
 322 372 304 391 304 414 c 0
 304 438 323 457 347 457 c 0
 355 457 362 455 368 451 c 1
 374 455 382 457 390 457 c 0
 398 457 405 455 411 451 c 1
 417 455 424 457 432 457 c 0
 440 457 448 455 454 451 c 1
 460 455 467 457 475 457 c 0
 499 457 518 438 518 414 c 0
 518 390 499 371 475 371 c 0
 467 371 460 373 454 377 c 1
 448 373 440 371 432 371 c 0x42
 424 371 417 373 411 377 c 1
 405 374 399 371 392 371 c 1
 415 370 433 352 433 329 c 0
 433 306 415 287 392 286 c 1
 415 285 433 266 433 243 c 0x81
261 243 m 0x84
 261 219 242 200 218 200 c 0
 210 200 203 202 197 206 c 1
 191 202 183 200 175 200 c 0
 151 200 132 219 132 243 c 0
 132 266 150 285 173 286 c 1
 150 287 132 306 132 329 c 0
 132 352 150 370 173 371 c 1x84
 166 371 160 374 154 377 c 1
 148 373 140 371 132 371 c 0x44
 124 371 117 373 111 377 c 1
 105 373 98 371 90 371 c 0
 66 371 47 390 47 414 c 0x48
 47 438 66 457 90 457 c 0
 98 457 105 455 111 451 c 1
 117 455 124 457 132 457 c 0x44
 140 457 148 455 154 451 c 1
 160 455 167 457 175 457 c 0
 183 457 191 455 197 451 c 1
 203 455 210 457 218 457 c 0
 242 457 261 438 261 414 c 0x48
 261 391 243 372 220 371 c 1
 243 370 261 352 261 329 c 0
 261 306 243 287 220 286 c 1
 243 285 261 266 261 243 c 0x84
518 586 m 0x22
 518 562 499 543 475 543 c 0
 467 543 460 545 454 549 c 1
 448 545 440 543 432 543 c 0
 424 543 417 545 411 549 c 1
 405 545 398 543 390 543 c 0
 382 543 374 545 368 549 c 1
 362 545 355 543 347 543 c 0
 323 543 304 562 304 586 c 0
 304 609 322 628 345 629 c 1x22
 322 630 304 648 304 671 c 1
 304 694 322 713 345 714 c 1
 322 715 304 734 304 757 c 0
 304 781 323 800 347 800 c 0
 355 800 362 798 368 794 c 1
 374 798 382 800 390 800 c 0
 414 800 433 781 433 757 c 0
 433 734 415 715 392 714 c 1
 415 713 433 694 433 671 c 1x11
 433 648 415 630 392 629 c 1
 399 629 405 626 411 623 c 1
 417 627 424 629 432 629 c 0
 440 629 448 627 454 623 c 1
 460 627 467 629 475 629 c 0
 499 629 518 610 518 586 c 0x22
261 586 m 1x28
 261 562 242 543 218 543 c 0
 210 543 203 545 197 549 c 1
 191 545 183 543 175 543 c 0
 167 543 160 545 154 549 c 1
 148 545 140 543 132 543 c 0x24
 124 543 117 545 111 549 c 1
 105 545 98 543 90 543 c 0
 66 543 47 562 47 586 c 0x28
 47 610 66 629 90 629 c 0
 98 629 105 627 111 623 c 1
 117 627 124 629 132 629 c 0
 140 629 148 627 154 623 c 1
 160 626 166 629 173 629 c 1x24
 150 630 132 648 132 671 c 0
 132 694 150 713 173 714 c 1
 150 715 132 734 132 757 c 0
 132 781 151 800 175 800 c 0
 183 800 191 798 197 794 c 1
 203 798 210 800 218 800 c 0
 242 800 261 781 261 757 c 0
 261 734 243 715 220 714 c 1
 243 713 261 694 261 671 c 1x14
 261 648 243 630 220 629 c 1
 243 628 261 609 261 586 c 1x28
388 286 m 1x80
 381 286 374 288 368 291 c 1
 362 288 356 286 349 286 c 1
 356 286 362 283 368 280 c 1
 374 283 381 286 388 286 c 1x80
216 286 m 1
 209 286 203 288 197 291 c 1
 191 288 184 286 177 286 c 1
 184 286 191 283 197 280 c 1
 203 283 209 286 216 286 c 1
388 371 m 1
 381 371 374 374 368 377 c 1
 362 374 356 371 349 371 c 1
 356 371 362 369 368 366 c 1
 374 369 381 371 388 371 c 1
216 371 m 1
 209 371 203 374 197 377 c 1
 191 374 184 371 177 371 c 1
 184 371 191 369 197 366 c 1
 203 369 209 371 216 371 c 1
388 629 m 1x20
 381 629 374 631 368 634 c 1
 362 631 356 629 349 629 c 1
 356 629 362 626 368 623 c 1
 374 626 381 629 388 629 c 1x20
216 629 m 1
 209 629 203 631 197 634 c 1
 191 631 184 629 177 629 c 1
 184 629 191 626 197 623 c 1
 203 626 209 629 216 629 c 1
388 714 m 1x10
 381 714 374 717 368 720 c 1
 362 717 356 714 349 714 c 1
 356 714 362 712 368 709 c 1
 374 712 381 714 388 714 c 1x10
216 714 m 1
 209 714 203 717 197 720 c 1
 191 717 184 714 177 714 c 1
 184 714 191 712 197 709 c 1
 203 712 209 714 216 714 c 1
EndSplineSet
EndChar

StartChar: quotedbl
Encoding: 34 34 7
Width: 522
VWidth: 0
UnlinkRmOvrlpSave: 1
Flags: W
HStem: 629 85<52.8528 88 92 111.718 112.281 131 135 170.147 224.853 260 264 282.719 283.282 303 307 342.147>
VStem: 47 129<549.167 622.696 634.552 708.216 720.304 793.833> 219 129<549.167 622.696 634.552 708.216 720.304 793.833>
LayerCount: 2
Back
Fore
SplineSet
348 586 m 1
 348 562 329 543 305 543 c 0
 297 543 289 545 283 549 c 1
 277 545 270 543 262 543 c 0
 238 543 219 562 219 586 c 0
 219 609 237 628 260 629 c 1
 237 630 219 648 219 671 c 1
 219 694 237 713 260 714 c 1
 237 715 219 734 219 757 c 0
 219 781 238 800 262 800 c 0
 270 800 277 798 283 794 c 1
 289 798 297 800 305 800 c 0
 329 800 348 781 348 757 c 0
 348 734 330 715 307 714 c 1
 330 713 348 694 348 671 c 1
 348 648 330 630 307 629 c 1
 330 628 348 609 348 586 c 1
176 586 m 1
 176 562 157 543 133 543 c 0
 125 543 118 545 112 549 c 1
 106 545 98 543 90 543 c 0
 66 543 47 562 47 586 c 0
 47 609 65 628 88 629 c 1
 65 630 47 648 47 671 c 0
 47 694 65 713 88 714 c 1
 65 715 47 734 47 757 c 0
 47 781 66 800 90 800 c 0
 98 800 106 798 112 794 c 1
 118 798 125 800 133 800 c 0
 157 800 176 781 176 757 c 0
 176 734 158 715 135 714 c 1
 158 713 176 694 176 671 c 1
 176 648 158 630 135 629 c 1
 158 628 176 609 176 586 c 1
303 629 m 1
 296 629 289 631 283 634 c 1
 277 631 271 629 264 629 c 1
 271 629 277 626 283 623 c 1
 289 626 296 629 303 629 c 1
131 629 m 1
 124 629 118 631 112 634 c 1
 106 631 99 629 92 629 c 1
 99 629 106 626 112 623 c 1
 118 626 124 629 131 629 c 1
303 714 m 1
 296 714 289 717 283 720 c 1
 277 717 271 714 264 714 c 1
 271 714 277 712 283 709 c 1
 289 712 296 714 303 714 c 1
131 714 m 1
 124 714 118 717 112 720 c 1
 106 717 99 714 92 714 c 1
 99 714 106 712 112 709 c 1
 118 712 124 714 131 714 c 1
EndSplineSet
EndChar

StartChar: percent
Encoding: 37 37 8
Width: 522
VWidth: 0
UnlinkRmOvrlpSave: 1
Flags: W
HStem: 286 85<52.6424 87 92 110.718 111.282 130 135 169.358 309.853 345 349 367.718 368.283 388 392 410.718 411.282 430 435 453.717 454.282 473 477 512.147> 371 86<137.642 196.717 197.282 255.358> 457 86<223.642 281.718 282.283 341.358> 543 86<309.642 367.718 368.283 427.358> 629 85<52.6424 87 92 110.718 111.282 130 135 153.717 154.282 173 177 196.717 197.282 216 220 255.147 395.58 430 435 453.717 454.282 473 477 512.147>
VStem: 47 128<206.167 279.696 291.284 365.61> 132 129<377.167 450.833> 218 129<463.167 536.833> 304 129<549.167 622.833> 390 128<634.39 708.216 720.304 793.833>
LayerCount: 2
Back
Fore
SplineSet
518 243 m 0x8140
 518 219 499 200 475 200 c 0
 467 200 460 202 454 206 c 1
 448 202 440 200 432 200 c 0
 424 200 417 202 411 206 c 1
 405 202 398 200 390 200 c 0
 382 200 374 202 368 206 c 1
 362 202 355 200 347 200 c 0x8140
 323 200 304 219 304 243 c 0
 304 266 322 285 345 286 c 1
 322 287 304 306 304 329 c 0x8080
 304 353 323 371 347 371 c 0
 355 371 362 370 368 366 c 1
 374 370 382 371 390 371 c 0
 398 371 405 370 411 366 c 1
 417 370 424 371 432 371 c 0
 440 371 448 370 454 366 c 1
 460 370 467 371 475 371 c 0x4140
 499 371 518 353 518 329 c 0
 518 306 500 287 477 286 c 1
 500 285 518 266 518 243 c 0x8140
175 243 m 0x84
 175 219 156 200 132 200 c 0x82
 124 200 117 202 111 206 c 1
 105 202 98 200 90 200 c 0
 66 200 47 219 47 243 c 0
 47 266 64 285 87 286 c 1
 64 287 47 306 47 329 c 0x84
 47 353 66 371 90 371 c 0
 98 371 105 370 111 366 c 1
 117 370 124 371 132 371 c 0x42
 156 371 175 353 175 329 c 0
 175 306 158 287 135 286 c 1
 158 285 175 266 175 243 c 0x84
261 414 m 0
 261 390 242 371 218 371 c 0
 210 371 203 373 197 377 c 1
 191 373 183 371 175 371 c 0x45
 151 371 132 390 132 414 c 0x42
 132 438 151 457 175 457 c 0
 183 457 191 455 197 451 c 1
 203 455 210 457 218 457 c 0x45
 242 457 261 438 261 414 c 0
347 500 m 0
 347 476 328 457 304 457 c 0
 296 457 288 459 282 463 c 1
 276 459 269 457 261 457 c 0x2280
 237 457 218 476 218 500 c 0x21
 218 524 237 543 261 543 c 0
 269 543 276 541 282 537 c 1
 288 541 296 543 304 543 c 0x2280
 328 543 347 524 347 500 c 0
433 586 m 0
 433 562 414 543 390 543 c 0
 382 543 374 545 368 549 c 1
 362 545 355 543 347 543 c 0x1140
 323 543 304 562 304 586 c 0x1080
 304 610 323 629 347 629 c 0
 355 629 362 627 368 623 c 1
 374 627 382 629 390 629 c 0x1140
 414 629 433 610 433 586 c 0
518 671 m 1
 518 647 499 629 475 629 c 0
 467 629 460 630 454 634 c 1
 448 630 440 629 432 629 c 0
 408 629 390 647 390 671 c 0
 390 694 407 713 430 714 c 1
 407 715 390 734 390 757 c 0
 390 781 408 800 432 800 c 0
 440 800 448 798 454 794 c 1
 460 798 467 800 475 800 c 0
 499 800 518 781 518 757 c 0
 518 734 500 715 477 714 c 1x0840
 500 713 518 694 518 671 c 1
261 671 m 1x0a
 261 647 242 629 218 629 c 0
 210 629 203 630 197 634 c 1
 191 630 183 629 175 629 c 0x0d
 167 629 160 630 154 634 c 1
 148 630 140 629 132 629 c 0x0a
 124 629 117 630 111 634 c 1
 105 630 98 629 90 629 c 0
 66 629 47 647 47 671 c 0
 47 694 64 713 87 714 c 1
 64 715 47 734 47 757 c 0x0c
 47 781 66 800 90 800 c 0
 98 800 105 798 111 794 c 1
 117 798 124 800 132 800 c 0x0a
 140 800 148 798 154 794 c 1
 160 798 167 800 175 800 c 0
 183 800 191 798 197 794 c 1
 203 798 210 800 218 800 c 0x0d
 242 800 261 781 261 757 c 0
 261 734 243 715 220 714 c 1
 243 713 261 694 261 671 c 1x0a
473 286 m 1x80
 466 286 460 288 454 291 c 1
 448 288 442 286 435 286 c 1
 442 286 448 283 454 280 c 1
 460 283 466 286 473 286 c 1x80
388 286 m 1
 381 286 374 288 368 291 c 1
 362 288 356 286 349 286 c 1
 356 286 362 283 368 280 c 1
 374 283 381 286 388 286 c 1
392 286 m 1
 399 286 405 283 411 280 c 1
 417 283 423 286 430 286 c 1
 423 286 417 288 411 291 c 1
 405 288 399 286 392 286 c 1
130 286 m 1
 123 286 117 288 111 291 c 1
 105 288 99 286 92 286 c 1
 99 286 105 283 111 280 c 1
 117 283 123 286 130 286 c 1
473 714 m 1x08
 466 714 460 717 454 720 c 1
 448 717 442 714 435 714 c 1
 442 714 448 712 454 709 c 1
 460 712 466 714 473 714 c 1x08
216 714 m 1
 209 714 203 717 197 720 c 1
 191 717 184 714 177 714 c 1
 184 714 191 712 197 709 c 1
 203 712 209 714 216 714 c 1
130 714 m 1
 123 714 117 717 111 720 c 1
 105 717 99 714 92 714 c 1
 99 714 105 712 111 709 c 1
 117 712 123 714 130 714 c 1
135 714 m 1
 142 714 148 712 154 709 c 1
 160 712 166 714 173 714 c 1
 166 714 160 717 154 720 c 1
 148 717 142 714 135 714 c 1
EndSplineSet
EndChar

StartChar: dollar
Encoding: 36 36 9
Width: 522
VWidth: 0
UnlinkRmOvrlpSave: 1
Flags: W
HStem: 286 85<52.6424 110.718 111.282 153.717 154.282 196.717 197.282 239.717 240.282 259 263 281.718 282.283 302 306 324.718 325.283 367.718 368.283 427.358> 371 86<395.39 453.717 454.282 512.358> 457 86<137.642 196.717 197.282 239.717 240.282 281.718 282.283 324.718 325.283 367.718 368.283 427.358> 543 86<52.6424 110.718 111.282 169.358> 629 85<137.642 196.717 197.282 239.717 240.282 259 263 281.718 282.283 302 306 324.718 325.283 367.718 368.283 410.718 411.282 453.717 454.282 512.358>
VStem: 47 128<549.167 622.833> 218 129<206.167 279.696 720.304 793.833> 390 128<377.167 450.833>
CounterMasks: 1 07
LayerCount: 2
Back
Fore
SplineSet
347 243 m 0x87
 347 219 328 200 304 200 c 0
 296 200 288 202 282 206 c 1
 276 202 269 200 261 200 c 0
 237 200 218 219 218 243 c 0
 218 266 236 285 259 286 c 1
 252 286 246 288 240 291 c 1
 234 287 226 286 218 286 c 0
 210 286 203 287 197 291 c 1
 191 287 183 286 175 286 c 0
 167 286 160 287 154 291 c 1
 148 287 140 286 132 286 c 0
 124 286 117 287 111 291 c 1
 105 287 98 286 90 286 c 0
 66 286 47 305 47 329 c 0
 47 353 66 371 90 371 c 0
 98 371 105 370 111 366 c 1
 117 370 124 371 132 371 c 0
 140 371 148 370 154 366 c 1
 160 370 167 371 175 371 c 0
 183 371 191 370 197 366 c 1
 203 370 210 371 218 371 c 0x87
 226 371 234 370 240 366 c 1
 246 370 253 371 261 371 c 0
 269 371 276 370 282 366 c 1
 288 370 296 371 304 371 c 0x47
 312 371 319 370 325 366 c 1
 331 370 339 371 347 371 c 0
 355 371 362 370 368 366 c 1
 374 370 382 371 390 371 c 0
 414 371 433 353 433 329 c 0
 433 305 414 286 390 286 c 0
 382 286 374 287 368 291 c 1
 362 287 355 286 347 286 c 0
 339 286 331 287 325 291 c 1
 319 288 313 286 306 286 c 1
 329 285 347 266 347 243 c 0x87
518 414 m 0
 518 390 499 371 475 371 c 0
 467 371 460 373 454 377 c 1
 448 373 440 371 432 371 c 0
 408 371 390 390 390 414 c 0
 390 438 408 457 432 457 c 0
 440 457 448 455 454 451 c 1
 460 455 467 457 475 457 c 0x47
 499 457 518 438 518 414 c 0
433 500 m 0
 433 476 414 457 390 457 c 0
 382 457 374 459 368 463 c 1
 362 459 355 457 347 457 c 0
 339 457 331 459 325 463 c 1
 319 459 312 457 304 457 c 0
 296 457 288 459 282 463 c 1
 276 459 269 457 261 457 c 0
 253 457 246 459 240 463 c 1
 234 459 226 457 218 457 c 0
 210 457 203 459 197 463 c 1
 191 459 183 457 175 457 c 0
 151 457 132 476 132 500 c 0
 132 524 151 543 175 543 c 0
 183 543 191 541 197 537 c 1
 203 541 210 543 218 543 c 0
 226 543 234 541 240 537 c 1
 246 541 253 543 261 543 c 0
 269 543 276 541 282 537 c 1
 288 541 296 543 304 543 c 0
 312 543 319 541 325 537 c 1
 331 541 339 543 347 543 c 0
 355 543 362 541 368 537 c 1
 374 541 382 543 390 543 c 0x27
 414 543 433 524 433 500 c 0
175 586 m 0
 175 562 156 543 132 543 c 0
 124 543 117 545 111 549 c 1
 105 545 98 543 90 543 c 0
 66 543 47 562 47 586 c 0
 47 610 66 629 90 629 c 0
 98 629 105 627 111 623 c 1
 117 627 124 629 132 629 c 0x17
 156 629 175 610 175 586 c 0
518 671 m 0
 518 647 499 629 475 629 c 0
 467 629 460 630 454 634 c 1
 448 630 440 629 432 629 c 0
 424 629 417 630 411 634 c 1
 405 630 398 629 390 629 c 0
 382 629 374 630 368 634 c 1
 362 630 355 629 347 629 c 0
 339 629 331 630 325 634 c 1
 319 630 312 629 304 629 c 0
 296 629 288 630 282 634 c 1
 276 630 269 629 261 629 c 0
 253 629 246 630 240 634 c 1
 234 630 226 629 218 629 c 0
 210 629 203 630 197 634 c 1
 191 630 183 629 175 629 c 0
 151 629 132 647 132 671 c 0
 132 695 151 714 175 714 c 0
 183 714 191 713 197 709 c 1
 203 713 210 714 218 714 c 0
 226 714 234 713 240 709 c 1
 246 712 252 714 259 714 c 1
 236 715 218 734 218 757 c 0
 218 781 237 800 261 800 c 0
 269 800 276 798 282 794 c 1
 288 798 296 800 304 800 c 0
 328 800 347 781 347 757 c 0
 347 734 329 715 306 714 c 1
 313 714 319 712 325 709 c 1
 331 713 339 714 347 714 c 0
 355 714 362 713 368 709 c 1
 374 713 382 714 390 714 c 0
 398 714 405 713 411 709 c 1
 417 713 424 714 432 714 c 0
 440 714 448 713 454 709 c 1
 460 713 467 714 475 714 c 0x0f
 499 714 518 695 518 671 c 0
302 286 m 1x87
 295 286 288 288 282 291 c 1
 276 288 270 286 263 286 c 1
 270 286 276 283 282 280 c 1
 288 283 295 286 302 286 c 1x87
302 714 m 1x0f
 295 714 288 717 282 720 c 1
 276 717 270 714 263 714 c 1
 270 714 276 712 282 709 c 1
 288 712 295 714 302 714 c 1x0f
EndSplineSet
EndChar

StartChar: quotesingle
Encoding: 39 39 10
Width: 522
VWidth: 0
UnlinkRmOvrlpSave: 1
Flags: W
HStem: 629 85<52.8528 88 92 111.718 112.281 131 135 154.718 155.281 174 178 196.719 197.282 217 221 256.147>
VStem: 47 215<549.167 622.696 634.552 708.216 720.304 793.833>
LayerCount: 2
Back
Fore
SplineSet
262 586 m 1
 262 562 243 543 219 543 c 0
 211 543 203 545 197 549 c 1
 191 545 184 543 176 543 c 0
 168 543 161 545 155 549 c 1
 149 545 141 543 133 543 c 0
 125 543 118 545 112 549 c 1
 106 545 98 543 90 543 c 0
 66 543 47 562 47 586 c 0
 47 609 65 628 88 629 c 1
 65 630 47 648 47 671 c 0
 47 694 65 713 88 714 c 1
 65 715 47 734 47 757 c 0
 47 781 66 800 90 800 c 0
 98 800 106 798 112 794 c 1
 118 798 125 800 133 800 c 0
 141 800 149 798 155 794 c 1
 161 798 168 800 176 800 c 0
 184 800 191 798 197 794 c 1
 203 798 211 800 219 800 c 0
 243 800 262 781 262 757 c 0
 262 734 244 715 221 714 c 1
 244 713 262 694 262 671 c 1
 262 648 244 630 221 629 c 1
 244 628 262 609 262 586 c 1
217 629 m 1
 210 629 203 631 197 634 c 1
 191 631 185 629 178 629 c 1
 185 629 191 626 197 623 c 1
 203 626 210 629 217 629 c 1
131 629 m 1
 124 629 118 631 112 634 c 1
 106 631 99 629 92 629 c 1
 99 629 106 626 112 623 c 1
 118 626 124 629 131 629 c 1
135 629 m 1
 142 629 149 626 155 623 c 1
 161 626 167 629 174 629 c 1
 167 629 161 631 155 634 c 1
 149 631 142 629 135 629 c 1
217 714 m 1
 210 714 203 717 197 720 c 1
 191 717 185 714 178 714 c 1
 185 714 191 712 197 709 c 1
 203 712 210 714 217 714 c 1
131 714 m 1
 124 714 118 717 112 720 c 1
 106 717 99 714 92 714 c 1
 99 714 106 712 112 709 c 1
 118 712 124 714 131 714 c 1
135 714 m 1
 142 714 149 712 155 709 c 1
 161 712 167 714 174 714 c 1
 167 714 161 717 155 720 c 1
 149 717 142 714 135 714 c 1
EndSplineSet
EndChar

StartChar: ampersand
Encoding: 38 38 11
Width: 522
VWidth: 0
UnlinkRmOvrlpSave: 1
Flags: W
HStem: 200 86<137.642 196.717 197.282 239.717 240.282 281.718 282.283 341.358 395.39 453.717 454.282 512.358> 286 85<52.6424 87 92 110.718 111.282 130 135 169.358 309.642 367.718 368.283 427.358> 371 86<52.6424 87 92 110.718 111.282 130 135 169.358 223.642 281.718 282.283 341.358 395.39 453.717 454.282 512.358> 457 86<137.642 196.717 197.282 255.358> 629 85<52.6424 87 92 110.718 111.282 130 135 169.358 223.642 259 263 281.718 282.283 302 306 341.358> 714 86<137.642 196.717 197.282 255.358>
VStem: 47 128<291.642 365.928 377.304 450.833 549.167 622.696 634.072 708.358> 132 129<463.167 536.833 720.167 793.833> 218 129<377.167 450.833 549.167 622.696 634.552 708.358> 304 129<291.642 365.61> 390 128<206.167 279.833 377.167 450.833>
LayerCount: 2
Back
Fore
SplineSet
518 243 m 0x8020
 518 219 499 200 475 200 c 0
 467 200 460 202 454 206 c 1
 448 202 440 200 432 200 c 0
 408 200 390 219 390 243 c 0
 390 267 408 286 432 286 c 0
 440 286 448 284 454 280 c 1
 460 284 467 286 475 286 c 0
 499 286 518 267 518 243 c 0x8020
347 243 m 0x8080
 347 219 328 200 304 200 c 0
 296 200 288 202 282 206 c 1
 276 202 269 200 261 200 c 0x8140
 253 200 246 202 240 206 c 1
 234 202 226 200 218 200 c 0
 210 200 203 202 197 206 c 1
 191 202 183 200 175 200 c 0x8280
 151 200 132 219 132 243 c 0x81
 132 267 151 286 175 286 c 0
 183 286 191 284 197 280 c 1
 203 284 210 286 218 286 c 0x8280
 226 286 234 284 240 280 c 1
 246 284 253 286 261 286 c 0
 269 286 276 284 282 280 c 1
 288 284 296 286 304 286 c 0x8140
 328 286 347 267 347 243 c 0x8080
433 329 m 0
 433 305 414 286 390 286 c 0
 382 286 374 287 368 291 c 1
 362 287 355 286 347 286 c 0x40a0
 323 286 304 305 304 329 c 0x4040
 304 353 323 371 347 371 c 0
 355 371 362 370 368 366 c 1
 374 370 382 371 390 371 c 0x40a0
 414 371 433 353 433 329 c 0
175 329 m 0x52
 175 305 156 286 132 286 c 0x51
 124 286 117 287 111 291 c 1
 105 287 98 286 90 286 c 0
 66 286 47 305 47 329 c 0
 47 352 64 370 87 371 c 1
 64 372 47 391 47 414 c 0x52
 47 438 66 457 90 457 c 0
 98 457 105 455 111 451 c 1
 117 455 124 457 132 457 c 0x51
 156 457 175 438 175 414 c 0
 175 391 158 372 135 371 c 1
 158 370 175 352 175 329 c 0x52
518 414 m 0x2020
 518 390 499 371 475 371 c 0
 467 371 460 373 454 377 c 1
 448 373 440 371 432 371 c 0
 408 371 390 390 390 414 c 0
 390 438 408 457 432 457 c 0
 440 457 448 455 454 451 c 1
 460 455 467 457 475 457 c 0
 499 457 518 438 518 414 c 0x2020
347 414 m 0x2080
 347 390 328 371 304 371 c 0
 296 371 288 373 282 377 c 1
 276 373 269 371 261 371 c 0x2140
 237 371 218 390 218 414 c 0x2080
 218 438 237 457 261 457 c 0
 269 457 276 455 282 451 c 1
 288 455 296 457 304 457 c 0x2140
 328 457 347 438 347 414 c 0x2080
261 500 m 0
 261 476 242 457 218 457 c 0
 210 457 203 459 197 463 c 1
 191 459 183 457 175 457 c 0x1280
 151 457 132 476 132 500 c 0x11
 132 524 151 543 175 543 c 0
 183 543 191 541 197 537 c 1
 203 541 210 543 218 543 c 0x1280
 242 543 261 524 261 500 c 0
347 586 m 1
 347 562 328 543 304 543 c 0
 296 543 288 545 282 549 c 1
 276 545 269 543 261 543 c 0x1940
 237 543 218 562 218 586 c 0
 218 609 236 628 259 629 c 1
 236 630 218 648 218 671 c 0x1880
 218 695 237 714 261 714 c 0
 269 714 276 713 282 709 c 1
 288 713 296 714 304 714 c 0x0540
 328 714 347 695 347 671 c 0
 347 648 329 630 306 629 c 1x0880
 329 628 347 609 347 586 c 1
175 586 m 1x0a
 175 562 156 543 132 543 c 0x19
 124 543 117 545 111 549 c 1
 105 545 98 543 90 543 c 0
 66 543 47 562 47 586 c 0
 47 609 64 628 87 629 c 1
 64 630 47 648 47 671 c 0x1a
 47 695 66 714 90 714 c 0
 98 714 105 713 111 709 c 1
 117 713 124 714 132 714 c 0x05
 156 714 175 695 175 671 c 0
 175 648 158 630 135 629 c 1
 158 628 175 609 175 586 c 1x0a
261 757 m 0
 261 733 242 714 218 714 c 0
 210 714 203 716 197 720 c 1
 191 716 183 714 175 714 c 0x0680
 151 714 132 733 132 757 c 0x05
 132 781 151 800 175 800 c 0
 183 800 191 798 197 794 c 1
 203 798 210 800 218 800 c 0x0680
 242 800 261 781 261 757 c 0
130 371 m 1x40
 123 371 117 374 111 377 c 1
 105 374 99 371 92 371 c 1
 99 371 105 369 111 366 c 1
 117 369 123 371 130 371 c 1x40
302 629 m 1x08
 295 629 288 631 282 634 c 1
 276 631 270 629 263 629 c 1
 270 629 276 626 282 623 c 1
 288 626 295 629 302 629 c 1x08
130 629 m 1
 123 629 117 631 111 634 c 1
 105 631 99 629 92 629 c 1
 99 629 105 626 111 623 c 1
 117 626 123 629 130 629 c 1
EndSplineSet
EndChar

StartChar: parenright
Encoding: 41 41 12
Width: 522
VWidth: 0
UnlinkRmOvrlpSave: 1
Flags: W
HStem: 200 86<52.6424 111.717 112.282 170.358> 286 85<138.642 196.718 197.283 256.358> 371 86<224.853 260 264 282.718 283.283 303 307 342.147> 457 86<224.853 260 264 282.719 283.282 303 307 342.147> 543 86<224.853 260 264 282.718 283.283 303 307 342.147> 629 85<138.642 196.718 197.283 256.358> 714 86<52.6424 111.717 112.282 170.358>
VStem: 47 129<206.167 279.833 720.167 793.833> 133 129<291.642 365.61 634.39 708.358> 219 129<377.167 450.696 463.304 536.696 549.304 622.833>
LayerCount: 2
Back
Fore
SplineSet
176 243 m 0x81
 176 219 157 200 133 200 c 0x8080
 125 200 118 202 112 206 c 1
 106 202 98 200 90 200 c 0
 66 200 47 219 47 243 c 0x81
 47 267 66 286 90 286 c 0
 98 286 106 284 112 280 c 1
 118 284 125 286 133 286 c 0x8080
 157 286 176 267 176 243 c 0x81
262 329 m 0
 262 305 243 286 219 286 c 0
 211 286 203 287 197 291 c 1
 191 287 184 286 176 286 c 0x4140
 152 286 133 305 133 329 c 0x4080
 133 353 152 371 176 371 c 0
 184 371 191 370 197 366 c 1
 203 370 211 371 219 371 c 0x4140
 243 371 262 353 262 329 c 0
348 414 m 0
 348 390 329 371 305 371 c 0
 297 371 289 373 283 377 c 1
 277 373 270 371 262 371 c 0x2080
 238 371 219 390 219 414 c 0
 219 437 237 456 260 457 c 1x2040
 237 458 219 477 219 500 c 0
 219 523 237 542 260 543 c 1
 237 544 219 563 219 586 c 0x1040
 219 610 238 629 262 629 c 0x1480
 270 629 277 627 283 623 c 1
 289 627 297 629 305 629 c 0
 329 629 348 610 348 586 c 0
 348 563 330 544 307 543 c 1x1440
 330 542 348 523 348 500 c 0
 348 477 330 458 307 457 c 1x2040
 330 456 348 437 348 414 c 0
262 671 m 0
 262 647 243 629 219 629 c 0
 211 629 203 630 197 634 c 1
 191 630 184 629 176 629 c 0x0540
 152 629 133 647 133 671 c 0x0480
 133 695 152 714 176 714 c 0
 184 714 191 713 197 709 c 1
 203 713 211 714 219 714 c 0x0540
 243 714 262 695 262 671 c 0
176 757 m 0
 176 733 157 714 133 714 c 0x0280
 125 714 118 716 112 720 c 1
 106 716 98 714 90 714 c 0
 66 714 47 733 47 757 c 0x03
 47 781 66 800 90 800 c 0
 98 800 106 798 112 794 c 1
 118 798 125 800 133 800 c 0x0280
 157 800 176 781 176 757 c 0
303 457 m 1x20
 296 457 289 460 283 463 c 1
 277 460 271 457 264 457 c 1
 271 457 277 454 283 451 c 1
 289 454 296 457 303 457 c 1x20
303 543 m 1x10
 296 543 289 546 283 549 c 1
 277 546 271 543 264 543 c 1
 271 543 277 540 283 537 c 1
 289 540 296 543 303 543 c 1x10
EndSplineSet
EndChar

StartChar: parenleft
Encoding: 40 40 13
Width: 522
VWidth: 0
UnlinkRmOvrlpSave: 1
Flags: W
HStem: 200 86<224.642 282.718 283.283 342.358> 286 85<138.642 196.718 197.283 256.358> 371 86<52.8528 88 92 111.717 112.282 131 135 170.147> 457 86<52.8528 88 92 111.718 112.281 131 135 170.147> 543 86<52.8528 88 92 111.717 112.282 131 135 170.147> 629 85<138.642 196.718 197.283 256.358> 714 86<224.642 282.718 283.283 342.358>
VStem: 47 129<377.167 450.696 463.304 536.696 549.304 622.833> 133 129<291.642 365.61 634.39 708.358> 219 129<206.167 279.833 720.167 793.833>
LayerCount: 2
Back
Fore
SplineSet
348 243 m 0x8040
 348 219 329 200 305 200 c 0
 297 200 289 202 283 206 c 1
 277 202 270 200 262 200 c 0x8080
 238 200 219 219 219 243 c 0x8040
 219 267 238 286 262 286 c 0x8080
 270 286 277 284 283 280 c 1
 289 284 297 286 305 286 c 0
 329 286 348 267 348 243 c 0x8040
262 329 m 0
 262 305 243 286 219 286 c 0
 211 286 203 287 197 291 c 1
 191 287 184 286 176 286 c 0x4140
 152 286 133 305 133 329 c 0x4080
 133 353 152 371 176 371 c 0
 184 371 191 370 197 366 c 1
 203 370 211 371 219 371 c 0x4140
 243 371 262 353 262 329 c 0
176 414 m 1
 176 390 157 371 133 371 c 0x2080
 125 371 118 373 112 377 c 1
 106 373 98 371 90 371 c 0
 66 371 47 390 47 414 c 0
 47 437 65 456 88 457 c 1x21
 65 458 47 477 47 500 c 1
 47 523 65 542 88 543 c 1
 65 544 47 563 47 586 c 0x11
 47 610 66 629 90 629 c 0
 98 629 106 627 112 623 c 1
 118 627 125 629 133 629 c 0x1480
 157 629 176 610 176 586 c 0
 176 563 158 544 135 543 c 1x15
 158 542 176 523 176 500 c 1
 176 477 158 458 135 457 c 1x21
 158 456 176 437 176 414 c 1
262 671 m 0
 262 647 243 629 219 629 c 0
 211 629 203 630 197 634 c 1
 191 630 184 629 176 629 c 0x0540
 152 629 133 647 133 671 c 0x0480
 133 695 152 714 176 714 c 0
 184 714 191 713 197 709 c 1
 203 713 211 714 219 714 c 0x0540
 243 714 262 695 262 671 c 0
348 757 m 0
 348 733 329 714 305 714 c 0
 297 714 289 716 283 720 c 1
 277 716 270 714 262 714 c 0x0280
 238 714 219 733 219 757 c 0x0240
 219 781 238 800 262 800 c 0
 270 800 277 798 283 794 c 1
 289 798 297 800 305 800 c 0x0280
 329 800 348 781 348 757 c 0
131 457 m 1x20
 124 457 118 460 112 463 c 1
 106 460 99 457 92 457 c 1
 99 457 106 454 112 451 c 1
 118 454 124 457 131 457 c 1x20
131 543 m 1x10
 124 543 118 546 112 549 c 1
 106 546 99 543 92 543 c 1
 99 543 106 540 112 537 c 1
 118 540 124 543 131 543 c 1x10
EndSplineSet
EndChar

StartChar: plus
Encoding: 43 43 14
Width: 522
VWidth: 0
UnlinkRmOvrlpSave: 1
Flags: W
HStem: 286 85<223.642 259 263 281.718 282.283 302 306 341.358> 457 86<52.6424 110.718 111.282 153.717 154.282 196.717 197.282 239.717 240.281 259 263 281.719 282.282 302 306 324.719 325.283 367.718 368.283 410.718 411.282 453.717 454.282 512.358> 629 85<223.642 259 263 281.718 282.283 302 306 341.358>
VStem: 218 129<291.642 365.448 377.304 450.696 549.304 622.696 634.552 708.358>
CounterMasks: 1 e0
LayerCount: 2
Back
Fore
SplineSet
347 329 m 0
 347 305 328 286 304 286 c 0
 296 286 288 287 282 291 c 1
 276 287 269 286 261 286 c 0
 237 286 218 305 218 329 c 0
 218 352 236 370 259 371 c 1
 236 372 218 391 218 414 c 0
 218 437 236 456 259 457 c 1
 252 457 246 460 240 463 c 1
 234 459 226 457 218 457 c 0
 210 457 203 459 197 463 c 1
 191 459 183 457 175 457 c 0
 167 457 160 459 154 463 c 1
 148 459 140 457 132 457 c 0
 124 457 117 459 111 463 c 1
 105 459 98 457 90 457 c 0
 66 457 47 476 47 500 c 0
 47 524 66 543 90 543 c 0
 98 543 105 541 111 537 c 1
 117 541 124 543 132 543 c 0
 140 543 148 541 154 537 c 1
 160 541 167 543 175 543 c 0
 183 543 191 541 197 537 c 1
 203 541 210 543 218 543 c 0
 226 543 234 541 240 537 c 1
 246 540 252 543 259 543 c 1
 236 544 218 563 218 586 c 0
 218 609 236 628 259 629 c 1
 236 630 218 648 218 671 c 0
 218 695 237 714 261 714 c 0
 269 714 276 713 282 709 c 1
 288 713 296 714 304 714 c 0
 328 714 347 695 347 671 c 0
 347 648 329 630 306 629 c 1
 329 628 347 609 347 586 c 1
 347 563 329 544 306 543 c 1
 313 543 319 540 325 537 c 1
 331 541 339 543 347 543 c 0
 355 543 362 541 368 537 c 1
 374 541 382 543 390 543 c 0
 398 543 405 541 411 537 c 1
 417 541 424 543 432 543 c 0
 440 543 448 541 454 537 c 1
 460 541 467 543 475 543 c 0
 499 543 518 524 518 500 c 0
 518 476 499 457 475 457 c 0
 467 457 460 459 454 463 c 1
 448 459 440 457 432 457 c 0
 424 457 417 459 411 463 c 1
 405 459 398 457 390 457 c 0
 382 457 374 459 368 463 c 1
 362 459 355 457 347 457 c 0
 339 457 331 459 325 463 c 1
 319 460 313 457 306 457 c 1
 329 456 347 437 347 414 c 0
 347 391 329 372 306 371 c 1
 329 370 347 352 347 329 c 0
302 371 m 1
 295 371 288 374 282 377 c 1
 276 374 270 371 263 371 c 1
 270 371 276 369 282 366 c 1
 288 369 295 371 302 371 c 1
302 457 m 1
 295 457 288 460 282 463 c 1
 276 460 270 457 263 457 c 1
 270 457 276 454 282 451 c 1
 288 454 295 457 302 457 c 1
302 543 m 1
 295 543 288 546 282 549 c 1
 276 546 270 543 263 543 c 1
 270 543 276 540 282 537 c 1
 288 540 295 543 302 543 c 1
302 629 m 1
 295 629 288 631 282 634 c 1
 276 631 270 629 263 629 c 1
 270 629 276 626 282 623 c 1
 288 626 295 629 302 629 c 1
EndSplineSet
EndChar

StartChar: asterisk
Encoding: 42 42 15
Width: 522
VWidth: 0
UnlinkRmOvrlpSave: 1
Flags: W
HStem: 371 86<52.6424 110.718 111.282 169.358 223.853 259 263 281.718 282.283 302 306 341.147 395.39 453.717 454.282 512.358> 457 86<66 98 124 173 177 196.717 197.282 216 220 239.717 240.281 259 263 281.719 282.282 302 306 324.719 325.283 345 349 367.718 368.283 388 392 440 467 499> 543 86<52.6424 110.718 111.282 153.717 154.281 173 177 196.718 197.281 216 220 239.718 240.281 259 263 281.719 282.282 302 306 324.719 325.282 345 349 367.719 368.282 388 392 410.719 411.282 453.717 454.282 512.358> 629 85<137.642 173 177 196.717 197.282 216 220 239.717 240.281 259 263 281.719 282.282 302 306 324.719 325.283 345 349 367.718 368.283 388 392 427.358> 714 86<52.6424 110.718 111.282 169.358 223.853 259 263 281.718 282.283 302 306 341.147 395.39 453.717 454.282 512.358>
VStem: 47 128<377.167 450.833 720.167 793.833> 218 129<377.167 450.696 720.304 793.833> 390 128<377.167 450.833 720.167 793.833>
CounterMasks: 1 07
LayerCount: 2
Back
Fore
SplineSet
518 414 m 0x87
 518 390 499 371 475 371 c 0
 467 371 460 373 454 377 c 1
 448 373 440 371 432 371 c 0
 408 371 390 390 390 414 c 0
 390 438 408 457 432 457 c 0
 440 457 448 455 454 451 c 1
 460 455 467 457 475 457 c 0
 499 457 518 438 518 414 c 0x87
347 414 m 0
 347 390 328 371 304 371 c 0
 296 371 288 373 282 377 c 1
 276 373 269 371 261 371 c 0
 237 371 218 390 218 414 c 0
 218 437 236 456 259 457 c 1x87
 252 457 246 460 240 463 c 1
 234 459 226 457 218 457 c 0
 210 457 203 459 197 463 c 1
 191 459 183 457 175 457 c 0
 151 457 132 476 132 500 c 0
 132 523 150 542 173 543 c 1
 166 543 160 546 154 549 c 1
 148 545 140 543 132 543 c 0
 124 543 117 545 111 549 c 1
 105 545 98 543 90 543 c 0x47
 66 543 47 562 47 586 c 0
 47 610 66 629 90 629 c 0
 98 629 105 627 111 623 c 1
 117 627 124 629 132 629 c 0
 140 629 148 627 154 623 c 1
 160 626 166 629 173 629 c 1
 150 630 132 648 132 671 c 0
 132 695 151 714 175 714 c 0
 183 714 191 713 197 709 c 1
 203 713 210 714 218 714 c 0x2f
 226 714 234 713 240 709 c 1
 246 712 252 714 259 714 c 1x17
 236 715 218 734 218 757 c 0
 218 781 237 800 261 800 c 0
 269 800 276 798 282 794 c 1
 288 798 296 800 304 800 c 0x0f
 328 800 347 781 347 757 c 0
 347 734 329 715 306 714 c 1x17
 313 714 319 712 325 709 c 1
 331 713 339 714 347 714 c 0
 355 714 362 713 368 709 c 1
 374 713 382 714 390 714 c 0
 414 714 433 695 433 671 c 0
 433 648 415 630 392 629 c 1
 399 629 405 626 411 623 c 1
 417 627 424 629 432 629 c 0
 440 629 448 627 454 623 c 1
 460 627 467 629 475 629 c 0x2f
 499 629 518 610 518 586 c 0
 518 562 499 543 475 543 c 0
 467 543 460 545 454 549 c 1
 448 545 440 543 432 543 c 0
 424 543 417 545 411 549 c 1
 405 546 399 543 392 543 c 1
 415 542 433 523 433 500 c 0
 433 476 414 457 390 457 c 0
 382 457 374 459 368 463 c 1
 362 459 355 457 347 457 c 0x47
 339 457 331 459 325 463 c 1
 319 460 313 457 306 457 c 1
 329 456 347 437 347 414 c 0
175 414 m 0
 175 390 156 371 132 371 c 0
 124 371 117 373 111 377 c 1
 105 373 98 371 90 371 c 0
 66 371 47 390 47 414 c 0
 47 438 66 457 90 457 c 0
 98 457 105 455 111 451 c 1
 117 455 124 457 132 457 c 0
 156 457 175 438 175 414 c 0
518 757 m 0
 518 733 499 714 475 714 c 0
 467 714 460 716 454 720 c 1
 448 716 440 714 432 714 c 0
 408 714 390 733 390 757 c 0
 390 781 408 800 432 800 c 0
 440 800 448 798 454 794 c 1
 460 798 467 800 475 800 c 0x0f
 499 800 518 781 518 757 c 0
175 757 m 0
 175 733 156 714 132 714 c 0
 124 714 117 716 111 720 c 1
 105 716 98 714 90 714 c 0
 66 714 47 733 47 757 c 0
 47 781 66 800 90 800 c 0
 98 800 105 798 111 794 c 1
 117 798 124 800 132 800 c 0
 156 800 175 781 175 757 c 0
302 457 m 1x87
 295 457 288 460 282 463 c 1
 276 460 270 457 263 457 c 1
 270 457 276 454 282 451 c 1
 288 454 295 457 302 457 c 1x87
388 543 m 1x47
 381 543 374 546 368 549 c 1
 362 546 356 543 349 543 c 1
 356 543 362 540 368 537 c 1
 374 540 381 543 388 543 c 1x47
302 543 m 1
 295 543 288 546 282 549 c 1
 276 546 270 543 263 543 c 1
 270 543 276 540 282 537 c 1
 288 540 295 543 302 543 c 1
306 543 m 1
 313 543 319 540 325 537 c 1
 331 540 338 543 345 543 c 1
 338 543 331 546 325 549 c 1
 319 546 313 543 306 543 c 1
216 543 m 1
 209 543 203 546 197 549 c 1
 191 546 184 543 177 543 c 1
 184 543 191 540 197 537 c 1
 203 540 209 543 216 543 c 1
220 543 m 1
 227 543 234 540 240 537 c 1
 246 540 252 543 259 543 c 1
 252 543 246 546 240 549 c 1
 234 546 227 543 220 543 c 1
388 629 m 1x27
 381 629 374 631 368 634 c 1
 362 631 356 629 349 629 c 1
 356 629 362 626 368 623 c 1
 374 626 381 629 388 629 c 1x27
302 629 m 1
 295 629 288 631 282 634 c 1
 276 631 270 629 263 629 c 1
 270 629 276 626 282 623 c 1
 288 626 295 629 302 629 c 1
306 629 m 1
 313 629 319 626 325 623 c 1
 331 626 338 629 345 629 c 1
 338 629 331 631 325 634 c 1
 319 631 313 629 306 629 c 1
216 629 m 1
 209 629 203 631 197 634 c 1
 191 631 184 629 177 629 c 1
 184 629 191 626 197 623 c 1
 203 626 209 629 216 629 c 1
220 629 m 1
 227 629 234 626 240 623 c 1
 246 626 252 629 259 629 c 1
 252 629 246 631 240 634 c 1
 234 631 227 629 220 629 c 1
302 714 m 1x17
 295 714 288 717 282 720 c 1
 276 717 270 714 263 714 c 1
 270 714 276 712 282 709 c 1
 288 712 295 714 302 714 c 1x17
EndSplineSet
EndChar

StartChar: hyphen
Encoding: 45 45 16
Width: 522
VWidth: 0
UnlinkRmOvrlpSave: 1
Flags: W
HStem: 371 86<52.6424 110.718 111.282 153.717 154.282 196.717 197.282 239.717 240.282 281.718 282.283 324.718 325.283 367.718 368.283 410.718 411.282 453.717 454.282 512.358>
LayerCount: 2
Back
Fore
SplineSet
518 414 m 0
 518 390 499 371 475 371 c 0
 467 371 460 373 454 377 c 1
 448 373 440 371 432 371 c 0
 424 371 417 373 411 377 c 1
 405 373 398 371 390 371 c 0
 382 371 374 373 368 377 c 1
 362 373 355 371 347 371 c 0
 339 371 331 373 325 377 c 1
 319 373 312 371 304 371 c 0
 296 371 288 373 282 377 c 1
 276 373 269 371 261 371 c 0
 253 371 246 373 240 377 c 1
 234 373 226 371 218 371 c 0
 210 371 203 373 197 377 c 1
 191 373 183 371 175 371 c 0
 167 371 160 373 154 377 c 1
 148 373 140 371 132 371 c 0
 124 371 117 373 111 377 c 1
 105 373 98 371 90 371 c 0
 66 371 47 390 47 414 c 0
 47 438 66 457 90 457 c 0
 98 457 105 455 111 451 c 1
 117 455 124 457 132 457 c 0
 140 457 148 455 154 451 c 1
 160 455 167 457 175 457 c 0
 183 457 191 455 197 451 c 1
 203 455 210 457 218 457 c 0
 226 457 234 455 240 451 c 1
 246 455 253 457 261 457 c 0
 269 457 276 455 282 451 c 1
 288 455 296 457 304 457 c 0
 312 457 319 455 325 451 c 1
 331 455 339 457 347 457 c 0
 355 457 362 455 368 451 c 1
 374 455 382 457 390 457 c 0
 398 457 405 455 411 451 c 1
 417 455 424 457 432 457 c 0
 440 457 448 455 454 451 c 1
 460 455 467 457 475 457 c 0
 499 457 518 438 518 414 c 0
EndSplineSet
EndChar

StartChar: comma
Encoding: 44 44 17
Width: 522
VWidth: 0
UnlinkRmOvrlpSave: 1
Flags: W
HStem: 200 86<52.6424 111.717 112.282 170.358> 286 85<138.642 174 178 196.718 197.283 217 221 256.358> 371 86<52.8528 88 92 111.717 112.282 131 135 154.717 155.281 174 178 196.719 197.282 217 221 256.147> 457 86<52.8528 88 92 111.717 112.282 131 135 154.717 155.282 174 178 196.718 197.283 217 221 256.147>
VStem: 47 129<206.167 279.833> 133 129<291.642 365.448>
LayerCount: 2
Back
Fore
SplineSet
176 243 m 0x88
 176 219 157 200 133 200 c 0x84
 125 200 118 202 112 206 c 1
 106 202 98 200 90 200 c 0
 66 200 47 219 47 243 c 0x88
 47 267 66 286 90 286 c 0
 98 286 106 284 112 280 c 1
 118 284 125 286 133 286 c 0x84
 157 286 176 267 176 243 c 0x88
262 329 m 0
 262 305 243 286 219 286 c 0
 211 286 203 287 197 291 c 1
 191 287 184 286 176 286 c 0x48
 152 286 133 305 133 329 c 0
 133 352 151 370 174 371 c 1x44
 167 371 161 374 155 377 c 1
 149 373 141 371 133 371 c 0x24
 125 371 118 373 112 377 c 1
 106 373 98 371 90 371 c 0
 66 371 47 390 47 414 c 0
 47 437 65 456 88 457 c 1
 65 458 47 477 47 500 c 1x28
 47 524 66 543 90 543 c 0
 98 543 106 541 112 537 c 1
 118 541 125 543 133 543 c 0x14
 141 543 149 541 155 537 c 1
 161 541 168 543 176 543 c 0
 184 543 191 541 197 537 c 1
 203 541 211 543 219 543 c 0x18
 243 543 262 524 262 500 c 0
 262 477 244 458 221 457 c 1x24
 244 456 262 437 262 414 c 0
 262 391 244 372 221 371 c 1x44
 244 370 262 352 262 329 c 0
217 371 m 1
 210 371 203 374 197 377 c 1
 191 374 185 371 178 371 c 1
 185 371 191 369 197 366 c 1
 203 369 210 371 217 371 c 1
217 457 m 1x20
 210 457 203 460 197 463 c 1
 191 460 185 457 178 457 c 1
 185 457 191 454 197 451 c 1
 203 454 210 457 217 457 c 1x20
131 457 m 1
 124 457 118 460 112 463 c 1
 106 460 99 457 92 457 c 1
 99 457 106 454 112 451 c 1
 118 454 124 457 131 457 c 1
135 457 m 1
 142 457 149 454 155 451 c 1
 161 454 167 457 174 457 c 1
 167 457 161 460 155 463 c 1
 149 460 142 457 135 457 c 1
EndSplineSet
EndChar

StartChar: slash
Encoding: 47 47 18
Width: 522
VWidth: 0
UnlinkRmOvrlpSave: 1
Flags: W
HStem: 286 85<52.6424 110.718 111.282 169.358> 371 86<137.642 196.717 197.282 255.358> 457 86<223.642 281.718 282.283 341.358> 543 86<309.642 367.718 368.283 427.358> 629 85<395.39 453.717 454.282 512.358>
VStem: 47 128<291.642 365.61> 132 129<377.167 450.833> 218 129<463.167 536.833> 304 129<549.167 622.833> 390 128<634.39 708.358>
LayerCount: 2
Back
Fore
SplineSet
175 329 m 0x84
 175 305 156 286 132 286 c 0x82
 124 286 117 287 111 291 c 1
 105 287 98 286 90 286 c 0
 66 286 47 305 47 329 c 0x84
 47 353 66 371 90 371 c 0
 98 371 105 370 111 366 c 1
 117 370 124 371 132 371 c 0x82
 156 371 175 353 175 329 c 0x84
261 414 m 0
 261 390 242 371 218 371 c 0
 210 371 203 373 197 377 c 1
 191 373 183 371 175 371 c 0x45
 151 371 132 390 132 414 c 0x42
 132 438 151 457 175 457 c 0
 183 457 191 455 197 451 c 1
 203 455 210 457 218 457 c 0x45
 242 457 261 438 261 414 c 0
347 500 m 0
 347 476 328 457 304 457 c 0
 296 457 288 459 282 463 c 1
 276 459 269 457 261 457 c 0x2280
 237 457 218 476 218 500 c 0x21
 218 524 237 543 261 543 c 0
 269 543 276 541 282 537 c 1
 288 541 296 543 304 543 c 0x2280
 328 543 347 524 347 500 c 0
433 586 m 0
 433 562 414 543 390 543 c 0
 382 543 374 545 368 549 c 1
 362 545 355 543 347 543 c 0x1140
 323 543 304 562 304 586 c 0x1080
 304 610 323 629 347 629 c 0
 355 629 362 627 368 623 c 1
 374 627 382 629 390 629 c 0x1140
 414 629 433 610 433 586 c 0
518 671 m 0
 518 647 499 629 475 629 c 0
 467 629 460 630 454 634 c 1
 448 630 440 629 432 629 c 0
 408 629 390 647 390 671 c 0
 390 695 408 714 432 714 c 0
 440 714 448 713 454 709 c 1
 460 713 467 714 475 714 c 0x0840
 499 714 518 695 518 671 c 0
EndSplineSet
EndChar

StartChar: period
Encoding: 46 46 19
Width: 522
VWidth: 0
UnlinkRmOvrlpSave: 1
Flags: W
HStem: 286 85<52.8528 88 92 111.717 112.282 131 135 154.717 155.282 174 178 196.718 197.283 217 221 256.147>
VStem: 47 215<206.167 279.696 291.784 365.61>
LayerCount: 2
Back
Fore
SplineSet
262 243 m 0
 262 219 243 200 219 200 c 0
 211 200 203 202 197 206 c 1
 191 202 184 200 176 200 c 0
 168 200 161 202 155 206 c 1
 149 202 141 200 133 200 c 0
 125 200 118 202 112 206 c 1
 106 202 98 200 90 200 c 0
 66 200 47 219 47 243 c 0
 47 266 65 285 88 286 c 1
 65 287 47 306 47 329 c 0
 47 353 66 371 90 371 c 0
 98 371 106 370 112 366 c 1
 118 370 125 371 133 371 c 0
 141 371 149 370 155 366 c 1
 161 370 168 371 176 371 c 0
 184 371 191 370 197 366 c 1
 203 370 211 371 219 371 c 0
 243 371 262 353 262 329 c 0
 262 306 244 287 221 286 c 1
 244 285 262 266 262 243 c 0
217 286 m 1
 210 286 203 288 197 291 c 1
 191 288 185 286 178 286 c 1
 185 286 191 283 197 280 c 1
 203 283 210 286 217 286 c 1
131 286 m 1
 124 286 118 288 112 291 c 1
 106 288 99 286 92 286 c 1
 99 286 106 283 112 280 c 1
 118 283 124 286 131 286 c 1
135 286 m 1
 142 286 149 283 155 280 c 1
 161 283 167 286 174 286 c 1
 167 286 161 288 155 291 c 1
 149 288 142 286 135 286 c 1
EndSplineSet
EndChar

StartChar: one
Encoding: 49 49 20
Width: 522
VWidth: 0
UnlinkRmOvrlpSave: 1
Flags: W
HStem: 200 86<52.6424 111.717 112.282 154.717 155.282 174 178 196.718 197.283 217 221 239.718 240.283 282.718 283.283 342.358> 286 85<138.853 174 178 196.719 197.282 217 221 256.147> 457 86<138.853 174 178 196.719 197.282 217 221 256.147> 629 85<52.6424 111.717 112.282 154.717 155.281 174 178 196.719 197.282 217 221 256.147>
VStem: 133 129<291.784 365.448 377.304 450.696 463.304 536.696 549.304 622.696 720.304 793.833>
LayerCount: 2
Back
Fore
SplineSet
348 243 m 0xb8
 348 219 329 200 305 200 c 0
 297 200 289 202 283 206 c 1
 277 202 270 200 262 200 c 0
 254 200 246 202 240 206 c 1
 234 202 227 200 219 200 c 0
 211 200 203 202 197 206 c 1
 191 202 184 200 176 200 c 0
 168 200 161 202 155 206 c 1
 149 202 141 200 133 200 c 0
 125 200 118 202 112 206 c 1
 106 202 98 200 90 200 c 0
 66 200 47 219 47 243 c 0
 47 267 66 286 90 286 c 0
 98 286 106 284 112 280 c 1
 118 284 125 286 133 286 c 0
 141 286 149 284 155 280 c 1
 161 283 167 286 174 286 c 1xb8
 151 287 133 306 133 329 c 0
 133 352 151 370 174 371 c 1
 151 372 133 391 133 414 c 0
 133 437 151 456 174 457 c 1
 151 458 133 477 133 500 c 1
 133 523 151 542 174 543 c 1
 151 544 133 563 133 586 c 0
 133 609 151 628 174 629 c 1
 167 629 161 631 155 634 c 1
 149 630 141 629 133 629 c 0
 125 629 118 630 112 634 c 1
 106 630 98 629 90 629 c 0
 66 629 47 647 47 671 c 0
 47 695 66 714 90 714 c 0
 98 714 106 713 112 709 c 1
 118 713 125 714 133 714 c 0
 141 714 149 713 155 709 c 1
 161 712 167 714 174 714 c 1
 151 715 133 734 133 757 c 0
 133 781 152 800 176 800 c 0
 184 800 191 798 197 794 c 1
 203 798 211 800 219 800 c 0
 243 800 262 781 262 757 c 0
 262 734 244 715 221 714 c 1
 244 713 262 694 262 671 c 1
 262 648 244 630 221 629 c 1
 244 628 262 609 262 586 c 1
 262 563 244 544 221 543 c 1
 244 542 262 523 262 500 c 0
 262 477 244 458 221 457 c 1
 244 456 262 437 262 414 c 0
 262 391 244 372 221 371 c 1x78
 244 370 262 352 262 329 c 0
 262 306 244 287 221 286 c 1
 228 286 234 283 240 280 c 1
 246 284 254 286 262 286 c 0
 270 286 277 284 283 280 c 1
 289 284 297 286 305 286 c 0
 329 286 348 267 348 243 c 0xb8
217 286 m 1
 210 286 203 288 197 291 c 1
 191 288 185 286 178 286 c 1
 185 286 191 283 197 280 c 1
 203 283 210 286 217 286 c 1
217 371 m 1x78
 210 371 203 374 197 377 c 1
 191 374 185 371 178 371 c 1
 185 371 191 369 197 366 c 1
 203 369 210 371 217 371 c 1x78
217 457 m 1
 210 457 203 460 197 463 c 1
 191 460 185 457 178 457 c 1
 185 457 191 454 197 451 c 1
 203 454 210 457 217 457 c 1
217 543 m 1
 210 543 203 546 197 549 c 1
 191 546 185 543 178 543 c 1
 185 543 191 540 197 537 c 1
 203 540 210 543 217 543 c 1
217 629 m 1
 210 629 203 631 197 634 c 1
 191 631 185 629 178 629 c 1
 185 629 191 626 197 623 c 1
 203 626 210 629 217 629 c 1
217 714 m 1
 210 714 203 717 197 720 c 1
 191 717 185 714 178 714 c 1
 185 714 191 712 197 709 c 1
 203 712 210 714 217 714 c 1
EndSplineSet
EndChar

StartChar: zero
Encoding: 48 48 21
Width: 522
VWidth: 0
UnlinkRmOvrlpSave: 1
Flags: W
HStem: 200 86<138.642 196.718 197.283 239.718 240.283 282.718 283.283 342.358> 286 85<52.6424 88 92 111.717 112.282 131 135 170.358 310.58 345 350 368.717 369.282 388 392 427.358> 457 86<52.8528 88 92 111.718 112.281 131 135 170.147 310.58 345 350 368.719 369.281 388 392 427.147> 629 85<52.6424 88 92 111.717 112.282 131 135 170.358 310.58 345 350 368.717 369.282 388 392 427.358> 714 86<138.642 196.718 197.283 239.718 240.283 282.718 283.283 342.358>
VStem: 47 129<291.642 365.448 377.304 450.696 463.304 536.696 549.304 622.696 634.552 708.358> 133 215<206.167 279.833 720.167 793.833> 305 128<291.642 365.448 377.304 450.696 463.304 536.696 549.304 622.696 634.552 708.358>
LayerCount: 2
Back
Fore
SplineSet
348 243 m 0xa2
 348 219 329 200 305 200 c 0
 297 200 289 202 283 206 c 1
 277 202 270 200 262 200 c 0
 254 200 246 202 240 206 c 1
 234 202 227 200 219 200 c 0
 211 200 203 202 197 206 c 1
 191 202 184 200 176 200 c 0xa5
 152 200 133 219 133 243 c 0xa2
 133 267 152 286 176 286 c 0
 184 286 191 284 197 280 c 1
 203 284 211 286 219 286 c 0
 227 286 234 284 240 280 c 1
 246 284 254 286 262 286 c 0
 270 286 277 284 283 280 c 1
 289 284 297 286 305 286 c 0xa5
 329 286 348 267 348 243 c 0xa2
433 329 m 0
 433 305 414 286 390 286 c 0
 382 286 375 287 369 291 c 1
 363 287 355 286 347 286 c 0
 323 286 305 305 305 329 c 0
 305 352 322 370 345 371 c 1
 322 372 305 391 305 414 c 0
 305 437 322 456 345 457 c 1
 322 458 305 477 305 500 c 0
 305 523 322 542 345 543 c 1
 322 544 305 563 305 586 c 0
 305 609 322 628 345 629 c 1x71
 322 630 305 648 305 671 c 1
 305 695 323 714 347 714 c 0
 355 714 363 713 369 709 c 1
 375 713 382 714 390 714 c 0x29
 414 714 433 695 433 671 c 0
 433 648 415 630 392 629 c 1
 415 628 433 609 433 586 c 1
 433 563 415 544 392 543 c 1
 415 542 433 523 433 500 c 0
 433 477 415 458 392 457 c 1
 415 456 433 437 433 414 c 0
 433 391 415 372 392 371 c 1x71
 415 370 433 352 433 329 c 0
176 329 m 0x74
 176 305 157 286 133 286 c 0x72
 125 286 118 287 112 291 c 1
 106 287 98 286 90 286 c 0
 66 286 47 305 47 329 c 0
 47 352 65 370 88 371 c 1
 65 372 47 391 47 414 c 0
 47 437 65 456 88 457 c 1
 65 458 47 477 47 500 c 1
 47 523 65 542 88 543 c 1
 65 544 47 563 47 586 c 0
 47 609 65 628 88 629 c 1
 65 630 47 648 47 671 c 0x74
 47 695 66 714 90 714 c 0
 98 714 106 713 112 709 c 1
 118 713 125 714 133 714 c 0x2a
 157 714 176 695 176 671 c 0
 176 648 158 630 135 629 c 1
 158 628 176 609 176 586 c 1
 176 563 158 544 135 543 c 1
 158 542 176 523 176 500 c 1
 176 477 158 458 135 457 c 1
 158 456 176 437 176 414 c 1
 176 391 158 372 135 371 c 1
 158 370 176 352 176 329 c 0x74
348 757 m 0
 348 733 329 714 305 714 c 0
 297 714 289 716 283 720 c 1
 277 716 270 714 262 714 c 0
 254 714 246 716 240 720 c 1
 234 716 227 714 219 714 c 0
 211 714 203 716 197 720 c 1
 191 716 184 714 176 714 c 0x2d
 152 714 133 733 133 757 c 0x2a
 133 781 152 800 176 800 c 0
 184 800 191 798 197 794 c 1
 203 798 211 800 219 800 c 0
 227 800 234 798 240 794 c 1
 246 798 254 800 262 800 c 0
 270 800 277 798 283 794 c 1
 289 798 297 800 305 800 c 0x2d
 329 800 348 781 348 757 c 0
388 371 m 1x60
 381 371 375 374 369 377 c 1
 363 374 357 371 350 371 c 1
 357 371 363 369 369 366 c 1
 375 369 381 371 388 371 c 1x60
131 371 m 1
 124 371 118 374 112 377 c 1
 106 374 99 371 92 371 c 1
 99 371 106 369 112 366 c 1
 118 369 124 371 131 371 c 1
388 457 m 1
 381 457 375 460 369 463 c 1
 363 460 357 457 350 457 c 1
 357 457 363 454 369 451 c 1
 375 454 381 457 388 457 c 1
131 457 m 1
 124 457 118 460 112 463 c 1
 106 460 99 457 92 457 c 1
 99 457 106 454 112 451 c 1
 118 454 124 457 131 457 c 1
388 543 m 1
 381 543 375 546 369 549 c 1
 363 546 357 543 350 543 c 1
 357 543 363 540 369 537 c 1
 375 540 381 543 388 543 c 1
131 543 m 1
 124 543 118 546 112 549 c 1
 106 546 99 543 92 543 c 1
 99 543 106 540 112 537 c 1
 118 540 124 543 131 543 c 1
388 629 m 1x30
 381 629 375 631 369 634 c 1
 363 631 357 629 350 629 c 1
 357 629 363 626 369 623 c 1
 375 626 381 629 388 629 c 1x30
131 629 m 1
 124 629 118 631 112 634 c 1
 106 631 99 629 92 629 c 1
 99 629 106 626 112 623 c 1
 118 626 124 629 131 629 c 1
EndSplineSet
EndChar

StartChar: three
Encoding: 51 51 22
Width: 522
VWidth: 0
UnlinkRmOvrlpSave: 1
Flags: W
HStem: 200 86<137.642 196.717 197.282 239.717 240.282 281.718 282.283 324.718 325.283 367.718 368.283 427.358> 286 85<52.6424 110.718 111.282 169.358 395.58 430 435 453.717 454.282 473 477 512.358> 371 86<395.58 430 435 453.717 454.282 473 477 512.147> 457 86<223.642 281.718 282.283 324.718 325.283 367.718 368.283 427.358> 629 85<52.6424 110.718 111.282 169.358 395.58 430 435 453.717 454.282 473 477 512.358> 714 86<137.642 196.717 197.282 239.717 240.282 281.718 282.283 324.718 325.283 367.718 368.283 427.358>
VStem: 47 128<291.642 365.61 634.39 708.358> 390 128<291.642 365.448 377.304 450.833 549.167 622.696 634.552 708.358>
LayerCount: 2
Back
Fore
SplineSet
433 243 m 0x83
 433 219 414 200 390 200 c 0
 382 200 374 202 368 206 c 1
 362 202 355 200 347 200 c 0
 339 200 331 202 325 206 c 1
 319 202 312 200 304 200 c 0
 296 200 288 202 282 206 c 1
 276 202 269 200 261 200 c 0
 253 200 246 202 240 206 c 1
 234 202 226 200 218 200 c 0
 210 200 203 202 197 206 c 1
 191 202 183 200 175 200 c 0
 151 200 132 219 132 243 c 0
 132 267 151 286 175 286 c 0
 183 286 191 284 197 280 c 1
 203 284 210 286 218 286 c 0
 226 286 234 284 240 280 c 1
 246 284 253 286 261 286 c 0
 269 286 276 284 282 280 c 1
 288 284 296 286 304 286 c 0
 312 286 319 284 325 280 c 1
 331 284 339 286 347 286 c 0
 355 286 362 284 368 280 c 1
 374 284 382 286 390 286 c 0
 414 286 433 267 433 243 c 0x83
518 329 m 0
 518 305 499 286 475 286 c 0
 467 286 460 287 454 291 c 1
 448 287 440 286 432 286 c 0
 408 286 390 305 390 329 c 0
 390 352 407 370 430 371 c 1
 407 372 390 391 390 414 c 0
 390 438 408 457 432 457 c 0
 440 457 448 455 454 451 c 1
 460 455 467 457 475 457 c 0
 499 457 518 438 518 414 c 0
 518 391 500 372 477 371 c 1x53
 500 370 518 352 518 329 c 0
175 329 m 0
 175 305 156 286 132 286 c 0
 124 286 117 287 111 291 c 1
 105 287 98 286 90 286 c 0
 66 286 47 305 47 329 c 0
 47 353 66 371 90 371 c 0
 98 371 105 370 111 366 c 1
 117 370 124 371 132 371 c 0
 156 371 175 353 175 329 c 0
433 500 m 0
 433 476 414 457 390 457 c 0
 382 457 374 459 368 463 c 1
 362 459 355 457 347 457 c 0
 339 457 331 459 325 463 c 1
 319 459 312 457 304 457 c 0
 296 457 288 459 282 463 c 1
 276 459 269 457 261 457 c 0
 237 457 218 476 218 500 c 0
 218 524 237 543 261 543 c 0
 269 543 276 541 282 537 c 1
 288 541 296 543 304 543 c 0
 312 543 319 541 325 537 c 1
 331 541 339 543 347 543 c 0
 355 543 362 541 368 537 c 1
 374 541 382 543 390 543 c 0
 414 543 433 524 433 500 c 0
518 586 m 1
 518 562 499 543 475 543 c 0
 467 543 460 545 454 549 c 1
 448 545 440 543 432 543 c 0
 408 543 390 562 390 586 c 0
 390 609 407 628 430 629 c 1x1b
 407 630 390 648 390 671 c 1
 390 695 408 714 432 714 c 0
 440 714 448 713 454 709 c 1
 460 713 467 714 475 714 c 0x07
 499 714 518 695 518 671 c 0
 518 648 500 630 477 629 c 1x0b
 500 628 518 609 518 586 c 1
175 671 m 0
 175 647 156 629 132 629 c 0
 124 629 117 630 111 634 c 1
 105 630 98 629 90 629 c 0
 66 629 47 647 47 671 c 0
 47 695 66 714 90 714 c 0
 98 714 105 713 111 709 c 1
 117 713 124 714 132 714 c 0
 156 714 175 695 175 671 c 0
433 757 m 0
 433 733 414 714 390 714 c 0
 382 714 374 716 368 720 c 1
 362 716 355 714 347 714 c 0
 339 714 331 716 325 720 c 1
 319 716 312 714 304 714 c 0
 296 714 288 716 282 720 c 1
 276 716 269 714 261 714 c 0
 253 714 246 716 240 720 c 1
 234 716 226 714 218 714 c 0
 210 714 203 716 197 720 c 1
 191 716 183 714 175 714 c 0
 151 714 132 733 132 757 c 0
 132 781 151 800 175 800 c 0
 183 800 191 798 197 794 c 1
 203 798 210 800 218 800 c 0
 226 800 234 798 240 794 c 1
 246 798 253 800 261 800 c 0
 269 800 276 798 282 794 c 1
 288 798 296 800 304 800 c 0
 312 800 319 798 325 794 c 1
 331 798 339 800 347 800 c 0
 355 800 362 798 368 794 c 1
 374 798 382 800 390 800 c 0x07
 414 800 433 781 433 757 c 0
473 371 m 1x43
 466 371 460 374 454 377 c 1
 448 374 442 371 435 371 c 1
 442 371 448 369 454 366 c 1
 460 369 466 371 473 371 c 1x43
473 629 m 1x0b
 466 629 460 631 454 634 c 1
 448 631 442 629 435 629 c 1
 442 629 448 626 454 623 c 1
 460 626 466 629 473 629 c 1x0b
EndSplineSet
EndChar

StartChar: two
Encoding: 50 50 23
Width: 522
VWidth: 0
UnlinkRmOvrlpSave: 1
Flags: W
HStem: 200 86<52.6424 87 92 110.718 111.282 130 135 153.717 154.282 196.717 197.282 239.717 240.282 281.718 282.283 324.718 325.283 367.718 368.283 410.718 411.282 453.717 454.282 512.358> 286 85<52.5796 87 92 110.719 111.281 130 135 169.42> 457 86<137.642 196.717 197.282 239.717 240.282 281.718 282.283 324.718 325.283 367.718 368.283 427.358> 629 85<52.6424 110.718 111.282 169.358 395.58 430 435 453.717 454.282 473 477 512.358> 714 86<137.642 196.717 197.282 239.717 240.282 281.718 282.283 324.718 325.283 367.718 368.283 427.358>
VStem: 47 128<291.284 365.928 377.304 450.833 634.39 708.358> 390 128<549.167 622.696 634.552 708.358>
LayerCount: 2
Back
Fore
SplineSet
518 243 m 0xa6
 518 219 499 200 475 200 c 0
 467 200 460 202 454 206 c 1
 448 202 440 200 432 200 c 0
 424 200 417 202 411 206 c 1
 405 202 398 200 390 200 c 0
 382 200 374 202 368 206 c 1
 362 202 355 200 347 200 c 0
 339 200 331 202 325 206 c 1
 319 202 312 200 304 200 c 0
 296 200 288 202 282 206 c 1
 276 202 269 200 261 200 c 0
 253 200 246 202 240 206 c 1
 234 202 226 200 218 200 c 0
 210 200 203 202 197 206 c 1
 191 202 183 200 175 200 c 0
 167 200 160 202 154 206 c 1
 148 202 140 200 132 200 c 0
 124 200 117 202 111 206 c 1
 105 202 98 200 90 200 c 0
 66 200 47 219 47 243 c 0
 47 266 64 285 87 286 c 1xa6
 64 287 47 306 47 329 c 0
 47 352 64 370 87 371 c 1
 64 372 47 391 47 414 c 0
 47 438 66 457 90 457 c 0
 98 457 105 455 111 451 c 1
 117 455 124 457 132 457 c 0
 156 457 175 438 175 414 c 0
 175 391 158 372 135 371 c 1x66
 158 370 175 352 175 329 c 0
 175 306 158 287 135 286 c 1
 142 286 148 283 154 280 c 1
 160 284 167 286 175 286 c 0
 183 286 191 284 197 280 c 1
 203 284 210 286 218 286 c 0
 226 286 234 284 240 280 c 1
 246 284 253 286 261 286 c 0
 269 286 276 284 282 280 c 1
 288 284 296 286 304 286 c 0
 312 286 319 284 325 280 c 1
 331 284 339 286 347 286 c 0
 355 286 362 284 368 280 c 1
 374 284 382 286 390 286 c 0
 398 286 405 284 411 280 c 1
 417 284 424 286 432 286 c 0
 440 286 448 284 454 280 c 1
 460 284 467 286 475 286 c 0
 499 286 518 267 518 243 c 0xa6
433 500 m 0
 433 476 414 457 390 457 c 0
 382 457 374 459 368 463 c 1
 362 459 355 457 347 457 c 0
 339 457 331 459 325 463 c 1
 319 459 312 457 304 457 c 0
 296 457 288 459 282 463 c 1
 276 459 269 457 261 457 c 0
 253 457 246 459 240 463 c 1
 234 459 226 457 218 457 c 0
 210 457 203 459 197 463 c 1
 191 459 183 457 175 457 c 0
 151 457 132 476 132 500 c 0
 132 524 151 543 175 543 c 0
 183 543 191 541 197 537 c 1
 203 541 210 543 218 543 c 0
 226 543 234 541 240 537 c 1
 246 541 253 543 261 543 c 0
 269 543 276 541 282 537 c 1
 288 541 296 543 304 543 c 0
 312 543 319 541 325 537 c 1
 331 541 339 543 347 543 c 0
 355 543 362 541 368 537 c 1
 374 541 382 543 390 543 c 0
 414 543 433 524 433 500 c 0
518 586 m 1
 518 562 499 543 475 543 c 0
 467 543 460 545 454 549 c 1
 448 545 440 543 432 543 c 0
 408 543 390 562 390 586 c 0
 390 609 407 628 430 629 c 1x36
 407 630 390 648 390 671 c 1
 390 695 408 714 432 714 c 0
 440 714 448 713 454 709 c 1
 460 713 467 714 475 714 c 0x2e
 499 714 518 695 518 671 c 0
 518 648 500 630 477 629 c 1x36
 500 628 518 609 518 586 c 1
175 671 m 0
 175 647 156 629 132 629 c 0
 124 629 117 630 111 634 c 1
 105 630 98 629 90 629 c 0
 66 629 47 647 47 671 c 0
 47 695 66 714 90 714 c 0
 98 714 105 713 111 709 c 1
 117 713 124 714 132 714 c 0
 156 714 175 695 175 671 c 0
433 757 m 0
 433 733 414 714 390 714 c 0
 382 714 374 716 368 720 c 1
 362 716 355 714 347 714 c 0
 339 714 331 716 325 720 c 1
 319 716 312 714 304 714 c 0
 296 714 288 716 282 720 c 1
 276 716 269 714 261 714 c 0
 253 714 246 716 240 720 c 1
 234 716 226 714 218 714 c 0
 210 714 203 716 197 720 c 1
 191 716 183 714 175 714 c 0
 151 714 132 733 132 757 c 0
 132 781 151 800 175 800 c 0
 183 800 191 798 197 794 c 1
 203 798 210 800 218 800 c 0
 226 800 234 798 240 794 c 1
 246 798 253 800 261 800 c 0
 269 800 276 798 282 794 c 1
 288 798 296 800 304 800 c 0
 312 800 319 798 325 794 c 1
 331 798 339 800 347 800 c 0
 355 800 362 798 368 794 c 1
 374 798 382 800 390 800 c 0x2e
 414 800 433 781 433 757 c 0
130 286 m 1xa6
 123 286 117 288 111 291 c 1
 105 288 99 286 92 286 c 1
 99 286 105 283 111 280 c 1
 117 283 123 286 130 286 c 1xa6
130 371 m 1x66
 123 371 117 374 111 377 c 1
 105 374 99 371 92 371 c 1
 99 371 105 369 111 366 c 1
 117 369 123 371 130 371 c 1x66
473 629 m 1x36
 466 629 460 631 454 634 c 1
 448 631 442 629 435 629 c 1
 442 629 448 626 454 623 c 1
 460 626 466 629 473 629 c 1x36
EndSplineSet
EndChar

StartChar: five
Encoding: 53 53 24
Width: 522
VWidth: 0
UnlinkRmOvrlpSave: 1
Flags: W
HStem: 200 86<137.642 196.717 197.282 239.717 240.282 281.718 282.283 324.718 325.283 367.718 368.283 427.358> 286 85<52.6424 110.718 111.282 169.358 395.58 430 435 453.717 454.282 473 477 512.358> 371 86<395.58 430 435 453.719 454.281 473 477 512.147> 457 86<395.58 430 435 453.717 454.282 473 477 512.147> 543 86<52.6424 87 92 110.718 111.282 130 135 153.717 154.282 196.717 197.282 239.717 240.282 281.718 282.283 324.718 325.283 367.718 368.283 427.358> 629 85<52.5796 87 92 110.719 111.281 130 135 169.42> 714 86<52.6424 87 92 110.718 111.282 130 135 153.717 154.282 196.717 197.282 239.717 240.282 281.718 282.283 324.718 325.283 367.718 368.283 410.718 411.282 453.717 454.282 512.358>
VStem: 47 128<291.642 365.61 634.072 708.716> 390 128<291.642 365.448 377.304 450.696 463.304 536.833>
LayerCount: 2
Back
Fore
SplineSet
433 243 m 0x8180
 433 219 414 200 390 200 c 0
 382 200 374 202 368 206 c 1
 362 202 355 200 347 200 c 0
 339 200 331 202 325 206 c 1
 319 202 312 200 304 200 c 0
 296 200 288 202 282 206 c 1
 276 202 269 200 261 200 c 0
 253 200 246 202 240 206 c 1
 234 202 226 200 218 200 c 0
 210 200 203 202 197 206 c 1
 191 202 183 200 175 200 c 0
 151 200 132 219 132 243 c 0
 132 267 151 286 175 286 c 0
 183 286 191 284 197 280 c 1
 203 284 210 286 218 286 c 0
 226 286 234 284 240 280 c 1
 246 284 253 286 261 286 c 0
 269 286 276 284 282 280 c 1
 288 284 296 286 304 286 c 0
 312 286 319 284 325 280 c 1
 331 284 339 286 347 286 c 0
 355 286 362 284 368 280 c 1
 374 284 382 286 390 286 c 0
 414 286 433 267 433 243 c 0x8180
518 329 m 0
 518 305 499 286 475 286 c 0
 467 286 460 287 454 291 c 1
 448 287 440 286 432 286 c 0
 408 286 390 305 390 329 c 0
 390 352 407 370 430 371 c 1x4180
 407 372 390 391 390 414 c 0
 390 437 407 456 430 457 c 1
 407 458 390 477 390 500 c 0
 390 524 408 543 432 543 c 0
 440 543 448 541 454 537 c 1
 460 541 467 543 475 543 c 0
 499 543 518 524 518 500 c 0
 518 477 500 458 477 457 c 1x2980
 500 456 518 437 518 414 c 0
 518 391 500 372 477 371 c 1x4180
 500 370 518 352 518 329 c 0
175 329 m 0
 175 305 156 286 132 286 c 0
 124 286 117 287 111 291 c 1
 105 287 98 286 90 286 c 0
 66 286 47 305 47 329 c 0
 47 353 66 371 90 371 c 0
 98 371 105 370 111 366 c 1
 117 370 124 371 132 371 c 0
 156 371 175 353 175 329 c 0
433 586 m 0
 433 562 414 543 390 543 c 0
 382 543 374 545 368 549 c 1
 362 545 355 543 347 543 c 0
 339 543 331 545 325 549 c 1
 319 545 312 543 304 543 c 0
 296 543 288 545 282 549 c 1
 276 545 269 543 261 543 c 0
 253 543 246 545 240 549 c 1
 234 545 226 543 218 543 c 0
 210 543 203 545 197 549 c 1
 191 545 183 543 175 543 c 0
 167 543 160 545 154 549 c 1
 148 545 140 543 132 543 c 0
 124 543 117 545 111 549 c 1
 105 545 98 543 90 543 c 0
 66 543 47 562 47 586 c 0
 47 609 64 628 87 629 c 1x0980
 64 630 47 648 47 671 c 0
 47 694 64 713 87 714 c 1x0580
 64 715 47 734 47 757 c 0
 47 781 66 800 90 800 c 0
 98 800 105 798 111 794 c 1
 117 798 124 800 132 800 c 0
 140 800 148 798 154 794 c 1
 160 798 167 800 175 800 c 0
 183 800 191 798 197 794 c 1
 203 798 210 800 218 800 c 0
 226 800 234 798 240 794 c 1
 246 798 253 800 261 800 c 0
 269 800 276 798 282 794 c 1
 288 798 296 800 304 800 c 0
 312 800 319 798 325 794 c 1
 331 798 339 800 347 800 c 0
 355 800 362 798 368 794 c 1
 374 798 382 800 390 800 c 0
 398 800 405 798 411 794 c 1
 417 798 424 800 432 800 c 0
 440 800 448 798 454 794 c 1
 460 798 467 800 475 800 c 0
 499 800 518 781 518 757 c 0
 518 733 499 714 475 714 c 0
 467 714 460 716 454 720 c 1
 448 716 440 714 432 714 c 0
 424 714 417 716 411 720 c 1
 405 716 398 714 390 714 c 0
 382 714 374 716 368 720 c 1
 362 716 355 714 347 714 c 0
 339 714 331 716 325 720 c 1
 319 716 312 714 304 714 c 0
 296 714 288 716 282 720 c 1
 276 716 269 714 261 714 c 0
 253 714 246 716 240 720 c 1
 234 716 226 714 218 714 c 0
 210 714 203 716 197 720 c 1
 191 716 183 714 175 714 c 0x0380
 167 714 160 716 154 720 c 1
 148 717 142 714 135 714 c 1x0580
 158 713 175 694 175 671 c 1
 175 648 158 630 135 629 c 1
 142 629 148 626 154 623 c 1
 160 627 167 629 175 629 c 0
 183 629 191 627 197 623 c 1
 203 627 210 629 218 629 c 0
 226 629 234 627 240 623 c 1
 246 627 253 629 261 629 c 0
 269 629 276 627 282 623 c 1
 288 627 296 629 304 629 c 0
 312 629 319 627 325 623 c 1
 331 627 339 629 347 629 c 0
 355 629 362 627 368 623 c 1
 374 627 382 629 390 629 c 0x0980
 414 629 433 610 433 586 c 0
473 371 m 1x4180
 466 371 460 374 454 377 c 1
 448 374 442 371 435 371 c 1
 442 371 448 369 454 366 c 1
 460 369 466 371 473 371 c 1x4180
473 457 m 1x2180
 466 457 460 460 454 463 c 1
 448 460 442 457 435 457 c 1
 442 457 448 454 454 451 c 1
 460 454 466 457 473 457 c 1x2180
130 629 m 1x0980
 123 629 117 631 111 634 c 1
 105 631 99 629 92 629 c 1
 99 629 105 626 111 623 c 1
 117 626 123 629 130 629 c 1x0980
130 714 m 1x0580
 123 714 117 717 111 720 c 1
 105 717 99 714 92 714 c 1
 99 714 105 712 111 709 c 1
 117 712 123 714 130 714 c 1x0580
EndSplineSet
EndChar

StartChar: four
Encoding: 52 52 25
Width: 522
VWidth: 0
UnlinkRmOvrlpSave: 1
Flags: W
HStem: 286 85<309.853 345 349 367.719 368.282 388 392 427.147> 371 86<52.6424 87 92 110.718 111.282 130 135 153.717 154.282 196.717 197.282 239.717 240.282 281.718 282.283 324.718 325.282 345 349 367.719 368.282 388 392 410.719 411.282 453.717 454.282 512.358> 457 86<52.6424 87 92 110.718 111.282 130 135 169.358 309.853 345 349 367.719 368.282 388 392 427.147> 543 86<137.642 196.717 197.282 255.358 309.853 345 349 367.719 368.282 388 392 427.147> 629 85<223.642 281.718 282.283 324.718 325.282 345 349 367.719 368.282 388 392 427.147>
VStem: 47 128<463.304 536.833> 132 129<549.167 622.833> 304 129<206.167 279.696 291.784 365.448 463.304 536.696 549.304 622.696 720.304 793.833>
LayerCount: 2
Back
Fore
SplineSet
433 243 m 0x83
 433 219 414 200 390 200 c 0
 382 200 374 202 368 206 c 1
 362 202 355 200 347 200 c 0
 323 200 304 219 304 243 c 0
 304 266 322 285 345 286 c 1
 322 287 304 306 304 329 c 0
 304 352 322 370 345 371 c 1x83
 338 371 331 374 325 377 c 1
 319 373 312 371 304 371 c 0
 296 371 288 373 282 377 c 1
 276 373 269 371 261 371 c 0x43
 253 371 246 373 240 377 c 1
 234 373 226 371 218 371 c 0
 210 371 203 373 197 377 c 1
 191 373 183 371 175 371 c 0x45
 167 371 160 373 154 377 c 1
 148 373 140 371 132 371 c 0x43
 124 371 117 373 111 377 c 1
 105 373 98 371 90 371 c 0
 66 371 47 390 47 414 c 0
 47 437 64 456 87 457 c 1
 64 458 47 477 47 500 c 1x45
 47 524 66 543 90 543 c 0
 98 543 105 541 111 537 c 1
 117 541 124 543 132 543 c 0x53
 156 543 175 524 175 500 c 0
 175 477 158 458 135 457 c 1
 142 457 148 454 154 451 c 1
 160 455 167 457 175 457 c 0x55
 183 457 191 455 197 451 c 1
 203 455 210 457 218 457 c 0
 226 457 234 455 240 451 c 1
 246 455 253 457 261 457 c 0
 269 457 276 455 282 451 c 1
 288 455 296 457 304 457 c 0
 312 457 319 455 325 451 c 1
 331 454 338 457 345 457 c 1x53
 322 458 304 477 304 500 c 0
 304 523 322 542 345 543 c 1x23
 322 544 304 563 304 586 c 0
 304 609 322 628 345 629 c 1x13
 338 629 331 631 325 634 c 1
 319 630 312 629 304 629 c 0
 296 629 288 630 282 634 c 1
 276 630 269 629 261 629 c 0
 237 629 218 647 218 671 c 0
 218 695 237 714 261 714 c 0
 269 714 276 713 282 709 c 1
 288 713 296 714 304 714 c 0
 312 714 319 713 325 709 c 1
 331 712 338 714 345 714 c 1
 322 715 304 734 304 757 c 0
 304 781 323 800 347 800 c 0
 355 800 362 798 368 794 c 1
 374 798 382 800 390 800 c 0
 414 800 433 781 433 757 c 0
 433 734 415 715 392 714 c 1x0b
 415 713 433 694 433 671 c 1
 433 648 415 630 392 629 c 1x13
 415 628 433 609 433 586 c 1
 433 563 415 544 392 543 c 1x23
 415 542 433 523 433 500 c 0
 433 477 415 458 392 457 c 1
 399 457 405 454 411 451 c 1
 417 455 424 457 432 457 c 0
 440 457 448 455 454 451 c 1
 460 455 467 457 475 457 c 0
 499 457 518 438 518 414 c 0
 518 390 499 371 475 371 c 0
 467 371 460 373 454 377 c 1
 448 373 440 371 432 371 c 0x43
 424 371 417 373 411 377 c 1
 405 374 399 371 392 371 c 1
 415 370 433 352 433 329 c 0
 433 306 415 287 392 286 c 1
 415 285 433 266 433 243 c 0x83
261 586 m 0
 261 562 242 543 218 543 c 0
 210 543 203 545 197 549 c 1
 191 545 183 543 175 543 c 0x15
 151 543 132 562 132 586 c 0x13
 132 610 151 629 175 629 c 0
 183 629 191 627 197 623 c 1
 203 627 210 629 218 629 c 0x15
 242 629 261 610 261 586 c 0
388 286 m 1x81
 381 286 374 288 368 291 c 1
 362 288 356 286 349 286 c 1
 356 286 362 283 368 280 c 1
 374 283 381 286 388 286 c 1x81
388 371 m 1
 381 371 374 374 368 377 c 1
 362 374 356 371 349 371 c 1
 356 371 362 369 368 366 c 1
 374 369 381 371 388 371 c 1
388 457 m 1x41
 381 457 374 460 368 463 c 1
 362 460 356 457 349 457 c 1
 356 457 362 454 368 451 c 1
 374 454 381 457 388 457 c 1x41
130 457 m 1
 123 457 117 460 111 463 c 1
 105 460 99 457 92 457 c 1
 99 457 105 454 111 451 c 1
 117 454 123 457 130 457 c 1
388 543 m 1x21
 381 543 374 546 368 549 c 1
 362 546 356 543 349 543 c 1
 356 543 362 540 368 537 c 1
 374 540 381 543 388 543 c 1x21
388 629 m 1x11
 381 629 374 631 368 634 c 1
 362 631 356 629 349 629 c 1
 356 629 362 626 368 623 c 1
 374 626 381 629 388 629 c 1x11
388 714 m 1x09
 381 714 374 717 368 720 c 1
 362 717 356 714 349 714 c 1
 356 714 362 712 368 709 c 1
 374 712 381 714 388 714 c 1x09
EndSplineSet
EndChar

StartChar: seven
Encoding: 55 55 26
Width: 522
VWidth: 0
UnlinkRmOvrlpSave: 1
Flags: W
HStem: 286 85<137.853 173 177 196.718 197.281 216 220 255.147> 457 86<223.642 281.718 282.283 341.358> 543 86<309.642 367.718 368.283 427.358> 629 85<395.39 430 435 453.717 454.282 473 477 512.147> 714 86<52.6424 110.718 111.282 153.717 154.282 196.717 197.282 239.717 240.282 281.718 282.283 324.718 325.283 367.718 368.283 410.718 411.282 430 435 453.717 454.282 473 477 512.147>
VStem: 132 129<206.167 279.696 291.784 365.448 377.304 450.833> 218 129<463.167 536.833> 304 129<549.167 622.833> 390 128<634.39 708.216>
LayerCount: 2
Back
Fore
SplineSet
261 243 m 0xc4
 261 219 242 200 218 200 c 0xc2
 210 200 203 202 197 206 c 1
 191 202 183 200 175 200 c 0
 151 200 132 219 132 243 c 0
 132 266 150 285 173 286 c 1
 150 287 132 306 132 329 c 0
 132 352 150 370 173 371 c 1
 150 372 132 391 132 414 c 0xc4
 132 438 151 457 175 457 c 0
 183 457 191 455 197 451 c 1
 203 455 210 457 218 457 c 0xc2
 242 457 261 438 261 414 c 0
 261 391 243 372 220 371 c 1
 243 370 261 352 261 329 c 0
 261 306 243 287 220 286 c 1
 243 285 261 266 261 243 c 0xc4
347 500 m 0
 347 476 328 457 304 457 c 0
 296 457 288 459 282 463 c 1
 276 459 269 457 261 457 c 0xc5
 237 457 218 476 218 500 c 0xc2
 218 524 237 543 261 543 c 0
 269 543 276 541 282 537 c 1
 288 541 296 543 304 543 c 0xc5
 328 543 347 524 347 500 c 0
433 586 m 0
 433 562 414 543 390 543 c 0
 382 543 374 545 368 549 c 1
 362 545 355 543 347 543 c 0xa280
 323 543 304 562 304 586 c 0xa1
 304 610 323 629 347 629 c 0
 355 629 362 627 368 623 c 1
 374 627 382 629 390 629 c 0xa280
 414 629 433 610 433 586 c 0
518 671 m 1
 518 647 499 629 475 629 c 0
 467 629 460 630 454 634 c 1
 448 630 440 629 432 629 c 0
 408 629 390 647 390 671 c 0
 390 694 407 713 430 714 c 1x9280
 423 714 417 717 411 720 c 1
 405 716 398 714 390 714 c 0
 382 714 374 716 368 720 c 1
 362 716 355 714 347 714 c 0x8a80
 339 714 331 716 325 720 c 1
 319 716 312 714 304 714 c 0
 296 714 288 716 282 720 c 1
 276 716 269 714 261 714 c 0x8d
 253 714 246 716 240 720 c 1
 234 716 226 714 218 714 c 0x8a
 210 714 203 716 197 720 c 1
 191 716 183 714 175 714 c 0
 167 714 160 716 154 720 c 1
 148 716 140 714 132 714 c 0
 124 714 117 716 111 720 c 1
 105 716 98 714 90 714 c 0
 66 714 47 733 47 757 c 0
 47 781 66 800 90 800 c 0
 98 800 105 798 111 794 c 1
 117 798 124 800 132 800 c 0x8c
 140 800 148 798 154 794 c 1
 160 798 167 800 175 800 c 0
 183 800 191 798 197 794 c 1
 203 798 210 800 218 800 c 0x8a
 226 800 234 798 240 794 c 1
 246 798 253 800 261 800 c 0
 269 800 276 798 282 794 c 1
 288 798 296 800 304 800 c 0x8d
 312 800 319 798 325 794 c 1
 331 798 339 800 347 800 c 0
 355 800 362 798 368 794 c 1
 374 798 382 800 390 800 c 0
 398 800 405 798 411 794 c 1
 417 798 424 800 432 800 c 0
 440 800 448 798 454 794 c 1
 460 798 467 800 475 800 c 0x8a80
 499 800 518 781 518 757 c 0
 518 734 500 715 477 714 c 1x9280
 500 713 518 694 518 671 c 1
216 286 m 1
 209 286 203 288 197 291 c 1
 191 288 184 286 177 286 c 1
 184 286 191 283 197 280 c 1
 203 283 209 286 216 286 c 1
216 371 m 1
 209 371 203 374 197 377 c 1
 191 374 184 371 177 371 c 1
 184 371 191 369 197 366 c 1
 203 369 209 371 216 371 c 1
473 714 m 1
 466 714 460 717 454 720 c 1
 448 717 442 714 435 714 c 1
 442 714 448 712 454 709 c 1
 460 712 466 714 473 714 c 1
EndSplineSet
EndChar

StartChar: six
Encoding: 54 54 27
Width: 522
VWidth: 0
UnlinkRmOvrlpSave: 1
Flags: W
HStem: 200 86<137.642 196.717 197.282 239.717 240.282 281.718 282.283 324.718 325.283 367.718 368.283 427.358> 286 85<52.6424 87 92 110.718 111.282 130 135 169.358 395.58 430 435 453.717 454.282 473 477 512.358> 457 86<52.5796 87 92 110.719 111.281 130 135 153.719 154.282 196.717 197.282 239.717 240.282 281.718 282.283 324.718 325.283 367.718 368.283 427.358> 543 86<52.6424 87 92 110.718 111.282 130 135 169.358> 629 85<137.642 196.717 197.282 255.358> 714 86<223.642 281.718 282.283 324.718 325.283 367.718 368.283 427.358>
VStem: 47 128<291.642 365.928 377.304 450.696 549.304 622.833> 132 129<634.39 708.358> 218 215<720.167 793.833> 390 128<291.642 365.448 377.304 450.833>
LayerCount: 2
Back
Fore
SplineSet
433 243 m 0x8080
 433 219 414 200 390 200 c 0
 382 200 374 202 368 206 c 1
 362 202 355 200 347 200 c 0
 339 200 331 202 325 206 c 1
 319 202 312 200 304 200 c 0
 296 200 288 202 282 206 c 1
 276 202 269 200 261 200 c 0x8140
 253 200 246 202 240 206 c 1
 234 202 226 200 218 200 c 0
 210 200 203 202 197 206 c 1
 191 202 183 200 175 200 c 0x8280
 151 200 132 219 132 243 c 0x81
 132 267 151 286 175 286 c 0
 183 286 191 284 197 280 c 1
 203 284 210 286 218 286 c 0x8280
 226 286 234 284 240 280 c 1
 246 284 253 286 261 286 c 0
 269 286 276 284 282 280 c 1
 288 284 296 286 304 286 c 0
 312 286 319 284 325 280 c 1
 331 284 339 286 347 286 c 0
 355 286 362 284 368 280 c 1
 374 284 382 286 390 286 c 0x8140
 414 286 433 267 433 243 c 0x8080
518 329 m 0
 518 305 499 286 475 286 c 0
 467 286 460 287 454 291 c 1
 448 287 440 286 432 286 c 0
 408 286 390 305 390 329 c 0
 390 352 407 370 430 371 c 1
 407 372 390 391 390 414 c 0
 390 438 408 457 432 457 c 0
 440 457 448 455 454 451 c 1
 460 455 467 457 475 457 c 0
 499 457 518 438 518 414 c 0
 518 391 500 372 477 371 c 1x6040
 500 370 518 352 518 329 c 0
175 329 m 0x6a80
 175 305 156 286 132 286 c 0x69
 124 286 117 287 111 291 c 1
 105 287 98 286 90 286 c 0
 66 286 47 305 47 329 c 0
 47 352 64 370 87 371 c 1
 64 372 47 391 47 414 c 0
 47 437 64 456 87 457 c 1
 64 458 47 477 47 500 c 1
 47 523 64 542 87 543 c 1
 64 544 47 563 47 586 c 0x6a
 47 610 66 629 90 629 c 0
 98 629 105 627 111 623 c 1
 117 627 124 629 132 629 c 0x69
 156 629 175 610 175 586 c 0
 175 563 158 544 135 543 c 1
 142 543 148 540 154 537 c 1
 160 541 167 543 175 543 c 0
 183 543 191 541 197 537 c 1
 203 541 210 543 218 543 c 0x6a80
 226 543 234 541 240 537 c 1
 246 541 253 543 261 543 c 0
 269 543 276 541 282 537 c 1
 288 541 296 543 304 543 c 0
 312 543 319 541 325 537 c 1
 331 541 339 543 347 543 c 0
 355 543 362 541 368 537 c 1
 374 541 382 543 390 543 c 0x6940
 414 543 433 524 433 500 c 0x6880
 433 476 414 457 390 457 c 0
 382 457 374 459 368 463 c 1
 362 459 355 457 347 457 c 0
 339 457 331 459 325 463 c 1
 319 459 312 457 304 457 c 0
 296 457 288 459 282 463 c 1
 276 459 269 457 261 457 c 0x6940
 253 457 246 459 240 463 c 1
 234 459 226 457 218 457 c 0
 210 457 203 459 197 463 c 1
 191 459 183 457 175 457 c 0
 167 457 160 459 154 463 c 1
 148 460 142 457 135 457 c 1
 158 456 175 437 175 414 c 1
 175 391 158 372 135 371 c 1
 158 370 175 352 175 329 c 0x6a80
261 671 m 0
 261 647 242 629 218 629 c 0
 210 629 203 630 197 634 c 1
 191 630 183 629 175 629 c 0x0a80
 151 629 132 647 132 671 c 0x09
 132 695 151 714 175 714 c 0
 183 714 191 713 197 709 c 1
 203 713 210 714 218 714 c 0x0a80
 242 714 261 695 261 671 c 0
433 757 m 0
 433 733 414 714 390 714 c 0
 382 714 374 716 368 720 c 1
 362 716 355 714 347 714 c 0
 339 714 331 716 325 720 c 1
 319 716 312 714 304 714 c 0
 296 714 288 716 282 720 c 1
 276 716 269 714 261 714 c 0x0540
 237 714 218 733 218 757 c 0x0480
 218 781 237 800 261 800 c 0
 269 800 276 798 282 794 c 1
 288 798 296 800 304 800 c 0
 312 800 319 798 325 794 c 1
 331 798 339 800 347 800 c 0
 355 800 362 798 368 794 c 1
 374 798 382 800 390 800 c 0x0540
 414 800 433 781 433 757 c 0
473 371 m 1x40
 466 371 460 374 454 377 c 1
 448 374 442 371 435 371 c 1
 442 371 448 369 454 366 c 1
 460 369 466 371 473 371 c 1x40
130 371 m 1
 123 371 117 374 111 377 c 1
 105 374 99 371 92 371 c 1
 99 371 105 369 111 366 c 1
 117 369 123 371 130 371 c 1
130 457 m 1x20
 123 457 117 460 111 463 c 1
 105 460 99 457 92 457 c 1
 99 457 105 454 111 451 c 1
 117 454 123 457 130 457 c 1x20
130 543 m 1
 123 543 117 546 111 549 c 1
 105 546 99 543 92 543 c 1
 99 543 105 540 111 537 c 1
 117 540 123 543 130 543 c 1
EndSplineSet
EndChar

StartChar: nine
Encoding: 57 57 28
Width: 522
VWidth: 0
UnlinkRmOvrlpSave: 1
Flags: W
HStem: 200 86<137.642 196.717 197.282 239.717 240.282 281.718 282.283 341.358> 286 85<309.642 367.718 368.283 427.358> 371 86<395.39 430 435 453.717 454.282 473 477 512.147> 457 86<137.642 196.717 197.282 239.717 240.282 281.718 282.283 324.718 325.283 367.718 368.283 410.718 411.281 430 435 453.719 454.281 473 477 512.147> 629 85<52.6424 87 92 110.718 111.282 130 135 169.358 395.58 430 435 453.717 454.282 473 477 512.358> 714 86<137.642 196.717 197.282 239.717 240.282 281.718 282.283 324.718 325.283 367.718 368.283 427.358>
VStem: 47 128<549.167 622.696 634.072 708.358> 132 215<206.167 279.833> 304 129<291.642 365.61> 390 128<377.167 450.696 549.304 622.696 634.552 708.358>
LayerCount: 2
Back
Fore
SplineSet
347 243 m 0x81
 347 219 328 200 304 200 c 0
 296 200 288 202 282 206 c 1
 276 202 269 200 261 200 c 0
 253 200 246 202 240 206 c 1
 234 202 226 200 218 200 c 0
 210 200 203 202 197 206 c 1
 191 202 183 200 175 200 c 0x8280
 151 200 132 219 132 243 c 0x81
 132 267 151 286 175 286 c 0
 183 286 191 284 197 280 c 1
 203 284 210 286 218 286 c 0
 226 286 234 284 240 280 c 1
 246 284 253 286 261 286 c 0
 269 286 276 284 282 280 c 1
 288 284 296 286 304 286 c 0x8280
 328 286 347 267 347 243 c 0x81
433 329 m 0
 433 305 414 286 390 286 c 0
 382 286 374 287 368 291 c 1
 362 287 355 286 347 286 c 0x4140
 323 286 304 305 304 329 c 0x4080
 304 353 323 371 347 371 c 0
 355 371 362 370 368 366 c 1
 374 370 382 371 390 371 c 0x4140
 414 371 433 353 433 329 c 0
518 414 m 0
 518 390 499 371 475 371 c 0
 467 371 460 373 454 377 c 1
 448 373 440 371 432 371 c 0
 408 371 390 390 390 414 c 0
 390 437 407 456 430 457 c 1x2140
 423 457 417 460 411 463 c 1
 405 459 398 457 390 457 c 0
 382 457 374 459 368 463 c 1
 362 459 355 457 347 457 c 0x1140
 339 457 331 459 325 463 c 1
 319 459 312 457 304 457 c 0
 296 457 288 459 282 463 c 1
 276 459 269 457 261 457 c 0
 253 457 246 459 240 463 c 1
 234 459 226 457 218 457 c 0
 210 457 203 459 197 463 c 1
 191 459 183 457 175 457 c 0x1280
 151 457 132 476 132 500 c 0x11
 132 524 151 543 175 543 c 0
 183 543 191 541 197 537 c 1
 203 541 210 543 218 543 c 0
 226 543 234 541 240 537 c 1
 246 541 253 543 261 543 c 0
 269 543 276 541 282 537 c 1
 288 541 296 543 304 543 c 0x1280
 312 543 319 541 325 537 c 1
 331 541 339 543 347 543 c 0
 355 543 362 541 368 537 c 1
 374 541 382 543 390 543 c 0
 398 543 405 541 411 537 c 1
 417 540 423 543 430 543 c 1
 407 544 390 563 390 586 c 0
 390 609 407 628 430 629 c 1x1940
 407 630 390 648 390 671 c 1
 390 695 408 714 432 714 c 0
 440 714 448 713 454 709 c 1
 460 713 467 714 475 714 c 0x0540
 499 714 518 695 518 671 c 0
 518 648 500 630 477 629 c 1
 500 628 518 609 518 586 c 1
 518 563 500 544 477 543 c 1x1940
 500 542 518 523 518 500 c 0
 518 477 500 458 477 457 c 1x2140
 500 456 518 437 518 414 c 0
175 586 m 1x0a
 175 562 156 543 132 543 c 0x19
 124 543 117 545 111 549 c 1
 105 545 98 543 90 543 c 0
 66 543 47 562 47 586 c 0
 47 609 64 628 87 629 c 1
 64 630 47 648 47 671 c 0x1a
 47 695 66 714 90 714 c 0
 98 714 105 713 111 709 c 1
 117 713 124 714 132 714 c 0x05
 156 714 175 695 175 671 c 0
 175 648 158 630 135 629 c 1
 158 628 175 609 175 586 c 1x0a
433 757 m 0x0480
 433 733 414 714 390 714 c 0
 382 714 374 716 368 720 c 1
 362 716 355 714 347 714 c 0x0540
 339 714 331 716 325 720 c 1
 319 716 312 714 304 714 c 0
 296 714 288 716 282 720 c 1
 276 716 269 714 261 714 c 0
 253 714 246 716 240 720 c 1
 234 716 226 714 218 714 c 0
 210 714 203 716 197 720 c 1
 191 716 183 714 175 714 c 0x0680
 151 714 132 733 132 757 c 0x05
 132 781 151 800 175 800 c 0
 183 800 191 798 197 794 c 1
 203 798 210 800 218 800 c 0
 226 800 234 798 240 794 c 1
 246 798 253 800 261 800 c 0
 269 800 276 798 282 794 c 1
 288 798 296 800 304 800 c 0x0680
 312 800 319 798 325 794 c 1
 331 798 339 800 347 800 c 0
 355 800 362 798 368 794 c 1
 374 798 382 800 390 800 c 0x0540
 414 800 433 781 433 757 c 0x0480
473 457 m 1x20
 466 457 460 460 454 463 c 1
 448 460 442 457 435 457 c 1
 442 457 448 454 454 451 c 1
 460 454 466 457 473 457 c 1x20
473 543 m 1x10
 466 543 460 546 454 549 c 1
 448 546 442 543 435 543 c 1
 442 543 448 540 454 537 c 1
 460 540 466 543 473 543 c 1x10
473 629 m 1x08
 466 629 460 631 454 634 c 1
 448 631 442 629 435 629 c 1
 442 629 448 626 454 623 c 1
 460 626 466 629 473 629 c 1x08
130 629 m 1
 123 629 117 631 111 634 c 1
 105 631 99 629 92 629 c 1
 99 629 105 626 111 623 c 1
 117 626 123 629 130 629 c 1
EndSplineSet
EndChar

StartChar: eight
Encoding: 56 56 29
Width: 522
VWidth: 0
UnlinkRmOvrlpSave: 1
Flags: W
HStem: 200 86<137.642 196.717 197.282 239.717 240.282 281.718 282.283 324.718 325.283 367.718 368.283 427.358> 286 85<52.6424 87 92 110.718 111.282 130 135 169.358 395.58 430 435 453.717 454.282 473 477 512.358> 457 86<137.642 196.717 197.282 239.717 240.282 281.718 282.283 324.718 325.283 367.718 368.283 427.358> 629 85<52.6424 87 92 110.718 111.282 130 135 169.358 395.58 430 435 453.717 454.282 473 477 512.358> 714 86<137.642 196.717 197.282 239.717 240.282 281.718 282.283 324.718 325.283 367.718 368.283 427.358>
VStem: 47 128<291.642 365.928 377.304 450.833 549.167 622.696 634.072 708.358> 132 301<206.167 279.833 463.167 536.833 720.167 793.833> 390 128<291.642 365.448 377.304 450.833 549.167 622.696 634.552 708.358>
LayerCount: 2
Back
Fore
SplineSet
433 243 m 0xa2
 433 219 414 200 390 200 c 0
 382 200 374 202 368 206 c 1
 362 202 355 200 347 200 c 0
 339 200 331 202 325 206 c 1
 319 202 312 200 304 200 c 0
 296 200 288 202 282 206 c 1
 276 202 269 200 261 200 c 0
 253 200 246 202 240 206 c 1
 234 202 226 200 218 200 c 0
 210 200 203 202 197 206 c 1
 191 202 183 200 175 200 c 0xa5
 151 200 132 219 132 243 c 0xa2
 132 267 151 286 175 286 c 0
 183 286 191 284 197 280 c 1
 203 284 210 286 218 286 c 0
 226 286 234 284 240 280 c 1
 246 284 253 286 261 286 c 0
 269 286 276 284 282 280 c 1
 288 284 296 286 304 286 c 0
 312 286 319 284 325 280 c 1
 331 284 339 286 347 286 c 0
 355 286 362 284 368 280 c 1
 374 284 382 286 390 286 c 0xa5
 414 286 433 267 433 243 c 0xa2
518 329 m 0
 518 305 499 286 475 286 c 0
 467 286 460 287 454 291 c 1
 448 287 440 286 432 286 c 0
 408 286 390 305 390 329 c 0
 390 352 407 370 430 371 c 1
 407 372 390 391 390 414 c 0
 390 438 408 457 432 457 c 0
 440 457 448 455 454 451 c 1
 460 455 467 457 475 457 c 0
 499 457 518 438 518 414 c 0
 518 391 500 372 477 371 c 1x61
 500 370 518 352 518 329 c 0
175 329 m 0x64
 175 305 156 286 132 286 c 0x62
 124 286 117 287 111 291 c 1
 105 287 98 286 90 286 c 0
 66 286 47 305 47 329 c 0
 47 352 64 370 87 371 c 1
 64 372 47 391 47 414 c 0x64
 47 438 66 457 90 457 c 0
 98 457 105 455 111 451 c 1
 117 455 124 457 132 457 c 0x62
 156 457 175 438 175 414 c 0
 175 391 158 372 135 371 c 1
 158 370 175 352 175 329 c 0x64
433 500 m 0
 433 476 414 457 390 457 c 0
 382 457 374 459 368 463 c 1
 362 459 355 457 347 457 c 0
 339 457 331 459 325 463 c 1
 319 459 312 457 304 457 c 0
 296 457 288 459 282 463 c 1
 276 459 269 457 261 457 c 0
 253 457 246 459 240 463 c 1
 234 459 226 457 218 457 c 0
 210 457 203 459 197 463 c 1
 191 459 183 457 175 457 c 0x25
 151 457 132 476 132 500 c 0x22
 132 524 151 543 175 543 c 0
 183 543 191 541 197 537 c 1
 203 541 210 543 218 543 c 0
 226 543 234 541 240 537 c 1
 246 541 253 543 261 543 c 0
 269 543 276 541 282 537 c 1
 288 541 296 543 304 543 c 0
 312 543 319 541 325 537 c 1
 331 541 339 543 347 543 c 0
 355 543 362 541 368 537 c 1
 374 541 382 543 390 543 c 0x25
 414 543 433 524 433 500 c 0
518 586 m 1
 518 562 499 543 475 543 c 0
 467 543 460 545 454 549 c 1
 448 545 440 543 432 543 c 0
 408 543 390 562 390 586 c 0
 390 609 407 628 430 629 c 1x31
 407 630 390 648 390 671 c 1
 390 695 408 714 432 714 c 0
 440 714 448 713 454 709 c 1
 460 713 467 714 475 714 c 0x29
 499 714 518 695 518 671 c 0
 518 648 500 630 477 629 c 1x31
 500 628 518 609 518 586 c 1
175 586 m 1x34
 175 562 156 543 132 543 c 0x32
 124 543 117 545 111 549 c 1
 105 545 98 543 90 543 c 0
 66 543 47 562 47 586 c 0
 47 609 64 628 87 629 c 1
 64 630 47 648 47 671 c 0x34
 47 695 66 714 90 714 c 0
 98 714 105 713 111 709 c 1
 117 713 124 714 132 714 c 0x2a
 156 714 175 695 175 671 c 0
 175 648 158 630 135 629 c 1
 158 628 175 609 175 586 c 1x34
433 757 m 0
 433 733 414 714 390 714 c 0
 382 714 374 716 368 720 c 1
 362 716 355 714 347 714 c 0
 339 714 331 716 325 720 c 1
 319 716 312 714 304 714 c 0
 296 714 288 716 282 720 c 1
 276 716 269 714 261 714 c 0
 253 714 246 716 240 720 c 1
 234 716 226 714 218 714 c 0
 210 714 203 716 197 720 c 1
 191 716 183 714 175 714 c 0x2d
 151 714 132 733 132 757 c 0x2a
 132 781 151 800 175 800 c 0
 183 800 191 798 197 794 c 1
 203 798 210 800 218 800 c 0
 226 800 234 798 240 794 c 1
 246 798 253 800 261 800 c 0
 269 800 276 798 282 794 c 1
 288 798 296 800 304 800 c 0
 312 800 319 798 325 794 c 1
 331 798 339 800 347 800 c 0
 355 800 362 798 368 794 c 1
 374 798 382 800 390 800 c 0x2d
 414 800 433 781 433 757 c 0
473 371 m 1x60
 466 371 460 374 454 377 c 1
 448 374 442 371 435 371 c 1
 442 371 448 369 454 366 c 1
 460 369 466 371 473 371 c 1x60
130 371 m 1
 123 371 117 374 111 377 c 1
 105 374 99 371 92 371 c 1
 99 371 105 369 111 366 c 1
 117 369 123 371 130 371 c 1
473 629 m 1x30
 466 629 460 631 454 634 c 1
 448 631 442 629 435 629 c 1
 442 629 448 626 454 623 c 1
 460 626 466 629 473 629 c 1x30
130 629 m 1
 123 629 117 631 111 634 c 1
 105 631 99 629 92 629 c 1
 99 629 105 626 111 623 c 1
 117 626 123 629 130 629 c 1
EndSplineSet
EndChar

StartChar: semicolon
Encoding: 59 59 30
Width: 522
VWidth: 0
UnlinkRmOvrlpSave: 1
Flags: W
HStem: 200 86<52.6424 111.717 112.282 170.358> 286 85<138.642 174 178 196.718 197.283 217 221 256.358> 371 86<52.8528 88 92 111.717 112.282 131 135 154.717 155.281 174 178 196.719 197.282 217 221 256.147> 457 86<52.8528 88 92 111.717 112.282 131 135 154.717 155.282 174 178 196.718 197.283 217 221 256.147> 629 85<52.8528 88 92 111.717 112.282 131 135 154.717 155.282 174 178 196.718 197.283 217 221 256.147>
VStem: 47 129<206.167 279.833> 133 129<291.642 365.448>
LayerCount: 2
Back
Fore
SplineSet
176 243 m 0x8c
 176 219 157 200 133 200 c 0x8a
 125 200 118 202 112 206 c 1
 106 202 98 200 90 200 c 0
 66 200 47 219 47 243 c 0x8c
 47 267 66 286 90 286 c 0
 98 286 106 284 112 280 c 1
 118 284 125 286 133 286 c 0x8a
 157 286 176 267 176 243 c 0x8c
262 329 m 0
 262 305 243 286 219 286 c 0
 211 286 203 287 197 291 c 1
 191 287 184 286 176 286 c 0x4c
 152 286 133 305 133 329 c 0
 133 352 151 370 174 371 c 1x4a
 167 371 161 374 155 377 c 1
 149 373 141 371 133 371 c 0x2a
 125 371 118 373 112 377 c 1
 106 373 98 371 90 371 c 0
 66 371 47 390 47 414 c 0
 47 437 65 456 88 457 c 1
 65 458 47 477 47 500 c 1x2c
 47 524 66 543 90 543 c 0
 98 543 106 541 112 537 c 1
 118 541 125 543 133 543 c 0x1a
 141 543 149 541 155 537 c 1
 161 541 168 543 176 543 c 0
 184 543 191 541 197 537 c 1
 203 541 211 543 219 543 c 0x1c
 243 543 262 524 262 500 c 0
 262 477 244 458 221 457 c 1x2a
 244 456 262 437 262 414 c 0
 262 391 244 372 221 371 c 1x4a
 244 370 262 352 262 329 c 0
262 671 m 1x0a
 262 647 243 629 219 629 c 0
 211 629 203 630 197 634 c 1
 191 630 184 629 176 629 c 0x0c
 168 629 161 630 155 634 c 1
 149 630 141 629 133 629 c 0x0a
 125 629 118 630 112 634 c 1
 106 630 98 629 90 629 c 0
 66 629 47 647 47 671 c 0
 47 694 65 713 88 714 c 1
 65 715 47 734 47 757 c 0x0c
 47 781 66 800 90 800 c 0
 98 800 106 798 112 794 c 1
 118 798 125 800 133 800 c 0x0a
 141 800 149 798 155 794 c 1
 161 798 168 800 176 800 c 0x0c
 184 800 191 798 197 794 c 1
 203 798 211 800 219 800 c 0
 243 800 262 781 262 757 c 0
 262 734 244 715 221 714 c 1
 244 713 262 694 262 671 c 1x0a
217 371 m 1x48
 210 371 203 374 197 377 c 1
 191 374 185 371 178 371 c 1
 185 371 191 369 197 366 c 1
 203 369 210 371 217 371 c 1x48
217 457 m 1x28
 210 457 203 460 197 463 c 1
 191 460 185 457 178 457 c 1
 185 457 191 454 197 451 c 1
 203 454 210 457 217 457 c 1x28
131 457 m 1
 124 457 118 460 112 463 c 1
 106 460 99 457 92 457 c 1
 99 457 106 454 112 451 c 1
 118 454 124 457 131 457 c 1
135 457 m 1
 142 457 149 454 155 451 c 1
 161 454 167 457 174 457 c 1
 167 457 161 460 155 463 c 1
 149 460 142 457 135 457 c 1
217 714 m 1
 210 714 203 717 197 720 c 1
 191 717 185 714 178 714 c 1
 185 714 191 712 197 709 c 1
 203 712 210 714 217 714 c 1
131 714 m 1
 124 714 118 717 112 720 c 1
 106 717 99 714 92 714 c 1
 99 714 106 712 112 709 c 1
 118 712 124 714 131 714 c 1
135 714 m 1
 142 714 149 712 155 709 c 1
 161 712 167 714 174 714 c 1
 167 714 161 717 155 720 c 1
 149 717 142 714 135 714 c 1
EndSplineSet
EndChar

StartChar: colon
Encoding: 58 58 31
Width: 522
VWidth: 0
UnlinkRmOvrlpSave: 1
Flags: W
HStem: 286 85<52.6424 88 92 111.717 112.282 131 135 154.717 155.282 174 178 196.718 197.283 217 221 256.358> 629 85<52.6424 88 92 111.717 112.282 131 135 154.717 155.282 174 178 196.718 197.283 217 221 256.358>
VStem: 47 215<291.642 365.448 377.304 450.833 549.167 622.696 634.552 708.358>
LayerCount: 2
Back
Fore
SplineSet
262 329 m 0
 262 305 243 286 219 286 c 0
 211 286 203 287 197 291 c 1
 191 287 184 286 176 286 c 0
 168 286 161 287 155 291 c 1
 149 287 141 286 133 286 c 0
 125 286 118 287 112 291 c 1
 106 287 98 286 90 286 c 0
 66 286 47 305 47 329 c 0
 47 352 65 370 88 371 c 1
 65 372 47 391 47 414 c 0
 47 438 66 457 90 457 c 0
 98 457 106 455 112 451 c 1
 118 455 125 457 133 457 c 0
 141 457 149 455 155 451 c 1
 161 455 168 457 176 457 c 0
 184 457 191 455 197 451 c 1
 203 455 211 457 219 457 c 0
 243 457 262 438 262 414 c 0
 262 391 244 372 221 371 c 1
 244 370 262 352 262 329 c 0
262 586 m 1
 262 562 243 543 219 543 c 0
 211 543 203 545 197 549 c 1
 191 545 184 543 176 543 c 0
 168 543 161 545 155 549 c 1
 149 545 141 543 133 543 c 0
 125 543 118 545 112 549 c 1
 106 545 98 543 90 543 c 0
 66 543 47 562 47 586 c 0
 47 609 65 628 88 629 c 1
 65 630 47 648 47 671 c 0
 47 695 66 714 90 714 c 0
 98 714 106 713 112 709 c 1
 118 713 125 714 133 714 c 0
 141 714 149 713 155 709 c 1
 161 713 168 714 176 714 c 0
 184 714 191 713 197 709 c 1
 203 713 211 714 219 714 c 0
 243 714 262 695 262 671 c 0
 262 648 244 630 221 629 c 1
 244 628 262 609 262 586 c 1
217 371 m 1
 210 371 203 374 197 377 c 1
 191 374 185 371 178 371 c 1
 185 371 191 369 197 366 c 1
 203 369 210 371 217 371 c 1
131 371 m 1
 124 371 118 374 112 377 c 1
 106 374 99 371 92 371 c 1
 99 371 106 369 112 366 c 1
 118 369 124 371 131 371 c 1
135 371 m 1
 142 371 149 369 155 366 c 1
 161 369 167 371 174 371 c 1
 167 371 161 374 155 377 c 1
 149 374 142 371 135 371 c 1
217 629 m 1
 210 629 203 631 197 634 c 1
 191 631 185 629 178 629 c 1
 185 629 191 626 197 623 c 1
 203 626 210 629 217 629 c 1
131 629 m 1
 124 629 118 631 112 634 c 1
 106 631 99 629 92 629 c 1
 99 629 106 626 112 623 c 1
 118 626 124 629 131 629 c 1
135 629 m 1
 142 629 149 626 155 623 c 1
 161 626 167 629 174 629 c 1
 167 629 161 631 155 634 c 1
 149 631 142 629 135 629 c 1
EndSplineSet
EndChar

StartChar: equal
Encoding: 61 61 32
Width: 522
VWidth: 0
UnlinkRmOvrlpSave: 1
Flags: W
HStem: 371 86<52.6424 110.718 111.282 153.717 154.282 196.717 197.282 239.717 240.282 281.718 282.283 324.718 325.283 367.718 368.283 410.718 411.282 453.717 454.282 512.358> 543 86<52.6424 110.718 111.282 153.717 154.282 196.717 197.282 239.717 240.282 281.718 282.283 324.718 325.283 367.718 368.283 410.718 411.282 453.717 454.282 512.358>
LayerCount: 2
Back
Fore
SplineSet
518 414 m 0
 518 390 499 371 475 371 c 0
 467 371 460 373 454 377 c 1
 448 373 440 371 432 371 c 0
 424 371 417 373 411 377 c 1
 405 373 398 371 390 371 c 0
 382 371 374 373 368 377 c 1
 362 373 355 371 347 371 c 0
 339 371 331 373 325 377 c 1
 319 373 312 371 304 371 c 0
 296 371 288 373 282 377 c 1
 276 373 269 371 261 371 c 0
 253 371 246 373 240 377 c 1
 234 373 226 371 218 371 c 0
 210 371 203 373 197 377 c 1
 191 373 183 371 175 371 c 0
 167 371 160 373 154 377 c 1
 148 373 140 371 132 371 c 0
 124 371 117 373 111 377 c 1
 105 373 98 371 90 371 c 0
 66 371 47 390 47 414 c 0
 47 438 66 457 90 457 c 0
 98 457 105 455 111 451 c 1
 117 455 124 457 132 457 c 0
 140 457 148 455 154 451 c 1
 160 455 167 457 175 457 c 0
 183 457 191 455 197 451 c 1
 203 455 210 457 218 457 c 0
 226 457 234 455 240 451 c 1
 246 455 253 457 261 457 c 0
 269 457 276 455 282 451 c 1
 288 455 296 457 304 457 c 0
 312 457 319 455 325 451 c 1
 331 455 339 457 347 457 c 0
 355 457 362 455 368 451 c 1
 374 455 382 457 390 457 c 0
 398 457 405 455 411 451 c 1
 417 455 424 457 432 457 c 0
 440 457 448 455 454 451 c 1
 460 455 467 457 475 457 c 0
 499 457 518 438 518 414 c 0
518 586 m 0
 518 562 499 543 475 543 c 0
 467 543 460 545 454 549 c 1
 448 545 440 543 432 543 c 0
 424 543 417 545 411 549 c 1
 405 545 398 543 390 543 c 0
 382 543 374 545 368 549 c 1
 362 545 355 543 347 543 c 0
 339 543 331 545 325 549 c 1
 319 545 312 543 304 543 c 0
 296 543 288 545 282 549 c 1
 276 545 269 543 261 543 c 0
 253 543 246 545 240 549 c 1
 234 545 226 543 218 543 c 0
 210 543 203 545 197 549 c 1
 191 545 183 543 175 543 c 0
 167 543 160 545 154 549 c 1
 148 545 140 543 132 543 c 0
 124 543 117 545 111 549 c 1
 105 545 98 543 90 543 c 0
 66 543 47 562 47 586 c 0
 47 610 66 629 90 629 c 0
 98 629 105 627 111 623 c 1
 117 627 124 629 132 629 c 0
 140 629 148 627 154 623 c 1
 160 627 167 629 175 629 c 0
 183 629 191 627 197 623 c 1
 203 627 210 629 218 629 c 0
 226 629 234 627 240 623 c 1
 246 627 253 629 261 629 c 0
 269 629 276 627 282 623 c 1
 288 627 296 629 304 629 c 0
 312 629 319 627 325 623 c 1
 331 627 339 629 347 629 c 0
 355 629 362 627 368 623 c 1
 374 627 382 629 390 629 c 0
 398 629 405 627 411 623 c 1
 417 627 424 629 432 629 c 0
 440 629 448 627 454 623 c 1
 460 627 467 629 475 629 c 0
 499 629 518 610 518 586 c 0
EndSplineSet
EndChar

StartChar: less
Encoding: 60 60 33
Width: 522
VWidth: 0
UnlinkRmOvrlpSave: 1
Flags: W
HStem: 200 86<310.39 368.717 369.282 427.358> 286 85<224.642 282.718 283.283 342.358> 371 86<138.642 196.718 197.283 256.358> 457 86<52.6424 111.717 112.282 170.358> 543 86<138.642 196.718 197.283 256.358> 629 85<224.642 282.718 283.283 342.358> 714 86<310.39 368.717 369.282 427.358>
VStem: 47 129<463.167 536.833> 133 129<377.167 450.833 549.167 622.833> 219 129<291.642 365.61 634.39 708.358> 305 128<206.167 279.833 720.167 793.833>
LayerCount: 2
Back
Fore
SplineSet
433 243 m 0x8020
 433 219 414 200 390 200 c 0
 382 200 375 202 369 206 c 1
 363 202 355 200 347 200 c 0
 323 200 305 219 305 243 c 0
 305 267 323 286 347 286 c 0
 355 286 363 284 369 280 c 1
 375 284 382 286 390 286 c 0
 414 286 433 267 433 243 c 0x8020
348 329 m 0x4040
 348 305 329 286 305 286 c 0
 297 286 289 287 283 291 c 1
 277 287 270 286 262 286 c 0x40a0
 238 286 219 305 219 329 c 0x4040
 219 353 238 371 262 371 c 0
 270 371 277 370 283 366 c 1
 289 370 297 371 305 371 c 0x40a0
 329 371 348 353 348 329 c 0x4040
262 414 m 0
 262 390 243 371 219 371 c 0
 211 371 203 373 197 377 c 1
 191 373 184 371 176 371 c 0x2140
 152 371 133 390 133 414 c 0x2080
 133 438 152 457 176 457 c 0
 184 457 191 455 197 451 c 1
 203 455 211 457 219 457 c 0x2140
 243 457 262 438 262 414 c 0
176 500 m 0
 176 476 157 457 133 457 c 0x1080
 125 457 118 459 112 463 c 1
 106 459 98 457 90 457 c 0
 66 457 47 476 47 500 c 0x11
 47 524 66 543 90 543 c 0
 98 543 106 541 112 537 c 1
 118 541 125 543 133 543 c 0x1080
 157 543 176 524 176 500 c 0
262 586 m 0
 262 562 243 543 219 543 c 0
 211 543 203 545 197 549 c 1
 191 545 184 543 176 543 c 0x0940
 152 543 133 562 133 586 c 0x0880
 133 610 152 629 176 629 c 0
 184 629 191 627 197 623 c 1
 203 627 211 629 219 629 c 0x0940
 243 629 262 610 262 586 c 0
348 671 m 0
 348 647 329 629 305 629 c 0
 297 629 289 630 283 634 c 1
 277 630 270 629 262 629 c 0x04a0
 238 629 219 647 219 671 c 0x0440
 219 695 238 714 262 714 c 0
 270 714 277 713 283 709 c 1
 289 713 297 714 305 714 c 0x04a0
 329 714 348 695 348 671 c 0
433 757 m 0
 433 733 414 714 390 714 c 0
 382 714 375 716 369 720 c 1
 363 716 355 714 347 714 c 0
 323 714 305 733 305 757 c 0
 305 781 323 800 347 800 c 0
 355 800 363 798 369 794 c 1
 375 798 382 800 390 800 c 0x0220
 414 800 433 781 433 757 c 0
EndSplineSet
EndChar

StartChar: question
Encoding: 63 63 34
Width: 522
VWidth: 0
UnlinkRmOvrlpSave: 1
Flags: W
HStem: 200 86<223.642 281.718 282.283 341.358> 371 86<223.853 259 263 281.718 282.283 302 306 341.147> 457 86<223.853 259 263 281.718 282.283 302 306 341.147> 629 85<52.6424 110.718 111.282 169.358 309.642 345 349 367.718 368.283 388 392 427.358> 714 86<137.642 196.717 197.282 239.717 240.282 281.718 282.283 341.358>
VStem: 47 128<634.39 708.358> 132 215<720.167 793.833> 218 129<206.167 279.833 377.167 450.696 463.304 536.833> 304 129<549.167 622.696 634.552 708.358>
LayerCount: 2
Back
Fore
SplineSet
347 243 m 0x81
 347 219 328 200 304 200 c 0x8080
 296 200 288 202 282 206 c 1
 276 202 269 200 261 200 c 0
 237 200 218 219 218 243 c 0x81
 218 267 237 286 261 286 c 0
 269 286 276 284 282 280 c 1
 288 284 296 286 304 286 c 0x8080
 328 286 347 267 347 243 c 0x81
347 414 m 0xc1
 347 390 328 371 304 371 c 0xc080
 296 371 288 373 282 377 c 1
 276 373 269 371 261 371 c 0
 237 371 218 390 218 414 c 0
 218 437 236 456 259 457 c 1
 236 458 218 477 218 500 c 1xc1
 218 524 237 543 261 543 c 0
 269 543 276 541 282 537 c 1
 288 541 296 543 304 543 c 0xa080
 328 543 347 524 347 500 c 0
 347 477 329 458 306 457 c 1
 329 456 347 437 347 414 c 0xc1
433 586 m 1
 433 562 414 543 390 543 c 0
 382 543 374 545 368 549 c 1
 362 545 355 543 347 543 c 0xb1
 323 543 304 562 304 586 c 0
 304 609 322 628 345 629 c 1
 322 630 304 648 304 671 c 1xb080
 304 695 323 714 347 714 c 0
 355 714 362 713 368 709 c 1
 374 713 382 714 390 714 c 0x89
 414 714 433 695 433 671 c 0
 433 648 415 630 392 629 c 1x9080
 415 628 433 609 433 586 c 1
175 671 m 0x94
 175 647 156 629 132 629 c 0x92
 124 629 117 630 111 634 c 1
 105 630 98 629 90 629 c 0
 66 629 47 647 47 671 c 0x94
 47 695 66 714 90 714 c 0
 98 714 105 713 111 709 c 1
 117 713 124 714 132 714 c 0x92
 156 714 175 695 175 671 c 0x94
347 757 m 0
 347 733 328 714 304 714 c 0x8880
 296 714 288 716 282 720 c 1
 276 716 269 714 261 714 c 0
 253 714 246 716 240 720 c 1
 234 716 226 714 218 714 c 0
 210 714 203 716 197 720 c 1
 191 716 183 714 175 714 c 0x8d
 151 714 132 733 132 757 c 0x8a
 132 781 151 800 175 800 c 0
 183 800 191 798 197 794 c 1
 203 798 210 800 218 800 c 0x8d
 226 800 234 798 240 794 c 1
 246 798 253 800 261 800 c 0
 269 800 276 798 282 794 c 1
 288 798 296 800 304 800 c 0x8880
 328 800 347 781 347 757 c 0
302 457 m 1xc0
 295 457 288 460 282 463 c 1
 276 460 270 457 263 457 c 1
 270 457 276 454 282 451 c 1
 288 454 295 457 302 457 c 1xc0
388 629 m 1x90
 381 629 374 631 368 634 c 1
 362 631 356 629 349 629 c 1
 356 629 362 626 368 623 c 1
 374 626 381 629 388 629 c 1x90
EndSplineSet
EndChar

StartChar: greater
Encoding: 62 62 35
Width: 522
VWidth: 0
UnlinkRmOvrlpSave: 1
Flags: W
HStem: 200 86<52.6424 110.718 111.282 169.358> 286 85<137.642 196.717 197.282 255.358> 371 86<223.642 281.718 282.283 341.358> 457 86<309.642 367.718 368.283 427.358> 543 86<223.642 281.718 282.283 341.358> 629 85<137.642 196.717 197.282 255.358> 714 86<52.6424 110.718 111.282 169.358>
VStem: 47 128<206.167 279.833 720.167 793.833> 132 129<291.642 365.61 634.39 708.358> 218 129<377.167 450.833 549.167 622.833> 304 129<463.167 536.833>
LayerCount: 2
Back
Fore
SplineSet
175 243 m 0x81
 175 219 156 200 132 200 c 0x8080
 124 200 117 202 111 206 c 1
 105 202 98 200 90 200 c 0
 66 200 47 219 47 243 c 0x81
 47 267 66 286 90 286 c 0
 98 286 105 284 111 280 c 1
 117 284 124 286 132 286 c 0x8080
 156 286 175 267 175 243 c 0x81
261 329 m 0
 261 305 242 286 218 286 c 0
 210 286 203 287 197 291 c 1
 191 287 183 286 175 286 c 0x4140
 151 286 132 305 132 329 c 0x4080
 132 353 151 371 175 371 c 0
 183 371 191 370 197 366 c 1
 203 370 210 371 218 371 c 0x4140
 242 371 261 353 261 329 c 0
347 414 m 0
 347 390 328 371 304 371 c 0
 296 371 288 373 282 377 c 1
 276 373 269 371 261 371 c 0x20a0
 237 371 218 390 218 414 c 0x2040
 218 438 237 457 261 457 c 0
 269 457 276 455 282 451 c 1
 288 455 296 457 304 457 c 0x20a0
 328 457 347 438 347 414 c 0
433 500 m 0
 433 476 414 457 390 457 c 0
 382 457 374 459 368 463 c 1
 362 459 355 457 347 457 c 0x1040
 323 457 304 476 304 500 c 0x1020
 304 524 323 543 347 543 c 0
 355 543 362 541 368 537 c 1
 374 541 382 543 390 543 c 0x1040
 414 543 433 524 433 500 c 0
347 586 m 0
 347 562 328 543 304 543 c 0
 296 543 288 545 282 549 c 1
 276 545 269 543 261 543 c 0x08a0
 237 543 218 562 218 586 c 0x0840
 218 610 237 629 261 629 c 0
 269 629 276 627 282 623 c 1
 288 627 296 629 304 629 c 0x08a0
 328 629 347 610 347 586 c 0
261 671 m 0
 261 647 242 629 218 629 c 0
 210 629 203 630 197 634 c 1
 191 630 183 629 175 629 c 0x0540
 151 629 132 647 132 671 c 0x0480
 132 695 151 714 175 714 c 0
 183 714 191 713 197 709 c 1
 203 713 210 714 218 714 c 0x0540
 242 714 261 695 261 671 c 0
175 757 m 0
 175 733 156 714 132 714 c 0x0280
 124 714 117 716 111 720 c 1
 105 716 98 714 90 714 c 0
 66 714 47 733 47 757 c 0x03
 47 781 66 800 90 800 c 0
 98 800 105 798 111 794 c 1
 117 798 124 800 132 800 c 0x0280
 156 800 175 781 175 757 c 0
EndSplineSet
EndChar

StartChar: A
Encoding: 65 65 36
Width: 522
VWidth: 0
UnlinkRmOvrlpSave: 1
Flags: W
HStem: 286 85<52.5796 87 92 110.719 111.281 130 135 169.42 395.58 430 435 453.719 454.281 473 477 512.147> 371 86<52.5796 87 92 110.719 111.281 130 135 153.719 154.282 196.717 197.282 239.717 240.282 281.718 282.283 324.718 325.283 367.718 368.283 410.718 411.281 430 435 453.719 454.281 473 477 512.147> 457 86<52.5796 87 92 110.719 111.281 130 135 169.42 395.58 430 435 453.719 454.281 473 477 512.147> 543 86<52.6424 87 92 110.718 111.282 130 135 169.358 395.58 430 435 453.717 454.282 473 477 512.147> 629 85<137.642 196.717 197.282 255.358 309.642 367.718 368.283 427.358> 714 86<223.642 281.718 282.283 341.358>
VStem: 47 128<206.167 279.696 291.284 365.928 463.304 536.696 549.304 622.833> 132 129<634.39 708.358> 218 129<720.167 793.833> 304 129<634.39 708.358> 390 128<206.167 279.696 291.784 365.448 463.304 536.696 549.304 622.833>
LayerCount: 2
Back
Fore
SplineSet
518 243 m 0x80a0
 518 219 499 200 475 200 c 0
 467 200 460 202 454 206 c 1
 448 202 440 200 432 200 c 0
 408 200 390 219 390 243 c 0
 390 266 407 285 430 286 c 1
 407 287 390 306 390 329 c 0
 390 352 407 370 430 371 c 1x80a0
 423 371 417 374 411 377 c 1
 405 373 398 371 390 371 c 0
 382 371 374 373 368 377 c 1
 362 373 355 371 347 371 c 0x40a0
 339 371 331 373 325 377 c 1
 319 373 312 371 304 371 c 0
 296 371 288 373 282 377 c 1
 276 373 269 371 261 371 c 0x4140
 253 371 246 373 240 377 c 1
 234 373 226 371 218 371 c 0
 210 371 203 373 197 377 c 1
 191 373 183 371 175 371 c 0x4280
 167 371 160 373 154 377 c 1
 148 374 142 371 135 371 c 1
 158 370 175 352 175 329 c 0
 175 306 158 287 135 286 c 1
 158 285 175 266 175 243 c 0x8280
 175 219 156 200 132 200 c 0x81
 124 200 117 202 111 206 c 1
 105 202 98 200 90 200 c 0
 66 200 47 219 47 243 c 0
 47 266 64 285 87 286 c 1
 64 287 47 306 47 329 c 0
 47 352 64 370 87 371 c 1x82
 64 372 47 391 47 414 c 0
 47 437 64 456 87 457 c 1x42
 64 458 47 477 47 500 c 1
 47 523 64 542 87 543 c 1
 64 544 47 563 47 586 c 0x22
 47 610 66 629 90 629 c 0
 98 629 105 627 111 623 c 1
 117 627 124 629 132 629 c 0x29
 156 629 175 610 175 586 c 0
 175 563 158 544 135 543 c 1x2a
 158 542 175 523 175 500 c 1
 175 477 158 458 135 457 c 1
 142 457 148 454 154 451 c 1
 160 455 167 457 175 457 c 0
 183 457 191 455 197 451 c 1
 203 455 210 457 218 457 c 0x4280
 226 457 234 455 240 451 c 1
 246 455 253 457 261 457 c 0
 269 457 276 455 282 451 c 1
 288 455 296 457 304 457 c 0x4140
 312 457 319 455 325 451 c 1
 331 455 339 457 347 457 c 0
 355 457 362 455 368 451 c 1
 374 455 382 457 390 457 c 0
 398 457 405 455 411 451 c 1
 417 454 423 457 430 457 c 1x40a0
 407 458 390 477 390 500 c 0
 390 523 407 542 430 543 c 1
 407 544 390 563 390 586 c 0
 390 610 408 629 432 629 c 0
 440 629 448 627 454 623 c 1
 460 627 467 629 475 629 c 0
 499 629 518 610 518 586 c 0
 518 563 500 544 477 543 c 1x28a0
 500 542 518 523 518 500 c 0
 518 477 500 458 477 457 c 1x40a0
 500 456 518 437 518 414 c 0
 518 391 500 372 477 371 c 1
 500 370 518 352 518 329 c 0
 518 306 500 287 477 286 c 1
 500 285 518 266 518 243 c 0x80a0
433 671 m 0x0840
 433 647 414 629 390 629 c 0
 382 629 374 630 368 634 c 1
 362 630 355 629 347 629 c 0x08a0
 323 629 304 647 304 671 c 0x0840
 304 695 323 714 347 714 c 0
 355 714 362 713 368 709 c 1
 374 713 382 714 390 714 c 0x08a0
 414 714 433 695 433 671 c 0x0840
261 671 m 0x09
 261 647 242 629 218 629 c 0
 210 629 203 630 197 634 c 1
 191 630 183 629 175 629 c 0x0a80
 151 629 132 647 132 671 c 0x09
 132 695 151 714 175 714 c 0
 183 714 191 713 197 709 c 1
 203 713 210 714 218 714 c 0x0a80
 242 714 261 695 261 671 c 0x09
347 757 m 0
 347 733 328 714 304 714 c 0
 296 714 288 716 282 720 c 1
 276 716 269 714 261 714 c 0x0540
 237 714 218 733 218 757 c 0x0480
 218 781 237 800 261 800 c 0
 269 800 276 798 282 794 c 1
 288 798 296 800 304 800 c 0x0540
 328 800 347 781 347 757 c 0
473 286 m 1x80
 466 286 460 288 454 291 c 1
 448 288 442 286 435 286 c 1
 442 286 448 283 454 280 c 1
 460 283 466 286 473 286 c 1x80
130 286 m 1
 123 286 117 288 111 291 c 1
 105 288 99 286 92 286 c 1
 99 286 105 283 111 280 c 1
 117 283 123 286 130 286 c 1
473 371 m 1
 466 371 460 374 454 377 c 1
 448 374 442 371 435 371 c 1
 442 371 448 369 454 366 c 1
 460 369 466 371 473 371 c 1
130 371 m 1
 123 371 117 374 111 377 c 1
 105 374 99 371 92 371 c 1
 99 371 105 369 111 366 c 1
 117 369 123 371 130 371 c 1
473 457 m 1x40
 466 457 460 460 454 463 c 1
 448 460 442 457 435 457 c 1
 442 457 448 454 454 451 c 1
 460 454 466 457 473 457 c 1x40
130 457 m 1
 123 457 117 460 111 463 c 1
 105 460 99 457 92 457 c 1
 99 457 105 454 111 451 c 1
 117 454 123 457 130 457 c 1
473 543 m 1x20
 466 543 460 546 454 549 c 1
 448 546 442 543 435 543 c 1
 442 543 448 540 454 537 c 1
 460 540 466 543 473 543 c 1x20
130 543 m 1
 123 543 117 546 111 549 c 1
 105 546 99 543 92 543 c 1
 99 543 105 540 111 537 c 1
 117 540 123 543 130 543 c 1
EndSplineSet
EndChar

StartChar: at
Encoding: 64 64 37
Width: 522
VWidth: 0
UnlinkRmOvrlpSave: 1
Flags: W
HStem: 200 86<137.642 196.717 197.282 239.717 240.282 259 263 281.718 282.283 302 306 324.718 325.283 367.718 368.283 427.358> 286 85<52.6424 87 92 110.718 111.282 130 135 169.358 223.853 259 263 281.719 282.282 302 306 341.147 395.58 430 435 453.717 454.282 473 477 512.358> 457 86<137.642 196.717 197.282 239.717 240.282 259 263 281.718 282.283 302 306 341.147 395.58 430 435 453.719 454.281 473 477 512.147> 629 85<52.6424 110.718 111.282 169.358 395.58 430 435 453.717 454.282 473 477 512.358> 714 86<137.642 196.717 197.282 239.717 240.282 281.718 282.283 324.718 325.283 367.718 368.283 427.358>
VStem: 47 128<291.642 365.928 377.304 450.833 634.39 708.358> 218 129<291.784 365.448 377.304 450.696> 390 128<291.642 365.448 377.304 450.696 463.304 536.696 549.304 622.696 634.552 708.358>
CounterMasks: 1 07
LayerCount: 2
Back
Fore
SplineSet
433 243 m 0xa7
 433 219 414 200 390 200 c 0
 382 200 374 202 368 206 c 1
 362 202 355 200 347 200 c 0
 339 200 331 202 325 206 c 1
 319 202 312 200 304 200 c 0
 296 200 288 202 282 206 c 1
 276 202 269 200 261 200 c 0
 253 200 246 202 240 206 c 1
 234 202 226 200 218 200 c 0
 210 200 203 202 197 206 c 1
 191 202 183 200 175 200 c 0
 151 200 132 219 132 243 c 0
 132 267 151 286 175 286 c 0
 183 286 191 284 197 280 c 1
 203 284 210 286 218 286 c 0
 226 286 234 284 240 280 c 1
 246 283 252 286 259 286 c 1xa7
 236 287 218 306 218 329 c 0
 218 352 236 370 259 371 c 1
 236 372 218 391 218 414 c 0
 218 437 236 456 259 457 c 1
 252 457 246 460 240 463 c 1
 234 459 226 457 218 457 c 0
 210 457 203 459 197 463 c 1
 191 459 183 457 175 457 c 0
 151 457 132 476 132 500 c 0
 132 524 151 543 175 543 c 0
 183 543 191 541 197 537 c 1
 203 541 210 543 218 543 c 0
 226 543 234 541 240 537 c 1
 246 541 253 543 261 543 c 0
 269 543 276 541 282 537 c 1
 288 541 296 543 304 543 c 0
 328 543 347 524 347 500 c 0
 347 477 329 458 306 457 c 1
 329 456 347 437 347 414 c 0
 347 391 329 372 306 371 c 1x67
 329 370 347 352 347 329 c 0
 347 306 329 287 306 286 c 1
 313 286 319 283 325 280 c 1
 331 284 339 286 347 286 c 0
 355 286 362 284 368 280 c 1
 374 284 382 286 390 286 c 0
 414 286 433 267 433 243 c 0xa7
518 329 m 0
 518 305 499 286 475 286 c 0
 467 286 460 287 454 291 c 1
 448 287 440 286 432 286 c 0
 408 286 390 305 390 329 c 0
 390 352 407 370 430 371 c 1
 407 372 390 391 390 414 c 0
 390 437 407 456 430 457 c 1
 407 458 390 477 390 500 c 0
 390 523 407 542 430 543 c 1
 407 544 390 563 390 586 c 0
 390 609 407 628 430 629 c 1x77
 407 630 390 648 390 671 c 1
 390 695 408 714 432 714 c 0
 440 714 448 713 454 709 c 1
 460 713 467 714 475 714 c 0x2f
 499 714 518 695 518 671 c 0
 518 648 500 630 477 629 c 1
 500 628 518 609 518 586 c 1
 518 563 500 544 477 543 c 1
 500 542 518 523 518 500 c 0
 518 477 500 458 477 457 c 1
 500 456 518 437 518 414 c 0
 518 391 500 372 477 371 c 1x77
 500 370 518 352 518 329 c 0
175 329 m 0
 175 305 156 286 132 286 c 0
 124 286 117 287 111 291 c 1
 105 287 98 286 90 286 c 0
 66 286 47 305 47 329 c 0
 47 352 64 370 87 371 c 1
 64 372 47 391 47 414 c 0
 47 438 66 457 90 457 c 0
 98 457 105 455 111 451 c 1
 117 455 124 457 132 457 c 0
 156 457 175 438 175 414 c 0
 175 391 158 372 135 371 c 1
 158 370 175 352 175 329 c 0
175 671 m 0
 175 647 156 629 132 629 c 0
 124 629 117 630 111 634 c 1
 105 630 98 629 90 629 c 0
 66 629 47 647 47 671 c 0
 47 695 66 714 90 714 c 0
 98 714 105 713 111 709 c 1
 117 713 124 714 132 714 c 0
 156 714 175 695 175 671 c 0
433 757 m 0
 433 733 414 714 390 714 c 0
 382 714 374 716 368 720 c 1
 362 716 355 714 347 714 c 0
 339 714 331 716 325 720 c 1
 319 716 312 714 304 714 c 0
 296 714 288 716 282 720 c 1
 276 716 269 714 261 714 c 0
 253 714 246 716 240 720 c 1
 234 716 226 714 218 714 c 0
 210 714 203 716 197 720 c 1
 191 716 183 714 175 714 c 0
 151 714 132 733 132 757 c 0
 132 781 151 800 175 800 c 0
 183 800 191 798 197 794 c 1
 203 798 210 800 218 800 c 0
 226 800 234 798 240 794 c 1
 246 798 253 800 261 800 c 0
 269 800 276 798 282 794 c 1
 288 798 296 800 304 800 c 0
 312 800 319 798 325 794 c 1
 331 798 339 800 347 800 c 0
 355 800 362 798 368 794 c 1
 374 798 382 800 390 800 c 0x2f
 414 800 433 781 433 757 c 0
302 286 m 1xa7
 295 286 288 288 282 291 c 1
 276 288 270 286 263 286 c 1
 270 286 276 283 282 280 c 1
 288 283 295 286 302 286 c 1xa7
473 371 m 1x67
 466 371 460 374 454 377 c 1
 448 374 442 371 435 371 c 1
 442 371 448 369 454 366 c 1
 460 369 466 371 473 371 c 1x67
302 371 m 1
 295 371 288 374 282 377 c 1
 276 374 270 371 263 371 c 1
 270 371 276 369 282 366 c 1
 288 369 295 371 302 371 c 1
130 371 m 1
 123 371 117 374 111 377 c 1
 105 374 99 371 92 371 c 1
 99 371 105 369 111 366 c 1
 117 369 123 371 130 371 c 1
473 457 m 1
 466 457 460 460 454 463 c 1
 448 460 442 457 435 457 c 1
 442 457 448 454 454 451 c 1
 460 454 466 457 473 457 c 1
302 457 m 1
 295 457 288 460 282 463 c 1
 276 460 270 457 263 457 c 1
 270 457 276 454 282 451 c 1
 288 454 295 457 302 457 c 1
473 543 m 1
 466 543 460 546 454 549 c 1
 448 546 442 543 435 543 c 1
 442 543 448 540 454 537 c 1
 460 540 466 543 473 543 c 1
473 629 m 1x37
 466 629 460 631 454 634 c 1
 448 631 442 629 435 629 c 1
 442 629 448 626 454 623 c 1
 460 626 466 629 473 629 c 1x37
EndSplineSet
EndChar

StartChar: C
Encoding: 67 67 38
Width: 522
VWidth: 0
UnlinkRmOvrlpSave: 1
Flags: W
HStem: 200 86<137.642 196.717 197.282 239.717 240.282 281.718 282.283 324.718 325.283 367.718 368.283 427.358> 286 85<52.6424 87 92 110.718 111.282 130 135 169.358 395.39 453.717 454.282 512.358> 457 86<52.5796 87 92 110.719 111.281 130 135 169.42> 629 85<52.6424 87 92 110.718 111.282 130 135 169.358 395.39 453.717 454.282 512.358> 714 86<137.642 196.717 197.282 239.717 240.282 281.718 282.283 324.718 325.283 367.718 368.283 427.358>
VStem: 47 128<291.642 365.928 377.304 450.696 463.304 536.696 549.304 622.696 634.072 708.358> 390 128<291.642 365.61 634.39 708.358>
LayerCount: 2
Back
Fore
SplineSet
433 243 m 0xa6
 433 219 414 200 390 200 c 0
 382 200 374 202 368 206 c 1
 362 202 355 200 347 200 c 0
 339 200 331 202 325 206 c 1
 319 202 312 200 304 200 c 0
 296 200 288 202 282 206 c 1
 276 202 269 200 261 200 c 0
 253 200 246 202 240 206 c 1
 234 202 226 200 218 200 c 0
 210 200 203 202 197 206 c 1
 191 202 183 200 175 200 c 0
 151 200 132 219 132 243 c 0
 132 267 151 286 175 286 c 0
 183 286 191 284 197 280 c 1
 203 284 210 286 218 286 c 0
 226 286 234 284 240 280 c 1
 246 284 253 286 261 286 c 0
 269 286 276 284 282 280 c 1
 288 284 296 286 304 286 c 0
 312 286 319 284 325 280 c 1
 331 284 339 286 347 286 c 0
 355 286 362 284 368 280 c 1
 374 284 382 286 390 286 c 0
 414 286 433 267 433 243 c 0xa6
518 329 m 0
 518 305 499 286 475 286 c 0
 467 286 460 287 454 291 c 1
 448 287 440 286 432 286 c 0
 408 286 390 305 390 329 c 0
 390 353 408 371 432 371 c 0
 440 371 448 370 454 366 c 1
 460 370 467 371 475 371 c 0x66
 499 371 518 353 518 329 c 0
175 329 m 0
 175 305 156 286 132 286 c 0
 124 286 117 287 111 291 c 1
 105 287 98 286 90 286 c 0
 66 286 47 305 47 329 c 0
 47 352 64 370 87 371 c 1
 64 372 47 391 47 414 c 0
 47 437 64 456 87 457 c 1
 64 458 47 477 47 500 c 1
 47 523 64 542 87 543 c 1
 64 544 47 563 47 586 c 0
 47 609 64 628 87 629 c 1x76
 64 630 47 648 47 671 c 0
 47 695 66 714 90 714 c 0
 98 714 105 713 111 709 c 1
 117 713 124 714 132 714 c 0x2e
 156 714 175 695 175 671 c 0
 175 648 158 630 135 629 c 1x36
 158 628 175 609 175 586 c 1
 175 563 158 544 135 543 c 1
 158 542 175 523 175 500 c 1
 175 477 158 458 135 457 c 1
 158 456 175 437 175 414 c 1
 175 391 158 372 135 371 c 1
 158 370 175 352 175 329 c 0
518 671 m 0
 518 647 499 629 475 629 c 0
 467 629 460 630 454 634 c 1
 448 630 440 629 432 629 c 0
 408 629 390 647 390 671 c 0
 390 695 408 714 432 714 c 0
 440 714 448 713 454 709 c 1
 460 713 467 714 475 714 c 0
 499 714 518 695 518 671 c 0
433 757 m 0
 433 733 414 714 390 714 c 0
 382 714 374 716 368 720 c 1
 362 716 355 714 347 714 c 0
 339 714 331 716 325 720 c 1
 319 716 312 714 304 714 c 0
 296 714 288 716 282 720 c 1
 276 716 269 714 261 714 c 0
 253 714 246 716 240 720 c 1
 234 716 226 714 218 714 c 0
 210 714 203 716 197 720 c 1
 191 716 183 714 175 714 c 0
 151 714 132 733 132 757 c 0
 132 781 151 800 175 800 c 0
 183 800 191 798 197 794 c 1
 203 798 210 800 218 800 c 0
 226 800 234 798 240 794 c 1
 246 798 253 800 261 800 c 0
 269 800 276 798 282 794 c 1
 288 798 296 800 304 800 c 0
 312 800 319 798 325 794 c 1
 331 798 339 800 347 800 c 0
 355 800 362 798 368 794 c 1
 374 798 382 800 390 800 c 0x2e
 414 800 433 781 433 757 c 0
130 371 m 1x66
 123 371 117 374 111 377 c 1
 105 374 99 371 92 371 c 1
 99 371 105 369 111 366 c 1
 117 369 123 371 130 371 c 1x66
130 457 m 1
 123 457 117 460 111 463 c 1
 105 460 99 457 92 457 c 1
 99 457 105 454 111 451 c 1
 117 454 123 457 130 457 c 1
130 543 m 1
 123 543 117 546 111 549 c 1
 105 546 99 543 92 543 c 1
 99 543 105 540 111 537 c 1
 117 540 123 543 130 543 c 1
130 629 m 1x36
 123 629 117 631 111 634 c 1
 105 631 99 629 92 629 c 1
 99 629 105 626 111 623 c 1
 117 626 123 629 130 629 c 1x36
EndSplineSet
EndChar

StartChar: B
Encoding: 66 66 39
Width: 522
VWidth: 0
UnlinkRmOvrlpSave: 1
Flags: W
HStem: 200 86<52.6424 110.718 111.282 153.717 154.282 173 177 196.717 197.282 216 220 239.717 240.282 281.718 282.283 324.718 325.283 367.718 368.283 427.358> 286 85<137.853 173 177 196.718 197.281 216 220 255.147 395.58 430 435 453.717 454.282 473 477 512.358> 457 86<137.853 173 177 196.718 197.281 216 220 239.718 240.282 281.718 282.283 324.718 325.283 367.718 368.283 427.358> 629 85<137.853 173 177 196.718 197.281 216 220 255.147 395.58 430 435 453.717 454.282 473 477 512.358> 714 86<52.6424 110.718 111.282 153.717 154.282 173 177 196.717 197.282 216 220 239.717 240.282 281.718 282.283 324.718 325.283 367.718 368.283 427.358>
VStem: 132 129<291.784 365.448 377.304 450.696 549.304 622.696 634.552 708.216> 390 128<291.642 365.448 377.304 450.833 549.167 622.696 634.552 708.358>
LayerCount: 2
Back
Fore
SplineSet
433 243 m 0xa6
 433 219 414 200 390 200 c 0
 382 200 374 202 368 206 c 1
 362 202 355 200 347 200 c 0
 339 200 331 202 325 206 c 1
 319 202 312 200 304 200 c 0
 296 200 288 202 282 206 c 1
 276 202 269 200 261 200 c 0
 253 200 246 202 240 206 c 1
 234 202 226 200 218 200 c 0
 210 200 203 202 197 206 c 1
 191 202 183 200 175 200 c 0
 167 200 160 202 154 206 c 1
 148 202 140 200 132 200 c 0
 124 200 117 202 111 206 c 1
 105 202 98 200 90 200 c 0
 66 200 47 219 47 243 c 0
 47 267 66 286 90 286 c 0
 98 286 105 284 111 280 c 1
 117 284 124 286 132 286 c 0
 140 286 148 284 154 280 c 1
 160 283 166 286 173 286 c 1xa6
 150 287 132 306 132 329 c 0
 132 352 150 370 173 371 c 1
 150 372 132 391 132 414 c 0
 132 437 150 456 173 457 c 1
 150 458 132 477 132 500 c 1
 132 523 150 542 173 543 c 1
 150 544 132 563 132 586 c 0
 132 609 150 628 173 629 c 1
 150 630 132 648 132 671 c 0
 132 694 150 713 173 714 c 1x76
 166 714 160 717 154 720 c 1
 148 716 140 714 132 714 c 0
 124 714 117 716 111 720 c 1
 105 716 98 714 90 714 c 0
 66 714 47 733 47 757 c 0
 47 781 66 800 90 800 c 0
 98 800 105 798 111 794 c 1
 117 798 124 800 132 800 c 0
 140 800 148 798 154 794 c 1
 160 798 167 800 175 800 c 0
 183 800 191 798 197 794 c 1
 203 798 210 800 218 800 c 0
 226 800 234 798 240 794 c 1
 246 798 253 800 261 800 c 0
 269 800 276 798 282 794 c 1
 288 798 296 800 304 800 c 0
 312 800 319 798 325 794 c 1
 331 798 339 800 347 800 c 0
 355 800 362 798 368 794 c 1
 374 798 382 800 390 800 c 0
 414 800 433 781 433 757 c 0
 433 733 414 714 390 714 c 0
 382 714 374 716 368 720 c 1
 362 716 355 714 347 714 c 0
 339 714 331 716 325 720 c 1
 319 716 312 714 304 714 c 0
 296 714 288 716 282 720 c 1
 276 716 269 714 261 714 c 0x2e
 253 714 246 716 240 720 c 1
 234 717 227 714 220 714 c 1
 243 713 261 694 261 671 c 1
 261 648 243 630 220 629 c 1
 243 628 261 609 261 586 c 1
 261 563 243 544 220 543 c 1
 227 543 234 540 240 537 c 1
 246 541 253 543 261 543 c 0
 269 543 276 541 282 537 c 1
 288 541 296 543 304 543 c 0
 312 543 319 541 325 537 c 1
 331 541 339 543 347 543 c 0
 355 543 362 541 368 537 c 1
 374 541 382 543 390 543 c 0
 414 543 433 524 433 500 c 0
 433 476 414 457 390 457 c 0
 382 457 374 459 368 463 c 1
 362 459 355 457 347 457 c 0
 339 457 331 459 325 463 c 1
 319 459 312 457 304 457 c 0
 296 457 288 459 282 463 c 1
 276 459 269 457 261 457 c 0
 253 457 246 459 240 463 c 1
 234 460 227 457 220 457 c 1
 243 456 261 437 261 414 c 1
 261 391 243 372 220 371 c 1x76
 243 370 261 352 261 329 c 0
 261 306 243 287 220 286 c 1
 227 286 234 283 240 280 c 1
 246 284 253 286 261 286 c 0
 269 286 276 284 282 280 c 1
 288 284 296 286 304 286 c 0
 312 286 319 284 325 280 c 1
 331 284 339 286 347 286 c 0
 355 286 362 284 368 280 c 1
 374 284 382 286 390 286 c 0
 414 286 433 267 433 243 c 0xa6
518 329 m 0
 518 305 499 286 475 286 c 0
 467 286 460 287 454 291 c 1
 448 287 440 286 432 286 c 0
 408 286 390 305 390 329 c 0
 390 352 407 370 430 371 c 1
 407 372 390 391 390 414 c 0
 390 438 408 457 432 457 c 0
 440 457 448 455 454 451 c 1
 460 455 467 457 475 457 c 0
 499 457 518 438 518 414 c 0
 518 391 500 372 477 371 c 1x66
 500 370 518 352 518 329 c 0
518 586 m 1
 518 562 499 543 475 543 c 0
 467 543 460 545 454 549 c 1
 448 545 440 543 432 543 c 0
 408 543 390 562 390 586 c 0
 390 609 407 628 430 629 c 1x36
 407 630 390 648 390 671 c 1
 390 695 408 714 432 714 c 0
 440 714 448 713 454 709 c 1
 460 713 467 714 475 714 c 0x2e
 499 714 518 695 518 671 c 0
 518 648 500 630 477 629 c 1x36
 500 628 518 609 518 586 c 1
216 286 m 1xa6
 209 286 203 288 197 291 c 1
 191 288 184 286 177 286 c 1
 184 286 191 283 197 280 c 1
 203 283 209 286 216 286 c 1xa6
473 371 m 1x66
 466 371 460 374 454 377 c 1
 448 374 442 371 435 371 c 1
 442 371 448 369 454 366 c 1
 460 369 466 371 473 371 c 1x66
216 371 m 1
 209 371 203 374 197 377 c 1
 191 374 184 371 177 371 c 1
 184 371 191 369 197 366 c 1
 203 369 209 371 216 371 c 1
216 457 m 1
 209 457 203 460 197 463 c 1
 191 460 184 457 177 457 c 1
 184 457 191 454 197 451 c 1
 203 454 209 457 216 457 c 1
216 543 m 1
 209 543 203 546 197 549 c 1
 191 546 184 543 177 543 c 1
 184 543 191 540 197 537 c 1
 203 540 209 543 216 543 c 1
473 629 m 1x36
 466 629 460 631 454 634 c 1
 448 631 442 629 435 629 c 1
 442 629 448 626 454 623 c 1
 460 626 466 629 473 629 c 1x36
216 629 m 1
 209 629 203 631 197 634 c 1
 191 631 184 629 177 629 c 1
 184 629 191 626 197 623 c 1
 203 626 209 629 216 629 c 1
216 714 m 1
 209 714 203 717 197 720 c 1
 191 717 184 714 177 714 c 1
 184 714 191 712 197 709 c 1
 203 712 209 714 216 714 c 1
EndSplineSet
EndChar

StartChar: E
Encoding: 69 69 40
Width: 522
VWidth: 0
UnlinkRmOvrlpSave: 1
Flags: W
HStem: 200 86<52.6424 87 92 110.718 111.282 130 135 153.717 154.282 196.717 197.282 239.717 240.282 281.718 282.283 324.718 325.283 367.718 368.283 410.718 411.282 453.717 454.282 512.358> 286 85<52.5796 87 92 110.719 111.281 130 135 169.42> 457 86<52.5796 87 92 110.719 111.281 130 135 153.719 154.282 196.717 197.282 239.717 240.282 281.718 282.283 341.358> 629 85<52.5796 87 92 110.719 111.281 130 135 169.42> 714 86<52.6424 87 92 110.718 111.282 130 135 153.717 154.282 196.717 197.282 239.717 240.282 281.718 282.283 324.718 325.283 367.718 368.283 410.718 411.282 453.717 454.282 512.358>
VStem: 47 128<291.284 365.928 377.304 450.696 549.304 622.696 634.072 708.716>
LayerCount: 2
Back
Fore
SplineSet
518 243 m 0xa4
 518 219 499 200 475 200 c 0
 467 200 460 202 454 206 c 1
 448 202 440 200 432 200 c 0
 424 200 417 202 411 206 c 1
 405 202 398 200 390 200 c 0
 382 200 374 202 368 206 c 1
 362 202 355 200 347 200 c 0
 339 200 331 202 325 206 c 1
 319 202 312 200 304 200 c 0
 296 200 288 202 282 206 c 1
 276 202 269 200 261 200 c 0
 253 200 246 202 240 206 c 1
 234 202 226 200 218 200 c 0
 210 200 203 202 197 206 c 1
 191 202 183 200 175 200 c 0
 167 200 160 202 154 206 c 1
 148 202 140 200 132 200 c 0
 124 200 117 202 111 206 c 1
 105 202 98 200 90 200 c 0
 66 200 47 219 47 243 c 0
 47 266 64 285 87 286 c 1xa4
 64 287 47 306 47 329 c 0
 47 352 64 370 87 371 c 1
 64 372 47 391 47 414 c 0
 47 437 64 456 87 457 c 1
 64 458 47 477 47 500 c 1
 47 523 64 542 87 543 c 1
 64 544 47 563 47 586 c 0
 47 609 64 628 87 629 c 1
 64 630 47 648 47 671 c 0
 47 694 64 713 87 714 c 1x74
 64 715 47 734 47 757 c 0
 47 781 66 800 90 800 c 0
 98 800 105 798 111 794 c 1
 117 798 124 800 132 800 c 0
 140 800 148 798 154 794 c 1
 160 798 167 800 175 800 c 0
 183 800 191 798 197 794 c 1
 203 798 210 800 218 800 c 0
 226 800 234 798 240 794 c 1
 246 798 253 800 261 800 c 0
 269 800 276 798 282 794 c 1
 288 798 296 800 304 800 c 0
 312 800 319 798 325 794 c 1
 331 798 339 800 347 800 c 0
 355 800 362 798 368 794 c 1
 374 798 382 800 390 800 c 0
 398 800 405 798 411 794 c 1
 417 798 424 800 432 800 c 0
 440 800 448 798 454 794 c 1
 460 798 467 800 475 800 c 0
 499 800 518 781 518 757 c 0
 518 733 499 714 475 714 c 0
 467 714 460 716 454 720 c 1
 448 716 440 714 432 714 c 0
 424 714 417 716 411 720 c 1
 405 716 398 714 390 714 c 0
 382 714 374 716 368 720 c 1
 362 716 355 714 347 714 c 0
 339 714 331 716 325 720 c 1
 319 716 312 714 304 714 c 0
 296 714 288 716 282 720 c 1
 276 716 269 714 261 714 c 0
 253 714 246 716 240 720 c 1
 234 716 226 714 218 714 c 0
 210 714 203 716 197 720 c 1
 191 716 183 714 175 714 c 0x2c
 167 714 160 716 154 720 c 1
 148 717 142 714 135 714 c 1
 158 713 175 694 175 671 c 1
 175 648 158 630 135 629 c 1
 158 628 175 609 175 586 c 1
 175 563 158 544 135 543 c 1
 142 543 148 540 154 537 c 1
 160 541 167 543 175 543 c 0
 183 543 191 541 197 537 c 1
 203 541 210 543 218 543 c 0
 226 543 234 541 240 537 c 1
 246 541 253 543 261 543 c 0
 269 543 276 541 282 537 c 1
 288 541 296 543 304 543 c 0
 328 543 347 524 347 500 c 0
 347 476 328 457 304 457 c 0
 296 457 288 459 282 463 c 1
 276 459 269 457 261 457 c 0
 253 457 246 459 240 463 c 1
 234 459 226 457 218 457 c 0
 210 457 203 459 197 463 c 1
 191 459 183 457 175 457 c 0
 167 457 160 459 154 463 c 1
 148 460 142 457 135 457 c 1
 158 456 175 437 175 414 c 1
 175 391 158 372 135 371 c 1x74
 158 370 175 352 175 329 c 0
 175 306 158 287 135 286 c 1
 142 286 148 283 154 280 c 1
 160 284 167 286 175 286 c 0
 183 286 191 284 197 280 c 1
 203 284 210 286 218 286 c 0
 226 286 234 284 240 280 c 1
 246 284 253 286 261 286 c 0
 269 286 276 284 282 280 c 1
 288 284 296 286 304 286 c 0
 312 286 319 284 325 280 c 1
 331 284 339 286 347 286 c 0
 355 286 362 284 368 280 c 1
 374 284 382 286 390 286 c 0
 398 286 405 284 411 280 c 1
 417 284 424 286 432 286 c 0
 440 286 448 284 454 280 c 1
 460 284 467 286 475 286 c 0
 499 286 518 267 518 243 c 0xa4
130 286 m 1
 123 286 117 288 111 291 c 1
 105 288 99 286 92 286 c 1
 99 286 105 283 111 280 c 1
 117 283 123 286 130 286 c 1
130 371 m 1x64
 123 371 117 374 111 377 c 1
 105 374 99 371 92 371 c 1
 99 371 105 369 111 366 c 1
 117 369 123 371 130 371 c 1x64
130 457 m 1
 123 457 117 460 111 463 c 1
 105 460 99 457 92 457 c 1
 99 457 105 454 111 451 c 1
 117 454 123 457 130 457 c 1
130 543 m 1
 123 543 117 546 111 549 c 1
 105 546 99 543 92 543 c 1
 99 543 105 540 111 537 c 1
 117 540 123 543 130 543 c 1
130 629 m 1x34
 123 629 117 631 111 634 c 1
 105 631 99 629 92 629 c 1
 99 629 105 626 111 623 c 1
 117 626 123 629 130 629 c 1x34
130 714 m 1
 123 714 117 717 111 720 c 1
 105 717 99 714 92 714 c 1
 99 714 105 712 111 709 c 1
 117 712 123 714 130 714 c 1
EndSplineSet
EndChar

StartChar: D
Encoding: 68 68 41
Width: 522
VWidth: 0
UnlinkRmOvrlpSave: 1
Flags: W
HStem: 200 86<52.6424 110.718 111.282 153.717 154.282 173 177 196.717 197.282 216 220 239.717 240.282 281.718 282.283 324.718 325.283 367.718 368.283 427.358> 286 85<137.853 173 177 196.718 197.281 216 220 255.147 395.58 430 435 453.717 454.282 473 477 512.358> 457 86<137.853 173 177 196.718 197.281 216 220 255.147 395.58 430 435 453.719 454.281 473 477 512.147> 629 85<137.853 173 177 196.718 197.281 216 220 255.147 395.58 430 435 453.717 454.282 473 477 512.358> 714 86<52.6424 110.718 111.282 153.717 154.282 173 177 196.717 197.282 216 220 239.717 240.282 281.718 282.283 324.718 325.283 367.718 368.283 427.358>
VStem: 132 129<291.784 365.448 377.304 450.696 463.304 536.696 549.304 622.696 634.552 708.216> 390 128<291.642 365.448 377.304 450.696 463.304 536.696 549.304 622.696 634.552 708.358>
LayerCount: 2
Back
Fore
SplineSet
433 243 m 0xa6
 433 219 414 200 390 200 c 0
 382 200 374 202 368 206 c 1
 362 202 355 200 347 200 c 0
 339 200 331 202 325 206 c 1
 319 202 312 200 304 200 c 0
 296 200 288 202 282 206 c 1
 276 202 269 200 261 200 c 0
 253 200 246 202 240 206 c 1
 234 202 226 200 218 200 c 0
 210 200 203 202 197 206 c 1
 191 202 183 200 175 200 c 0
 167 200 160 202 154 206 c 1
 148 202 140 200 132 200 c 0
 124 200 117 202 111 206 c 1
 105 202 98 200 90 200 c 0
 66 200 47 219 47 243 c 0
 47 267 66 286 90 286 c 0
 98 286 105 284 111 280 c 1
 117 284 124 286 132 286 c 0
 140 286 148 284 154 280 c 1
 160 283 166 286 173 286 c 1xa6
 150 287 132 306 132 329 c 0
 132 352 150 370 173 371 c 1
 150 372 132 391 132 414 c 0
 132 437 150 456 173 457 c 1
 150 458 132 477 132 500 c 1
 132 523 150 542 173 543 c 1
 150 544 132 563 132 586 c 0
 132 609 150 628 173 629 c 1
 150 630 132 648 132 671 c 0
 132 694 150 713 173 714 c 1x76
 166 714 160 717 154 720 c 1
 148 716 140 714 132 714 c 0
 124 714 117 716 111 720 c 1
 105 716 98 714 90 714 c 0
 66 714 47 733 47 757 c 0
 47 781 66 800 90 800 c 0
 98 800 105 798 111 794 c 1
 117 798 124 800 132 800 c 0
 140 800 148 798 154 794 c 1
 160 798 167 800 175 800 c 0
 183 800 191 798 197 794 c 1
 203 798 210 800 218 800 c 0
 226 800 234 798 240 794 c 1
 246 798 253 800 261 800 c 0
 269 800 276 798 282 794 c 1
 288 798 296 800 304 800 c 0
 312 800 319 798 325 794 c 1
 331 798 339 800 347 800 c 0
 355 800 362 798 368 794 c 1
 374 798 382 800 390 800 c 0
 414 800 433 781 433 757 c 0
 433 733 414 714 390 714 c 0
 382 714 374 716 368 720 c 1
 362 716 355 714 347 714 c 0
 339 714 331 716 325 720 c 1
 319 716 312 714 304 714 c 0
 296 714 288 716 282 720 c 1
 276 716 269 714 261 714 c 0x2e
 253 714 246 716 240 720 c 1
 234 717 227 714 220 714 c 1
 243 713 261 694 261 671 c 1
 261 648 243 630 220 629 c 1
 243 628 261 609 261 586 c 1
 261 563 243 544 220 543 c 1
 243 542 261 523 261 500 c 1
 261 477 243 458 220 457 c 1
 243 456 261 437 261 414 c 1
 261 391 243 372 220 371 c 1x76
 243 370 261 352 261 329 c 0
 261 306 243 287 220 286 c 1
 227 286 234 283 240 280 c 1
 246 284 253 286 261 286 c 0
 269 286 276 284 282 280 c 1
 288 284 296 286 304 286 c 0
 312 286 319 284 325 280 c 1
 331 284 339 286 347 286 c 0
 355 286 362 284 368 280 c 1
 374 284 382 286 390 286 c 0
 414 286 433 267 433 243 c 0xa6
518 329 m 0
 518 305 499 286 475 286 c 0
 467 286 460 287 454 291 c 1
 448 287 440 286 432 286 c 0
 408 286 390 305 390 329 c 0
 390 352 407 370 430 371 c 1
 407 372 390 391 390 414 c 0
 390 437 407 456 430 457 c 1
 407 458 390 477 390 500 c 0
 390 523 407 542 430 543 c 1
 407 544 390 563 390 586 c 0
 390 609 407 628 430 629 c 1x76
 407 630 390 648 390 671 c 1
 390 695 408 714 432 714 c 0
 440 714 448 713 454 709 c 1
 460 713 467 714 475 714 c 0x2e
 499 714 518 695 518 671 c 0
 518 648 500 630 477 629 c 1
 500 628 518 609 518 586 c 1
 518 563 500 544 477 543 c 1
 500 542 518 523 518 500 c 0
 518 477 500 458 477 457 c 1
 500 456 518 437 518 414 c 0
 518 391 500 372 477 371 c 1x76
 500 370 518 352 518 329 c 0
216 286 m 1xa6
 209 286 203 288 197 291 c 1
 191 288 184 286 177 286 c 1
 184 286 191 283 197 280 c 1
 203 283 209 286 216 286 c 1xa6
473 371 m 1x66
 466 371 460 374 454 377 c 1
 448 374 442 371 435 371 c 1
 442 371 448 369 454 366 c 1
 460 369 466 371 473 371 c 1x66
216 371 m 1
 209 371 203 374 197 377 c 1
 191 374 184 371 177 371 c 1
 184 371 191 369 197 366 c 1
 203 369 209 371 216 371 c 1
473 457 m 1
 466 457 460 460 454 463 c 1
 448 460 442 457 435 457 c 1
 442 457 448 454 454 451 c 1
 460 454 466 457 473 457 c 1
216 457 m 1
 209 457 203 460 197 463 c 1
 191 460 184 457 177 457 c 1
 184 457 191 454 197 451 c 1
 203 454 209 457 216 457 c 1
473 543 m 1
 466 543 460 546 454 549 c 1
 448 546 442 543 435 543 c 1
 442 543 448 540 454 537 c 1
 460 540 466 543 473 543 c 1
216 543 m 1
 209 543 203 546 197 549 c 1
 191 546 184 543 177 543 c 1
 184 543 191 540 197 537 c 1
 203 540 209 543 216 543 c 1
473 629 m 1x36
 466 629 460 631 454 634 c 1
 448 631 442 629 435 629 c 1
 442 629 448 626 454 623 c 1
 460 626 466 629 473 629 c 1x36
216 629 m 1
 209 629 203 631 197 634 c 1
 191 631 184 629 177 629 c 1
 184 629 191 626 197 623 c 1
 203 626 209 629 216 629 c 1
216 714 m 1
 209 714 203 717 197 720 c 1
 191 717 184 714 177 714 c 1
 184 714 191 712 197 709 c 1
 203 712 209 714 216 714 c 1
EndSplineSet
EndChar

StartChar: G
Encoding: 71 71 42
Width: 522
VWidth: 0
UnlinkRmOvrlpSave: 1
Flags: W
HStem: 200 86<137.642 196.717 197.282 239.717 240.282 281.718 282.283 324.718 325.283 367.718 368.283 410.718 411.282 430 435 453.717 454.282 473 477 512.147> 286 85<52.6424 87 92 110.718 111.282 130 135 169.42 395.58 430 435 453.719 454.281 473 477 512.147> 457 86<52.5796 87 92 110.719 111.281 130 135 169.42 309.642 367.718 368.283 410.718 411.282 430 435 453.717 454.282 473 477 512.147> 629 85<52.6424 87 92 110.718 111.282 130 135 169.358> 714 86<137.642 196.717 197.282 239.717 240.282 281.718 282.283 324.718 325.283 367.718 368.283 410.718 411.282 453.717 454.282 512.358>
VStem: 47 128<291.642 365.928 377.304 450.696 463.304 536.696 549.304 622.696 634.072 708.358> 304 214<463.304 536.833> 390 128<291.784 365.448 377.304 450.696>
LayerCount: 2
Back
Fore
SplineSet
518 243 m 0xa5
 518 219 499 200 475 200 c 0
 467 200 460 202 454 206 c 1
 448 202 440 200 432 200 c 0
 424 200 417 202 411 206 c 1
 405 202 398 200 390 200 c 0xa5
 382 200 374 202 368 206 c 1
 362 202 355 200 347 200 c 0
 339 200 331 202 325 206 c 1
 319 202 312 200 304 200 c 0
 296 200 288 202 282 206 c 1
 276 202 269 200 261 200 c 0
 253 200 246 202 240 206 c 1
 234 202 226 200 218 200 c 0
 210 200 203 202 197 206 c 1
 191 202 183 200 175 200 c 0
 151 200 132 219 132 243 c 0
 132 267 151 286 175 286 c 0
 183 286 191 284 197 280 c 1
 203 284 210 286 218 286 c 0
 226 286 234 284 240 280 c 1
 246 284 253 286 261 286 c 0
 269 286 276 284 282 280 c 1
 288 284 296 286 304 286 c 0xa6
 312 286 319 284 325 280 c 1
 331 284 339 286 347 286 c 0
 355 286 362 284 368 280 c 1
 374 284 382 286 390 286 c 0
 398 286 405 284 411 280 c 1
 417 283 423 286 430 286 c 1xa5
 407 287 390 306 390 329 c 0
 390 352 407 370 430 371 c 1
 407 372 390 391 390 414 c 0
 390 437 407 456 430 457 c 1
 423 457 417 460 411 463 c 1
 405 459 398 457 390 457 c 0x65
 382 457 374 459 368 463 c 1
 362 459 355 457 347 457 c 0
 323 457 304 476 304 500 c 0x66
 304 524 323 543 347 543 c 0
 355 543 362 541 368 537 c 1
 374 541 382 543 390 543 c 0x65
 398 543 405 541 411 537 c 1
 417 541 424 543 432 543 c 0
 440 543 448 541 454 537 c 1
 460 541 467 543 475 543 c 0
 499 543 518 524 518 500 c 0x66
 518 477 500 458 477 457 c 1
 500 456 518 437 518 414 c 0
 518 391 500 372 477 371 c 1x65
 500 370 518 352 518 329 c 0
 518 306 500 287 477 286 c 1
 500 285 518 266 518 243 c 0xa5
175 329 m 0
 175 305 156 286 132 286 c 0
 124 286 117 287 111 291 c 1
 105 287 98 286 90 286 c 0
 66 286 47 305 47 329 c 0
 47 352 64 370 87 371 c 1
 64 372 47 391 47 414 c 0
 47 437 64 456 87 457 c 1
 64 458 47 477 47 500 c 1
 47 523 64 542 87 543 c 1
 64 544 47 563 47 586 c 0
 47 609 64 628 87 629 c 1x74
 64 630 47 648 47 671 c 0
 47 695 66 714 90 714 c 0
 98 714 105 713 111 709 c 1
 117 713 124 714 132 714 c 0x2c
 156 714 175 695 175 671 c 0
 175 648 158 630 135 629 c 1
 158 628 175 609 175 586 c 1
 175 563 158 544 135 543 c 1
 158 542 175 523 175 500 c 1
 175 477 158 458 135 457 c 1
 158 456 175 437 175 414 c 1
 175 391 158 372 135 371 c 1x74
 158 370 175 352 175 329 c 0
518 757 m 0x2d
 518 733 499 714 475 714 c 0
 467 714 460 716 454 720 c 1
 448 716 440 714 432 714 c 0
 424 714 417 716 411 720 c 1
 405 716 398 714 390 714 c 0x2d
 382 714 374 716 368 720 c 1
 362 716 355 714 347 714 c 0
 339 714 331 716 325 720 c 1
 319 716 312 714 304 714 c 0
 296 714 288 716 282 720 c 1
 276 716 269 714 261 714 c 0
 253 714 246 716 240 720 c 1
 234 716 226 714 218 714 c 0
 210 714 203 716 197 720 c 1
 191 716 183 714 175 714 c 0
 151 714 132 733 132 757 c 0
 132 781 151 800 175 800 c 0
 183 800 191 798 197 794 c 1
 203 798 210 800 218 800 c 0
 226 800 234 798 240 794 c 1
 246 798 253 800 261 800 c 0
 269 800 276 798 282 794 c 1
 288 798 296 800 304 800 c 0x2e
 312 800 319 798 325 794 c 1
 331 798 339 800 347 800 c 0
 355 800 362 798 368 794 c 1
 374 798 382 800 390 800 c 0
 398 800 405 798 411 794 c 1
 417 798 424 800 432 800 c 0
 440 800 448 798 454 794 c 1
 460 798 467 800 475 800 c 0
 499 800 518 781 518 757 c 0x2d
473 286 m 1xa4
 466 286 460 288 454 291 c 1
 448 288 442 286 435 286 c 1
 442 286 448 283 454 280 c 1
 460 283 466 286 473 286 c 1xa4
473 371 m 1x64
 466 371 460 374 454 377 c 1
 448 374 442 371 435 371 c 1
 442 371 448 369 454 366 c 1
 460 369 466 371 473 371 c 1x64
130 371 m 1
 123 371 117 374 111 377 c 1
 105 374 99 371 92 371 c 1
 99 371 105 369 111 366 c 1
 117 369 123 371 130 371 c 1
473 457 m 1
 466 457 460 460 454 463 c 1
 448 460 442 457 435 457 c 1
 442 457 448 454 454 451 c 1
 460 454 466 457 473 457 c 1
130 457 m 1
 123 457 117 460 111 463 c 1
 105 460 99 457 92 457 c 1
 99 457 105 454 111 451 c 1
 117 454 123 457 130 457 c 1
130 543 m 1
 123 543 117 546 111 549 c 1
 105 546 99 543 92 543 c 1
 99 543 105 540 111 537 c 1
 117 540 123 543 130 543 c 1
130 629 m 1x34
 123 629 117 631 111 634 c 1
 105 631 99 629 92 629 c 1
 99 629 105 626 111 623 c 1
 117 626 123 629 130 629 c 1x34
EndSplineSet
EndChar

StartChar: F
Encoding: 70 70 43
Width: 522
VWidth: 0
UnlinkRmOvrlpSave: 1
Flags: W
HStem: 286 85<52.5796 87 92 110.719 111.281 130 135 169.42> 457 86<52.5796 87 92 110.719 111.281 130 135 153.719 154.282 196.717 197.282 239.717 240.282 281.718 282.283 341.358> 629 85<52.5796 87 92 110.719 111.281 130 135 169.42> 714 86<52.6424 87 92 110.718 111.282 130 135 153.717 154.282 196.717 197.282 239.717 240.282 281.718 282.283 324.718 325.283 367.718 368.283 410.718 411.282 453.717 454.282 512.358>
VStem: 47 128<206.167 279.696 291.284 365.928 377.304 450.696 549.304 622.696 634.072 708.716>
LayerCount: 2
Back
Fore
SplineSet
175 243 m 0xe8
 175 219 156 200 132 200 c 0
 124 200 117 202 111 206 c 1
 105 202 98 200 90 200 c 0
 66 200 47 219 47 243 c 0
 47 266 64 285 87 286 c 1
 64 287 47 306 47 329 c 0
 47 352 64 370 87 371 c 1
 64 372 47 391 47 414 c 0
 47 437 64 456 87 457 c 1
 64 458 47 477 47 500 c 1
 47 523 64 542 87 543 c 1
 64 544 47 563 47 586 c 0
 47 609 64 628 87 629 c 1
 64 630 47 648 47 671 c 0
 47 694 64 713 87 714 c 1xe8
 64 715 47 734 47 757 c 0
 47 781 66 800 90 800 c 0
 98 800 105 798 111 794 c 1
 117 798 124 800 132 800 c 0
 140 800 148 798 154 794 c 1
 160 798 167 800 175 800 c 0
 183 800 191 798 197 794 c 1
 203 798 210 800 218 800 c 0
 226 800 234 798 240 794 c 1
 246 798 253 800 261 800 c 0
 269 800 276 798 282 794 c 1
 288 798 296 800 304 800 c 0
 312 800 319 798 325 794 c 1
 331 798 339 800 347 800 c 0
 355 800 362 798 368 794 c 1
 374 798 382 800 390 800 c 0
 398 800 405 798 411 794 c 1
 417 798 424 800 432 800 c 0
 440 800 448 798 454 794 c 1
 460 798 467 800 475 800 c 0
 499 800 518 781 518 757 c 0
 518 733 499 714 475 714 c 0
 467 714 460 716 454 720 c 1
 448 716 440 714 432 714 c 0
 424 714 417 716 411 720 c 1
 405 716 398 714 390 714 c 0
 382 714 374 716 368 720 c 1
 362 716 355 714 347 714 c 0
 339 714 331 716 325 720 c 1
 319 716 312 714 304 714 c 0
 296 714 288 716 282 720 c 1
 276 716 269 714 261 714 c 0
 253 714 246 716 240 720 c 1
 234 716 226 714 218 714 c 0
 210 714 203 716 197 720 c 1
 191 716 183 714 175 714 c 0xd8
 167 714 160 716 154 720 c 1
 148 717 142 714 135 714 c 1
 158 713 175 694 175 671 c 1
 175 648 158 630 135 629 c 1
 158 628 175 609 175 586 c 1
 175 563 158 544 135 543 c 1
 142 543 148 540 154 537 c 1
 160 541 167 543 175 543 c 0
 183 543 191 541 197 537 c 1
 203 541 210 543 218 543 c 0
 226 543 234 541 240 537 c 1
 246 541 253 543 261 543 c 0
 269 543 276 541 282 537 c 1
 288 541 296 543 304 543 c 0
 328 543 347 524 347 500 c 0
 347 476 328 457 304 457 c 0
 296 457 288 459 282 463 c 1
 276 459 269 457 261 457 c 0
 253 457 246 459 240 463 c 1
 234 459 226 457 218 457 c 0
 210 457 203 459 197 463 c 1
 191 459 183 457 175 457 c 0
 167 457 160 459 154 463 c 1
 148 460 142 457 135 457 c 1
 158 456 175 437 175 414 c 1
 175 391 158 372 135 371 c 1
 158 370 175 352 175 329 c 0
 175 306 158 287 135 286 c 1
 158 285 175 266 175 243 c 0xe8
130 286 m 1
 123 286 117 288 111 291 c 1
 105 288 99 286 92 286 c 1
 99 286 105 283 111 280 c 1
 117 283 123 286 130 286 c 1
130 371 m 1
 123 371 117 374 111 377 c 1
 105 374 99 371 92 371 c 1
 99 371 105 369 111 366 c 1
 117 369 123 371 130 371 c 1
130 457 m 1
 123 457 117 460 111 463 c 1
 105 460 99 457 92 457 c 1
 99 457 105 454 111 451 c 1
 117 454 123 457 130 457 c 1
130 543 m 1
 123 543 117 546 111 549 c 1
 105 546 99 543 92 543 c 1
 99 543 105 540 111 537 c 1
 117 540 123 543 130 543 c 1
130 629 m 1
 123 629 117 631 111 634 c 1
 105 631 99 629 92 629 c 1
 99 629 105 626 111 623 c 1
 117 626 123 629 130 629 c 1
130 714 m 1
 123 714 117 717 111 720 c 1
 105 717 99 714 92 714 c 1
 99 714 105 712 111 709 c 1
 117 712 123 714 130 714 c 1
EndSplineSet
EndChar

StartChar: I
Encoding: 73 73 44
Width: 522
VWidth: 0
UnlinkRmOvrlpSave: 1
Flags: W
HStem: 200 86<52.6424 111.717 112.282 154.717 155.282 174 178 196.718 197.283 217 221 239.718 240.283 282.718 283.283 342.358> 286 85<138.853 174 178 196.719 197.282 217 221 256.147> 457 86<138.853 174 178 196.719 197.282 217 221 256.147> 629 85<138.853 174 178 196.719 197.282 217 221 256.147> 714 86<52.6424 111.717 112.282 154.717 155.282 174 178 196.718 197.283 217 221 239.718 240.283 282.718 283.283 342.358>
VStem: 133 129<291.784 365.448 377.304 450.696 463.304 536.696 549.304 622.696 634.552 708.216>
LayerCount: 2
Back
Fore
SplineSet
348 243 m 0xa4
 348 219 329 200 305 200 c 0
 297 200 289 202 283 206 c 1
 277 202 270 200 262 200 c 0
 254 200 246 202 240 206 c 1
 234 202 227 200 219 200 c 0
 211 200 203 202 197 206 c 1
 191 202 184 200 176 200 c 0
 168 200 161 202 155 206 c 1
 149 202 141 200 133 200 c 0
 125 200 118 202 112 206 c 1
 106 202 98 200 90 200 c 0
 66 200 47 219 47 243 c 0
 47 267 66 286 90 286 c 0
 98 286 106 284 112 280 c 1
 118 284 125 286 133 286 c 0
 141 286 149 284 155 280 c 1
 161 283 167 286 174 286 c 1xa4
 151 287 133 306 133 329 c 0
 133 352 151 370 174 371 c 1
 151 372 133 391 133 414 c 0
 133 437 151 456 174 457 c 1
 151 458 133 477 133 500 c 1
 133 523 151 542 174 543 c 1
 151 544 133 563 133 586 c 0
 133 609 151 628 174 629 c 1
 151 630 133 648 133 671 c 0
 133 694 151 713 174 714 c 1x74
 167 714 161 717 155 720 c 1
 149 716 141 714 133 714 c 0
 125 714 118 716 112 720 c 1
 106 716 98 714 90 714 c 0
 66 714 47 733 47 757 c 0
 47 781 66 800 90 800 c 0
 98 800 106 798 112 794 c 1
 118 798 125 800 133 800 c 0
 141 800 149 798 155 794 c 1
 161 798 168 800 176 800 c 0
 184 800 191 798 197 794 c 1
 203 798 211 800 219 800 c 0
 227 800 234 798 240 794 c 1
 246 798 254 800 262 800 c 0
 270 800 277 798 283 794 c 1
 289 798 297 800 305 800 c 0
 329 800 348 781 348 757 c 0
 348 733 329 714 305 714 c 0
 297 714 289 716 283 720 c 1
 277 716 270 714 262 714 c 0x2c
 254 714 246 716 240 720 c 1
 234 717 228 714 221 714 c 1
 244 713 262 694 262 671 c 1
 262 648 244 630 221 629 c 1
 244 628 262 609 262 586 c 1
 262 563 244 544 221 543 c 1
 244 542 262 523 262 500 c 0
 262 477 244 458 221 457 c 1
 244 456 262 437 262 414 c 0
 262 391 244 372 221 371 c 1x74
 244 370 262 352 262 329 c 0
 262 306 244 287 221 286 c 1
 228 286 234 283 240 280 c 1
 246 284 254 286 262 286 c 0
 270 286 277 284 283 280 c 1
 289 284 297 286 305 286 c 0
 329 286 348 267 348 243 c 0xa4
217 286 m 1
 210 286 203 288 197 291 c 1
 191 288 185 286 178 286 c 1
 185 286 191 283 197 280 c 1
 203 283 210 286 217 286 c 1
217 371 m 1x64
 210 371 203 374 197 377 c 1
 191 374 185 371 178 371 c 1
 185 371 191 369 197 366 c 1
 203 369 210 371 217 371 c 1x64
217 457 m 1
 210 457 203 460 197 463 c 1
 191 460 185 457 178 457 c 1
 185 457 191 454 197 451 c 1
 203 454 210 457 217 457 c 1
217 543 m 1
 210 543 203 546 197 549 c 1
 191 546 185 543 178 543 c 1
 185 543 191 540 197 537 c 1
 203 540 210 543 217 543 c 1
217 629 m 1x34
 210 629 203 631 197 634 c 1
 191 631 185 629 178 629 c 1
 185 629 191 626 197 623 c 1
 203 626 210 629 217 629 c 1x34
217 714 m 1
 210 714 203 717 197 720 c 1
 191 717 185 714 178 714 c 1
 185 714 191 712 197 709 c 1
 203 712 210 714 217 714 c 1
EndSplineSet
EndChar

StartChar: H
Encoding: 72 72 45
Width: 522
VWidth: 0
UnlinkRmOvrlpSave: 1
Flags: W
HStem: 286 85<52.5796 87 92 110.719 111.281 130 135 169.42 395.58 430 435 453.719 454.281 473 477 512.147> 457 86<52.5796 87 92 110.719 111.281 130 135 153.719 154.282 196.717 197.282 239.717 240.282 281.718 282.283 324.718 325.283 367.718 368.283 410.718 411.281 430 435 453.719 454.281 473 477 512.147> 629 85<52.5796 87 92 110.719 111.281 130 135 169.42 395.58 430 435 453.719 454.281 473 477 512.147>
VStem: 47 128<206.167 279.696 291.284 365.928 377.304 450.696 549.304 622.696 634.072 708.716 720.304 793.833> 390 128<206.167 279.696 291.784 365.448 377.304 450.696 549.304 622.696 634.552 708.216 720.304 793.833>
CounterMasks: 1 e0
LayerCount: 2
Back
Fore
SplineSet
518 243 m 0
 518 219 499 200 475 200 c 0
 467 200 460 202 454 206 c 1
 448 202 440 200 432 200 c 0
 408 200 390 219 390 243 c 0
 390 266 407 285 430 286 c 1
 407 287 390 306 390 329 c 0
 390 352 407 370 430 371 c 1
 407 372 390 391 390 414 c 0
 390 437 407 456 430 457 c 1
 423 457 417 460 411 463 c 1
 405 459 398 457 390 457 c 0
 382 457 374 459 368 463 c 1
 362 459 355 457 347 457 c 0
 339 457 331 459 325 463 c 1
 319 459 312 457 304 457 c 0
 296 457 288 459 282 463 c 1
 276 459 269 457 261 457 c 0
 253 457 246 459 240 463 c 1
 234 459 226 457 218 457 c 0
 210 457 203 459 197 463 c 1
 191 459 183 457 175 457 c 0
 167 457 160 459 154 463 c 1
 148 460 142 457 135 457 c 1
 158 456 175 437 175 414 c 1
 175 391 158 372 135 371 c 1
 158 370 175 352 175 329 c 0
 175 306 158 287 135 286 c 1
 158 285 175 266 175 243 c 0
 175 219 156 200 132 200 c 0
 124 200 117 202 111 206 c 1
 105 202 98 200 90 200 c 0
 66 200 47 219 47 243 c 0
 47 266 64 285 87 286 c 1
 64 287 47 306 47 329 c 0
 47 352 64 370 87 371 c 1
 64 372 47 391 47 414 c 0
 47 437 64 456 87 457 c 1
 64 458 47 477 47 500 c 1
 47 523 64 542 87 543 c 1
 64 544 47 563 47 586 c 0
 47 609 64 628 87 629 c 1
 64 630 47 648 47 671 c 0
 47 694 64 713 87 714 c 1
 64 715 47 734 47 757 c 0
 47 781 66 800 90 800 c 0
 98 800 105 798 111 794 c 1
 117 798 124 800 132 800 c 0
 156 800 175 781 175 757 c 0
 175 734 158 715 135 714 c 1
 158 713 175 694 175 671 c 1
 175 648 158 630 135 629 c 1
 158 628 175 609 175 586 c 1
 175 563 158 544 135 543 c 1
 142 543 148 540 154 537 c 1
 160 541 167 543 175 543 c 0
 183 543 191 541 197 537 c 1
 203 541 210 543 218 543 c 0
 226 543 234 541 240 537 c 1
 246 541 253 543 261 543 c 0
 269 543 276 541 282 537 c 1
 288 541 296 543 304 543 c 0
 312 543 319 541 325 537 c 1
 331 541 339 543 347 543 c 0
 355 543 362 541 368 537 c 1
 374 541 382 543 390 543 c 0
 398 543 405 541 411 537 c 1
 417 540 423 543 430 543 c 1
 407 544 390 563 390 586 c 0
 390 609 407 628 430 629 c 1
 407 630 390 648 390 671 c 1
 390 694 407 713 430 714 c 1
 407 715 390 734 390 757 c 0
 390 781 408 800 432 800 c 0
 440 800 448 798 454 794 c 1
 460 798 467 800 475 800 c 0
 499 800 518 781 518 757 c 0
 518 734 500 715 477 714 c 1
 500 713 518 694 518 671 c 1
 518 648 500 630 477 629 c 1
 500 628 518 609 518 586 c 1
 518 563 500 544 477 543 c 1
 500 542 518 523 518 500 c 0
 518 477 500 458 477 457 c 1
 500 456 518 437 518 414 c 0
 518 391 500 372 477 371 c 1
 500 370 518 352 518 329 c 0
 518 306 500 287 477 286 c 1
 500 285 518 266 518 243 c 0
473 286 m 1
 466 286 460 288 454 291 c 1
 448 288 442 286 435 286 c 1
 442 286 448 283 454 280 c 1
 460 283 466 286 473 286 c 1
130 286 m 1
 123 286 117 288 111 291 c 1
 105 288 99 286 92 286 c 1
 99 286 105 283 111 280 c 1
 117 283 123 286 130 286 c 1
473 371 m 1
 466 371 460 374 454 377 c 1
 448 374 442 371 435 371 c 1
 442 371 448 369 454 366 c 1
 460 369 466 371 473 371 c 1
130 371 m 1
 123 371 117 374 111 377 c 1
 105 374 99 371 92 371 c 1
 99 371 105 369 111 366 c 1
 117 369 123 371 130 371 c 1
473 457 m 1
 466 457 460 460 454 463 c 1
 448 460 442 457 435 457 c 1
 442 457 448 454 454 451 c 1
 460 454 466 457 473 457 c 1
130 457 m 1
 123 457 117 460 111 463 c 1
 105 460 99 457 92 457 c 1
 99 457 105 454 111 451 c 1
 117 454 123 457 130 457 c 1
473 543 m 1
 466 543 460 546 454 549 c 1
 448 546 442 543 435 543 c 1
 442 543 448 540 454 537 c 1
 460 540 466 543 473 543 c 1
130 543 m 1
 123 543 117 546 111 549 c 1
 105 546 99 543 92 543 c 1
 99 543 105 540 111 537 c 1
 117 540 123 543 130 543 c 1
473 629 m 1
 466 629 460 631 454 634 c 1
 448 631 442 629 435 629 c 1
 442 629 448 626 454 623 c 1
 460 626 466 629 473 629 c 1
130 629 m 1
 123 629 117 631 111 634 c 1
 105 631 99 629 92 629 c 1
 99 629 105 626 111 623 c 1
 117 626 123 629 130 629 c 1
473 714 m 1
 466 714 460 717 454 720 c 1
 448 717 442 714 435 714 c 1
 442 714 448 712 454 709 c 1
 460 712 466 714 473 714 c 1
130 714 m 1
 123 714 117 717 111 720 c 1
 105 717 99 714 92 714 c 1
 99 714 105 712 111 709 c 1
 117 712 123 714 130 714 c 1
EndSplineSet
EndChar

StartChar: K
Encoding: 75 75 46
Width: 522
VWidth: 0
UnlinkRmOvrlpSave: 1
Flags: W
HStem: 200 86<52.6424 87 92 110.718 111.282 130 135 169.358 395.39 453.717 454.282 512.358> 286 85<52.5796 87 92 110.719 111.281 130 135 169.42 309.642 367.718 368.283 427.358> 371 86<52.5796 87 92 110.719 111.281 130 135 169.42 223.642 281.718 282.283 341.358> 457 86<52.5796 87 92 110.719 111.281 130 135 153.719 154.282 196.717 197.282 255.358> 543 86<52.5796 87 92 110.719 111.281 130 135 169.42 223.642 281.718 282.283 341.358> 629 85<52.5796 87 92 110.719 111.281 130 135 169.42 309.642 367.718 368.283 427.358> 714 86<52.6424 87 92 110.718 111.282 130 135 169.358 395.39 453.717 454.282 512.358>
VStem: 47 128<206.167 279.696 291.284 365.928 377.304 450.696 549.304 622.696 634.072 708.716 720.304 793.833> 218 129<377.167 450.833 549.167 622.833> 304 129<291.642 365.61 634.39 708.358> 390 128<206.167 279.833 720.167 793.833>
LayerCount: 2
Back
Fore
SplineSet
518 243 m 0x8120
 518 219 499 200 475 200 c 0
 467 200 460 202 454 206 c 1
 448 202 440 200 432 200 c 0
 408 200 390 219 390 243 c 0
 390 267 408 286 432 286 c 0
 440 286 448 284 454 280 c 1
 460 284 467 286 475 286 c 0
 499 286 518 267 518 243 c 0x8120
175 243 m 0
 175 219 156 200 132 200 c 0
 124 200 117 202 111 206 c 1
 105 202 98 200 90 200 c 0
 66 200 47 219 47 243 c 0
 47 266 64 285 87 286 c 1x8180
 64 287 47 306 47 329 c 0
 47 352 64 370 87 371 c 1x4180
 64 372 47 391 47 414 c 0
 47 437 64 456 87 457 c 1x2180
 64 458 47 477 47 500 c 1
 47 523 64 542 87 543 c 1x1180
 64 544 47 563 47 586 c 0
 47 609 64 628 87 629 c 1x0980
 64 630 47 648 47 671 c 0
 47 694 64 713 87 714 c 1x0580
 64 715 47 734 47 757 c 0
 47 781 66 800 90 800 c 0
 98 800 105 798 111 794 c 1
 117 798 124 800 132 800 c 0x0380
 156 800 175 781 175 757 c 0
 175 734 158 715 135 714 c 1x0580
 158 713 175 694 175 671 c 1
 175 648 158 630 135 629 c 1x0980
 158 628 175 609 175 586 c 1
 175 563 158 544 135 543 c 1
 142 543 148 540 154 537 c 1
 160 541 167 543 175 543 c 0
 183 543 191 541 197 537 c 1
 203 541 210 543 218 543 c 0
 242 543 261 524 261 500 c 0
 261 476 242 457 218 457 c 0
 210 457 203 459 197 463 c 1
 191 459 183 457 175 457 c 0x1180
 167 457 160 459 154 463 c 1
 148 460 142 457 135 457 c 1x2180
 158 456 175 437 175 414 c 1
 175 391 158 372 135 371 c 1x4180
 158 370 175 352 175 329 c 0
 175 306 158 287 135 286 c 1
 158 285 175 266 175 243 c 0
433 329 m 0x4140
 433 305 414 286 390 286 c 0
 382 286 374 287 368 291 c 1
 362 287 355 286 347 286 c 0x41a0
 323 286 304 305 304 329 c 0x4140
 304 353 323 371 347 371 c 0
 355 371 362 370 368 366 c 1
 374 370 382 371 390 371 c 0x41a0
 414 371 433 353 433 329 c 0x4140
347 414 m 0
 347 390 328 371 304 371 c 0x2140
 296 371 288 373 282 377 c 1
 276 373 269 371 261 371 c 0
 237 371 218 390 218 414 c 0x2180
 218 438 237 457 261 457 c 0
 269 457 276 455 282 451 c 1
 288 455 296 457 304 457 c 0x2140
 328 457 347 438 347 414 c 0
347 586 m 0x0980
 347 562 328 543 304 543 c 0x0940
 296 543 288 545 282 549 c 1
 276 545 269 543 261 543 c 0
 237 543 218 562 218 586 c 0x0980
 218 610 237 629 261 629 c 0
 269 629 276 627 282 623 c 1
 288 627 296 629 304 629 c 0x0940
 328 629 347 610 347 586 c 0x0980
433 671 m 0
 433 647 414 629 390 629 c 0
 382 629 374 630 368 634 c 1
 362 630 355 629 347 629 c 0x05a0
 323 629 304 647 304 671 c 0x0540
 304 695 323 714 347 714 c 0
 355 714 362 713 368 709 c 1
 374 713 382 714 390 714 c 0x05a0
 414 714 433 695 433 671 c 0
518 757 m 0
 518 733 499 714 475 714 c 0
 467 714 460 716 454 720 c 1
 448 716 440 714 432 714 c 0
 408 714 390 733 390 757 c 0
 390 781 408 800 432 800 c 0
 440 800 448 798 454 794 c 1
 460 798 467 800 475 800 c 0x0320
 499 800 518 781 518 757 c 0
130 286 m 1x81
 123 286 117 288 111 291 c 1
 105 288 99 286 92 286 c 1
 99 286 105 283 111 280 c 1
 117 283 123 286 130 286 c 1x81
130 371 m 1x41
 123 371 117 374 111 377 c 1
 105 374 99 371 92 371 c 1
 99 371 105 369 111 366 c 1
 117 369 123 371 130 371 c 1x41
130 457 m 1x21
 123 457 117 460 111 463 c 1
 105 460 99 457 92 457 c 1
 99 457 105 454 111 451 c 1
 117 454 123 457 130 457 c 1x21
130 543 m 1x11
 123 543 117 546 111 549 c 1
 105 546 99 543 92 543 c 1
 99 543 105 540 111 537 c 1
 117 540 123 543 130 543 c 1x11
130 629 m 1x09
 123 629 117 631 111 634 c 1
 105 631 99 629 92 629 c 1
 99 629 105 626 111 623 c 1
 117 626 123 629 130 629 c 1x09
130 714 m 1x05
 123 714 117 717 111 720 c 1
 105 717 99 714 92 714 c 1
 99 714 105 712 111 709 c 1
 117 712 123 714 130 714 c 1x05
EndSplineSet
EndChar

StartChar: J
Encoding: 74 74 47
Width: 522
VWidth: 0
UnlinkRmOvrlpSave: 1
Flags: W
HStem: 200 86<137.642 196.717 197.282 239.717 240.282 281.718 282.283 324.718 325.283 367.718 368.283 427.358> 286 85<52.6424 110.718 111.282 169.358 395.58 430 435 453.717 454.282 473 477 512.358> 371 86<395.58 430 435 453.719 454.281 473 477 512.147> 457 86<395.58 430 435 453.719 454.281 473 477 512.147> 629 85<395.58 430 435 453.719 454.281 473 477 512.147>
VStem: 47 128<291.642 365.61> 390 128<291.642 365.448 377.304 450.696 463.304 536.696 549.304 622.696 634.552 708.216 720.304 793.833>
LayerCount: 2
Back
Fore
SplineSet
433 243 m 0x8e
 433 219 414 200 390 200 c 0
 382 200 374 202 368 206 c 1
 362 202 355 200 347 200 c 0
 339 200 331 202 325 206 c 1
 319 202 312 200 304 200 c 0
 296 200 288 202 282 206 c 1
 276 202 269 200 261 200 c 0
 253 200 246 202 240 206 c 1
 234 202 226 200 218 200 c 0
 210 200 203 202 197 206 c 1
 191 202 183 200 175 200 c 0
 151 200 132 219 132 243 c 0
 132 267 151 286 175 286 c 0
 183 286 191 284 197 280 c 1
 203 284 210 286 218 286 c 0
 226 286 234 284 240 280 c 1
 246 284 253 286 261 286 c 0
 269 286 276 284 282 280 c 1
 288 284 296 286 304 286 c 0
 312 286 319 284 325 280 c 1
 331 284 339 286 347 286 c 0
 355 286 362 284 368 280 c 1
 374 284 382 286 390 286 c 0
 414 286 433 267 433 243 c 0x8e
518 329 m 0
 518 305 499 286 475 286 c 0
 467 286 460 287 454 291 c 1
 448 287 440 286 432 286 c 0
 408 286 390 305 390 329 c 0
 390 352 407 370 430 371 c 1x4e
 407 372 390 391 390 414 c 0
 390 437 407 456 430 457 c 1x2e
 407 458 390 477 390 500 c 0
 390 523 407 542 430 543 c 1
 407 544 390 563 390 586 c 0
 390 609 407 628 430 629 c 1
 407 630 390 648 390 671 c 1
 390 694 407 713 430 714 c 1
 407 715 390 734 390 757 c 0
 390 781 408 800 432 800 c 0
 440 800 448 798 454 794 c 1
 460 798 467 800 475 800 c 0
 499 800 518 781 518 757 c 0
 518 734 500 715 477 714 c 1
 500 713 518 694 518 671 c 1
 518 648 500 630 477 629 c 1
 500 628 518 609 518 586 c 1
 518 563 500 544 477 543 c 1x1e
 500 542 518 523 518 500 c 0
 518 477 500 458 477 457 c 1x2e
 500 456 518 437 518 414 c 0
 518 391 500 372 477 371 c 1x4e
 500 370 518 352 518 329 c 0
175 329 m 0
 175 305 156 286 132 286 c 0
 124 286 117 287 111 291 c 1
 105 287 98 286 90 286 c 0
 66 286 47 305 47 329 c 0
 47 353 66 371 90 371 c 0
 98 371 105 370 111 366 c 1
 117 370 124 371 132 371 c 0
 156 371 175 353 175 329 c 0
473 371 m 1
 466 371 460 374 454 377 c 1
 448 374 442 371 435 371 c 1
 442 371 448 369 454 366 c 1
 460 369 466 371 473 371 c 1
473 457 m 1x2e
 466 457 460 460 454 463 c 1
 448 460 442 457 435 457 c 1
 442 457 448 454 454 451 c 1
 460 454 466 457 473 457 c 1x2e
473 543 m 1x1e
 466 543 460 546 454 549 c 1
 448 546 442 543 435 543 c 1
 442 543 448 540 454 537 c 1
 460 540 466 543 473 543 c 1x1e
473 629 m 1
 466 629 460 631 454 634 c 1
 448 631 442 629 435 629 c 1
 442 629 448 626 454 623 c 1
 460 626 466 629 473 629 c 1
473 714 m 1
 466 714 460 717 454 720 c 1
 448 717 442 714 435 714 c 1
 442 714 448 712 454 709 c 1
 460 712 466 714 473 714 c 1
EndSplineSet
EndChar

StartChar: M
Encoding: 77 77 48
Width: 522
VWidth: 0
UnlinkRmOvrlpSave: 1
Flags: W
HStem: 286 85<52.5796 87 92 110.719 111.281 130 135 169.42 395.58 430 435 453.719 454.281 473 477 512.147> 457 86<52.5796 87 92 110.719 111.281 130 135 169.42 223.853 259 263 281.718 282.283 302 306 341.147 395.58 430 435 453.719 454.281 473 477 512.147> 543 86<52.5796 87 92 110.719 111.281 130 135 169.42 223.853 259 263 281.718 282.283 302 306 341.147 395.58 430 435 453.719 454.281 473 477 512.147> 629 85<52.5796 87 92 110.719 111.281 130 135 153.719 154.282 196.717 197.282 255.358 309.642 367.718 368.283 410.718 411.281 430 435 453.719 454.281 473 477 512.147>
VStem: 47 128<206.167 279.696 291.284 365.928 377.304 450.696 463.304 536.696 549.304 622.696 720.304 793.833> 218 129<463.167 536.696 549.304 622.833> 390 128<206.167 279.696 291.784 365.448 377.304 450.696 463.304 536.696 549.304 622.696 720.304 793.833>
CounterMasks: 1 0e
LayerCount: 2
Back
Fore
SplineSet
518 243 m 0xce
 518 219 499 200 475 200 c 0
 467 200 460 202 454 206 c 1
 448 202 440 200 432 200 c 0
 408 200 390 219 390 243 c 0
 390 266 407 285 430 286 c 1
 407 287 390 306 390 329 c 0
 390 352 407 370 430 371 c 1
 407 372 390 391 390 414 c 0
 390 437 407 456 430 457 c 1
 407 458 390 477 390 500 c 0
 390 523 407 542 430 543 c 1xce
 407 544 390 563 390 586 c 0
 390 609 407 628 430 629 c 1xae
 423 629 417 631 411 634 c 1
 405 630 398 629 390 629 c 0
 382 629 374 630 368 634 c 1
 362 630 355 629 347 629 c 0
 323 629 304 647 304 671 c 0
 304 695 323 714 347 714 c 0
 355 714 362 713 368 709 c 1
 374 713 382 714 390 714 c 0
 398 714 405 713 411 709 c 1
 417 712 423 714 430 714 c 1
 407 715 390 734 390 757 c 0
 390 781 408 800 432 800 c 0
 440 800 448 798 454 794 c 1
 460 798 467 800 475 800 c 0
 499 800 518 781 518 757 c 0
 518 734 500 715 477 714 c 1x9e
 500 713 518 694 518 671 c 1
 518 648 500 630 477 629 c 1xae
 500 628 518 609 518 586 c 1
 518 563 500 544 477 543 c 1
 500 542 518 523 518 500 c 0
 518 477 500 458 477 457 c 1
 500 456 518 437 518 414 c 0
 518 391 500 372 477 371 c 1
 500 370 518 352 518 329 c 0
 518 306 500 287 477 286 c 1
 500 285 518 266 518 243 c 0xce
175 243 m 0
 175 219 156 200 132 200 c 0
 124 200 117 202 111 206 c 1
 105 202 98 200 90 200 c 0
 66 200 47 219 47 243 c 0
 47 266 64 285 87 286 c 1
 64 287 47 306 47 329 c 0
 47 352 64 370 87 371 c 1
 64 372 47 391 47 414 c 0
 47 437 64 456 87 457 c 1
 64 458 47 477 47 500 c 1
 47 523 64 542 87 543 c 1xce
 64 544 47 563 47 586 c 0
 47 609 64 628 87 629 c 1xae
 64 630 47 648 47 671 c 0
 47 694 64 713 87 714 c 1
 64 715 47 734 47 757 c 0
 47 781 66 800 90 800 c 0
 98 800 105 798 111 794 c 1
 117 798 124 800 132 800 c 0
 156 800 175 781 175 757 c 0
 175 734 158 715 135 714 c 1
 142 714 148 712 154 709 c 1
 160 713 167 714 175 714 c 0
 183 714 191 713 197 709 c 1
 203 713 210 714 218 714 c 0
 242 714 261 695 261 671 c 0
 261 647 242 629 218 629 c 0
 210 629 203 630 197 634 c 1
 191 630 183 629 175 629 c 0x9e
 167 629 160 630 154 634 c 1
 148 631 142 629 135 629 c 1xae
 158 628 175 609 175 586 c 1
 175 563 158 544 135 543 c 1
 158 542 175 523 175 500 c 1
 175 477 158 458 135 457 c 1
 158 456 175 437 175 414 c 1
 175 391 158 372 135 371 c 1
 158 370 175 352 175 329 c 0
 175 306 158 287 135 286 c 1
 158 285 175 266 175 243 c 0
347 500 m 0
 347 476 328 457 304 457 c 0
 296 457 288 459 282 463 c 1
 276 459 269 457 261 457 c 0
 237 457 218 476 218 500 c 0
 218 523 236 542 259 543 c 1
 236 544 218 563 218 586 c 0
 218 610 237 629 261 629 c 0
 269 629 276 627 282 623 c 1
 288 627 296 629 304 629 c 0xde
 328 629 347 610 347 586 c 0
 347 563 329 544 306 543 c 1
 329 542 347 523 347 500 c 0
473 286 m 1
 466 286 460 288 454 291 c 1
 448 288 442 286 435 286 c 1
 442 286 448 283 454 280 c 1
 460 283 466 286 473 286 c 1
130 286 m 1
 123 286 117 288 111 291 c 1
 105 288 99 286 92 286 c 1
 99 286 105 283 111 280 c 1
 117 283 123 286 130 286 c 1
473 371 m 1
 466 371 460 374 454 377 c 1
 448 374 442 371 435 371 c 1
 442 371 448 369 454 366 c 1
 460 369 466 371 473 371 c 1
130 371 m 1
 123 371 117 374 111 377 c 1
 105 374 99 371 92 371 c 1
 99 371 105 369 111 366 c 1
 117 369 123 371 130 371 c 1
473 457 m 1
 466 457 460 460 454 463 c 1
 448 460 442 457 435 457 c 1
 442 457 448 454 454 451 c 1
 460 454 466 457 473 457 c 1
130 457 m 1
 123 457 117 460 111 463 c 1
 105 460 99 457 92 457 c 1
 99 457 105 454 111 451 c 1
 117 454 123 457 130 457 c 1
473 543 m 1
 466 543 460 546 454 549 c 1
 448 546 442 543 435 543 c 1
 442 543 448 540 454 537 c 1
 460 540 466 543 473 543 c 1
302 543 m 1
 295 543 288 546 282 549 c 1
 276 546 270 543 263 543 c 1
 270 543 276 540 282 537 c 1
 288 540 295 543 302 543 c 1
130 543 m 1
 123 543 117 546 111 549 c 1
 105 546 99 543 92 543 c 1
 99 543 105 540 111 537 c 1
 117 540 123 543 130 543 c 1
473 629 m 1xae
 466 629 460 631 454 634 c 1
 448 631 442 629 435 629 c 1
 442 629 448 626 454 623 c 1
 460 626 466 629 473 629 c 1xae
130 629 m 1
 123 629 117 631 111 634 c 1
 105 631 99 629 92 629 c 1
 99 629 105 626 111 623 c 1
 117 626 123 629 130 629 c 1
473 714 m 1x9e
 466 714 460 717 454 720 c 1
 448 717 442 714 435 714 c 1
 442 714 448 712 454 709 c 1
 460 712 466 714 473 714 c 1x9e
130 714 m 1
 123 714 117 717 111 720 c 1
 105 717 99 714 92 714 c 1
 99 714 105 712 111 709 c 1
 117 712 123 714 130 714 c 1
EndSplineSet
EndChar

StartChar: L
Encoding: 76 76 49
Width: 522
VWidth: 0
UnlinkRmOvrlpSave: 1
Flags: W
HStem: 200 86<52.6424 87 92 110.718 111.282 130 135 153.717 154.282 196.717 197.282 239.717 240.282 281.718 282.283 324.718 325.283 367.718 368.283 410.718 411.282 453.717 454.282 512.358> 286 85<52.5796 87 92 110.719 111.281 130 135 169.42> 457 86<52.5796 87 92 110.719 111.281 130 135 169.42> 629 85<52.5796 87 92 110.719 111.281 130 135 169.42>
VStem: 47 128<291.284 365.928 377.304 450.696 463.304 536.696 549.304 622.696 634.072 708.716 720.304 793.833>
LayerCount: 2
Back
Fore
SplineSet
518 243 m 0xb8
 518 219 499 200 475 200 c 0
 467 200 460 202 454 206 c 1
 448 202 440 200 432 200 c 0
 424 200 417 202 411 206 c 1
 405 202 398 200 390 200 c 0
 382 200 374 202 368 206 c 1
 362 202 355 200 347 200 c 0
 339 200 331 202 325 206 c 1
 319 202 312 200 304 200 c 0
 296 200 288 202 282 206 c 1
 276 202 269 200 261 200 c 0
 253 200 246 202 240 206 c 1
 234 202 226 200 218 200 c 0
 210 200 203 202 197 206 c 1
 191 202 183 200 175 200 c 0
 167 200 160 202 154 206 c 1
 148 202 140 200 132 200 c 0
 124 200 117 202 111 206 c 1
 105 202 98 200 90 200 c 0
 66 200 47 219 47 243 c 0
 47 266 64 285 87 286 c 1xb8
 64 287 47 306 47 329 c 0
 47 352 64 370 87 371 c 1
 64 372 47 391 47 414 c 0
 47 437 64 456 87 457 c 1
 64 458 47 477 47 500 c 1
 47 523 64 542 87 543 c 1
 64 544 47 563 47 586 c 0
 47 609 64 628 87 629 c 1
 64 630 47 648 47 671 c 0
 47 694 64 713 87 714 c 1
 64 715 47 734 47 757 c 0
 47 781 66 800 90 800 c 0
 98 800 105 798 111 794 c 1
 117 798 124 800 132 800 c 0
 156 800 175 781 175 757 c 0
 175 734 158 715 135 714 c 1
 158 713 175 694 175 671 c 1
 175 648 158 630 135 629 c 1
 158 628 175 609 175 586 c 1
 175 563 158 544 135 543 c 1
 158 542 175 523 175 500 c 1
 175 477 158 458 135 457 c 1
 158 456 175 437 175 414 c 1
 175 391 158 372 135 371 c 1x78
 158 370 175 352 175 329 c 0
 175 306 158 287 135 286 c 1
 142 286 148 283 154 280 c 1
 160 284 167 286 175 286 c 0
 183 286 191 284 197 280 c 1
 203 284 210 286 218 286 c 0
 226 286 234 284 240 280 c 1
 246 284 253 286 261 286 c 0
 269 286 276 284 282 280 c 1
 288 284 296 286 304 286 c 0
 312 286 319 284 325 280 c 1
 331 284 339 286 347 286 c 0
 355 286 362 284 368 280 c 1
 374 284 382 286 390 286 c 0
 398 286 405 284 411 280 c 1
 417 284 424 286 432 286 c 0
 440 286 448 284 454 280 c 1
 460 284 467 286 475 286 c 0
 499 286 518 267 518 243 c 0xb8
130 286 m 1
 123 286 117 288 111 291 c 1
 105 288 99 286 92 286 c 1
 99 286 105 283 111 280 c 1
 117 283 123 286 130 286 c 1
130 371 m 1x78
 123 371 117 374 111 377 c 1
 105 374 99 371 92 371 c 1
 99 371 105 369 111 366 c 1
 117 369 123 371 130 371 c 1x78
130 457 m 1
 123 457 117 460 111 463 c 1
 105 460 99 457 92 457 c 1
 99 457 105 454 111 451 c 1
 117 454 123 457 130 457 c 1
130 543 m 1
 123 543 117 546 111 549 c 1
 105 546 99 543 92 543 c 1
 99 543 105 540 111 537 c 1
 117 540 123 543 130 543 c 1
130 629 m 1
 123 629 117 631 111 634 c 1
 105 631 99 629 92 629 c 1
 99 629 105 626 111 623 c 1
 117 626 123 629 130 629 c 1
130 714 m 1
 123 714 117 717 111 720 c 1
 105 717 99 714 92 714 c 1
 99 714 105 712 111 709 c 1
 117 712 123 714 130 714 c 1
EndSplineSet
EndChar

StartChar: O
Encoding: 79 79 50
Width: 522
VWidth: 0
UnlinkRmOvrlpSave: 1
Flags: W
HStem: 200 86<52.6424 87 92 110.718 111.282 130 135 153.717 154.282 196.717 197.282 239.717 240.282 281.718 282.283 324.718 325.283 367.718 368.283 410.718 411.282 430 435 453.717 454.282 473 477 512.147> 286 85<52.5796 87 92 110.719 111.281 130 135 169.42 395.58 430 435 453.719 454.281 473 477 512.147> 457 86<52.5796 87 92 110.719 111.281 130 135 169.42 395.58 430 435 453.719 454.281 473 477 512.147> 629 85<52.5796 87 92 110.719 111.281 130 135 169.42 395.58 430 435 453.719 454.281 473 477 512.147> 714 86<52.6424 87 92 110.718 111.282 130 135 153.717 154.282 196.717 197.282 239.717 240.282 281.718 282.283 324.718 325.283 367.718 368.283 410.718 411.282 430 435 453.717 454.282 473 477 512.147>
VStem: 47 128<291.284 365.928 377.304 450.696 463.304 536.696 549.304 622.696 634.072 708.716> 390 128<291.784 365.448 377.304 450.696 463.304 536.696 549.304 622.696 634.552 708.216>
LayerCount: 2
Back
Fore
SplineSet
518 243 m 0xa6
 518 219 499 200 475 200 c 0
 467 200 460 202 454 206 c 1
 448 202 440 200 432 200 c 0
 424 200 417 202 411 206 c 1
 405 202 398 200 390 200 c 0
 382 200 374 202 368 206 c 1
 362 202 355 200 347 200 c 0
 339 200 331 202 325 206 c 1
 319 202 312 200 304 200 c 0
 296 200 288 202 282 206 c 1
 276 202 269 200 261 200 c 0
 253 200 246 202 240 206 c 1
 234 202 226 200 218 200 c 0
 210 200 203 202 197 206 c 1
 191 202 183 200 175 200 c 0
 167 200 160 202 154 206 c 1
 148 202 140 200 132 200 c 0
 124 200 117 202 111 206 c 1
 105 202 98 200 90 200 c 0
 66 200 47 219 47 243 c 0
 47 266 64 285 87 286 c 1xa6
 64 287 47 306 47 329 c 0
 47 352 64 370 87 371 c 1
 64 372 47 391 47 414 c 0
 47 437 64 456 87 457 c 1
 64 458 47 477 47 500 c 1
 47 523 64 542 87 543 c 1
 64 544 47 563 47 586 c 0
 47 609 64 628 87 629 c 1
 64 630 47 648 47 671 c 0
 47 694 64 713 87 714 c 1x76
 64 715 47 734 47 757 c 0
 47 781 66 800 90 800 c 0
 98 800 105 798 111 794 c 1
 117 798 124 800 132 800 c 0
 140 800 148 798 154 794 c 1
 160 798 167 800 175 800 c 0
 183 800 191 798 197 794 c 1
 203 798 210 800 218 800 c 0
 226 800 234 798 240 794 c 1
 246 798 253 800 261 800 c 0
 269 800 276 798 282 794 c 1
 288 798 296 800 304 800 c 0
 312 800 319 798 325 794 c 1
 331 798 339 800 347 800 c 0
 355 800 362 798 368 794 c 1
 374 798 382 800 390 800 c 0
 398 800 405 798 411 794 c 1
 417 798 424 800 432 800 c 0
 440 800 448 798 454 794 c 1
 460 798 467 800 475 800 c 0x2e
 499 800 518 781 518 757 c 0
 518 734 500 715 477 714 c 1
 500 713 518 694 518 671 c 1
 518 648 500 630 477 629 c 1
 500 628 518 609 518 586 c 1
 518 563 500 544 477 543 c 1
 500 542 518 523 518 500 c 0
 518 477 500 458 477 457 c 1
 500 456 518 437 518 414 c 0
 518 391 500 372 477 371 c 1x76
 500 370 518 352 518 329 c 0
 518 306 500 287 477 286 c 1
 500 285 518 266 518 243 c 0xa6
473 286 m 1
 466 286 460 288 454 291 c 1
 448 288 442 286 435 286 c 1
 442 286 448 283 454 280 c 1
 460 283 466 286 473 286 c 1
130 286 m 1
 123 286 117 288 111 291 c 1
 105 288 99 286 92 286 c 1
 99 286 105 283 111 280 c 1
 117 283 123 286 130 286 c 1
135 286 m 1
 142 286 148 283 154 280 c 1
 160 284 167 286 175 286 c 0
 183 286 191 284 197 280 c 1
 203 284 210 286 218 286 c 0
 226 286 234 284 240 280 c 1
 246 284 253 286 261 286 c 0
 269 286 276 284 282 280 c 1
 288 284 296 286 304 286 c 0
 312 286 319 284 325 280 c 1
 331 284 339 286 347 286 c 0
 355 286 362 284 368 280 c 1
 374 284 382 286 390 286 c 0
 398 286 405 284 411 280 c 1
 417 283 423 286 430 286 c 1xa6
 407 287 390 306 390 329 c 0
 390 352 407 370 430 371 c 1
 407 372 390 391 390 414 c 0
 390 437 407 456 430 457 c 1
 407 458 390 477 390 500 c 0
 390 523 407 542 430 543 c 1
 407 544 390 563 390 586 c 0
 390 609 407 628 430 629 c 1
 407 630 390 648 390 671 c 1
 390 694 407 713 430 714 c 1x76
 423 714 417 717 411 720 c 1
 405 716 398 714 390 714 c 0
 382 714 374 716 368 720 c 1
 362 716 355 714 347 714 c 0
 339 714 331 716 325 720 c 1
 319 716 312 714 304 714 c 0
 296 714 288 716 282 720 c 1
 276 716 269 714 261 714 c 0
 253 714 246 716 240 720 c 1
 234 716 226 714 218 714 c 0
 210 714 203 716 197 720 c 1
 191 716 183 714 175 714 c 0x2e
 167 714 160 716 154 720 c 1
 148 717 142 714 135 714 c 1
 158 713 175 694 175 671 c 1
 175 648 158 630 135 629 c 1
 158 628 175 609 175 586 c 1
 175 563 158 544 135 543 c 1
 158 542 175 523 175 500 c 1
 175 477 158 458 135 457 c 1
 158 456 175 437 175 414 c 1
 175 391 158 372 135 371 c 1x76
 158 370 175 352 175 329 c 0
 175 306 158 287 135 286 c 1
473 371 m 1x66
 466 371 460 374 454 377 c 1
 448 374 442 371 435 371 c 1
 442 371 448 369 454 366 c 1
 460 369 466 371 473 371 c 1x66
130 371 m 1
 123 371 117 374 111 377 c 1
 105 374 99 371 92 371 c 1
 99 371 105 369 111 366 c 1
 117 369 123 371 130 371 c 1
473 457 m 1
 466 457 460 460 454 463 c 1
 448 460 442 457 435 457 c 1
 442 457 448 454 454 451 c 1
 460 454 466 457 473 457 c 1
130 457 m 1
 123 457 117 460 111 463 c 1
 105 460 99 457 92 457 c 1
 99 457 105 454 111 451 c 1
 117 454 123 457 130 457 c 1
473 543 m 1
 466 543 460 546 454 549 c 1
 448 546 442 543 435 543 c 1
 442 543 448 540 454 537 c 1
 460 540 466 543 473 543 c 1
130 543 m 1
 123 543 117 546 111 549 c 1
 105 546 99 543 92 543 c 1
 99 543 105 540 111 537 c 1
 117 540 123 543 130 543 c 1
473 629 m 1x36
 466 629 460 631 454 634 c 1
 448 631 442 629 435 629 c 1
 442 629 448 626 454 623 c 1
 460 626 466 629 473 629 c 1x36
130 629 m 1
 123 629 117 631 111 634 c 1
 105 631 99 629 92 629 c 1
 99 629 105 626 111 623 c 1
 117 626 123 629 130 629 c 1
473 714 m 1
 466 714 460 717 454 720 c 1
 448 717 442 714 435 714 c 1
 442 714 448 712 454 709 c 1
 460 712 466 714 473 714 c 1
130 714 m 1
 123 714 117 717 111 720 c 1
 105 717 99 714 92 714 c 1
 99 714 105 712 111 709 c 1
 117 712 123 714 130 714 c 1
EndSplineSet
EndChar

StartChar: N
Encoding: 78 78 51
Width: 522
VWidth: 0
UnlinkRmOvrlpSave: 1
Flags: W
HStem: 286 85<52.5796 87 92 110.719 111.281 130 135 169.42 395.58 430 435 453.719 454.281 473 477 512.147> 457 86<52.5796 87 92 110.719 111.281 130 135 169.42 309.642 367.718 368.283 410.718 411.281 430 435 453.719 454.281 473 477 512.147> 543 86<52.5796 87 92 110.719 111.281 130 135 169.42 223.642 281.718 282.283 341.358 395.58 430 435 453.719 454.281 473 477 512.147> 629 85<52.5796 87 92 110.719 111.281 130 135 153.719 154.282 196.717 197.282 255.358 395.58 430 435 453.719 454.281 473 477 512.147>
VStem: 47 128<206.167 279.696 291.284 365.928 377.304 450.696 463.304 536.696 549.304 622.696 720.304 793.833> 218 129<549.167 622.833> 390 128<206.167 279.696 291.784 365.448 377.304 450.696 549.304 622.696 634.552 708.216 720.304 793.833>
CounterMasks: 1 0e
LayerCount: 2
Back
Fore
SplineSet
518 243 m 0xce
 518 219 499 200 475 200 c 0
 467 200 460 202 454 206 c 1
 448 202 440 200 432 200 c 0
 408 200 390 219 390 243 c 0
 390 266 407 285 430 286 c 1
 407 287 390 306 390 329 c 0
 390 352 407 370 430 371 c 1
 407 372 390 391 390 414 c 0
 390 437 407 456 430 457 c 1
 423 457 417 460 411 463 c 1
 405 459 398 457 390 457 c 0
 382 457 374 459 368 463 c 1
 362 459 355 457 347 457 c 0
 323 457 304 476 304 500 c 0
 304 524 323 543 347 543 c 0
 355 543 362 541 368 537 c 1
 374 541 382 543 390 543 c 0
 398 543 405 541 411 537 c 1
 417 540 423 543 430 543 c 1xce
 407 544 390 563 390 586 c 0
 390 609 407 628 430 629 c 1xae
 407 630 390 648 390 671 c 1
 390 694 407 713 430 714 c 1
 407 715 390 734 390 757 c 0
 390 781 408 800 432 800 c 0
 440 800 448 798 454 794 c 1
 460 798 467 800 475 800 c 0
 499 800 518 781 518 757 c 0
 518 734 500 715 477 714 c 1x9e
 500 713 518 694 518 671 c 1
 518 648 500 630 477 629 c 1xae
 500 628 518 609 518 586 c 1
 518 563 500 544 477 543 c 1
 500 542 518 523 518 500 c 0
 518 477 500 458 477 457 c 1
 500 456 518 437 518 414 c 0
 518 391 500 372 477 371 c 1
 500 370 518 352 518 329 c 0
 518 306 500 287 477 286 c 1
 500 285 518 266 518 243 c 0xce
175 243 m 0
 175 219 156 200 132 200 c 0
 124 200 117 202 111 206 c 1
 105 202 98 200 90 200 c 0
 66 200 47 219 47 243 c 0
 47 266 64 285 87 286 c 1
 64 287 47 306 47 329 c 0
 47 352 64 370 87 371 c 1
 64 372 47 391 47 414 c 0
 47 437 64 456 87 457 c 1
 64 458 47 477 47 500 c 1
 47 523 64 542 87 543 c 1xce
 64 544 47 563 47 586 c 0
 47 609 64 628 87 629 c 1xae
 64 630 47 648 47 671 c 0
 47 694 64 713 87 714 c 1
 64 715 47 734 47 757 c 0
 47 781 66 800 90 800 c 0
 98 800 105 798 111 794 c 1
 117 798 124 800 132 800 c 0
 156 800 175 781 175 757 c 0
 175 734 158 715 135 714 c 1
 142 714 148 712 154 709 c 1
 160 713 167 714 175 714 c 0
 183 714 191 713 197 709 c 1
 203 713 210 714 218 714 c 0
 242 714 261 695 261 671 c 0
 261 647 242 629 218 629 c 0
 210 629 203 630 197 634 c 1
 191 630 183 629 175 629 c 0x9e
 167 629 160 630 154 634 c 1
 148 631 142 629 135 629 c 1xae
 158 628 175 609 175 586 c 1
 175 563 158 544 135 543 c 1
 158 542 175 523 175 500 c 1
 175 477 158 458 135 457 c 1
 158 456 175 437 175 414 c 1
 175 391 158 372 135 371 c 1
 158 370 175 352 175 329 c 0
 175 306 158 287 135 286 c 1
 158 285 175 266 175 243 c 0
347 586 m 0
 347 562 328 543 304 543 c 0
 296 543 288 545 282 549 c 1
 276 545 269 543 261 543 c 0
 237 543 218 562 218 586 c 0
 218 610 237 629 261 629 c 0
 269 629 276 627 282 623 c 1
 288 627 296 629 304 629 c 0xae
 328 629 347 610 347 586 c 0
473 286 m 1
 466 286 460 288 454 291 c 1
 448 288 442 286 435 286 c 1
 442 286 448 283 454 280 c 1
 460 283 466 286 473 286 c 1
130 286 m 1
 123 286 117 288 111 291 c 1
 105 288 99 286 92 286 c 1
 99 286 105 283 111 280 c 1
 117 283 123 286 130 286 c 1
473 371 m 1
 466 371 460 374 454 377 c 1
 448 374 442 371 435 371 c 1
 442 371 448 369 454 366 c 1
 460 369 466 371 473 371 c 1
130 371 m 1
 123 371 117 374 111 377 c 1
 105 374 99 371 92 371 c 1
 99 371 105 369 111 366 c 1
 117 369 123 371 130 371 c 1
473 457 m 1xce
 466 457 460 460 454 463 c 1
 448 460 442 457 435 457 c 1
 442 457 448 454 454 451 c 1
 460 454 466 457 473 457 c 1xce
130 457 m 1
 123 457 117 460 111 463 c 1
 105 460 99 457 92 457 c 1
 99 457 105 454 111 451 c 1
 117 454 123 457 130 457 c 1
473 543 m 1
 466 543 460 546 454 549 c 1
 448 546 442 543 435 543 c 1
 442 543 448 540 454 537 c 1
 460 540 466 543 473 543 c 1
130 543 m 1
 123 543 117 546 111 549 c 1
 105 546 99 543 92 543 c 1
 99 543 105 540 111 537 c 1
 117 540 123 543 130 543 c 1
473 629 m 1xae
 466 629 460 631 454 634 c 1
 448 631 442 629 435 629 c 1
 442 629 448 626 454 623 c 1
 460 626 466 629 473 629 c 1xae
130 629 m 1
 123 629 117 631 111 634 c 1
 105 631 99 629 92 629 c 1
 99 629 105 626 111 623 c 1
 117 626 123 629 130 629 c 1
473 714 m 1x9e
 466 714 460 717 454 720 c 1
 448 717 442 714 435 714 c 1
 442 714 448 712 454 709 c 1
 460 712 466 714 473 714 c 1x9e
130 714 m 1
 123 714 117 717 111 720 c 1
 105 717 99 714 92 714 c 1
 99 714 105 712 111 709 c 1
 117 712 123 714 130 714 c 1
EndSplineSet
EndChar

StartChar: Q
Encoding: 81 81 52
Width: 522
VWidth: 0
UnlinkRmOvrlpSave: 1
Flags: W
HStem: 200 86<137.642 196.717 197.282 239.717 240.282 281.718 282.283 341.358 395.39 453.717 454.282 512.358> 286 85<52.6424 87 92 110.718 111.282 130 135 169.358 309.642 367.718 368.283 427.358> 371 86<52.5796 87 92 110.719 111.281 130 135 169.42 223.642 281.718 282.283 341.358 395.58 430 435 453.717 454.282 473 477 512.147> 457 86<52.5796 87 92 110.719 111.281 130 135 169.42 395.58 430 435 453.719 454.281 473 477 512.147> 629 85<52.6424 87 92 110.718 111.282 130 135 169.358 395.58 430 435 453.717 454.282 473 477 512.358> 714 86<137.642 196.717 197.282 239.717 240.282 281.718 282.283 324.718 325.283 367.718 368.283 427.358>
VStem: 47 128<291.642 365.928 377.304 450.696 463.304 536.696 549.304 622.696 634.072 708.358> 132 215<206.167 279.833> 218 129<377.167 450.833> 304 129<291.642 365.61> 390 128<206.167 279.833 377.167 450.696 463.304 536.696 549.304 622.696 634.552 708.358>
LayerCount: 2
Back
Fore
SplineSet
518 243 m 0x8020
 518 219 499 200 475 200 c 0
 467 200 460 202 454 206 c 1
 448 202 440 200 432 200 c 0
 408 200 390 219 390 243 c 0
 390 267 408 286 432 286 c 0
 440 286 448 284 454 280 c 1
 460 284 467 286 475 286 c 0
 499 286 518 267 518 243 c 0x8020
347 243 m 0x81
 347 219 328 200 304 200 c 0x8040
 296 200 288 202 282 206 c 1
 276 202 269 200 261 200 c 0
 253 200 246 202 240 206 c 1
 234 202 226 200 218 200 c 0
 210 200 203 202 197 206 c 1
 191 202 183 200 175 200 c 0x8280
 151 200 132 219 132 243 c 0x81
 132 267 151 286 175 286 c 0
 183 286 191 284 197 280 c 1
 203 284 210 286 218 286 c 0x8280
 226 286 234 284 240 280 c 1
 246 284 253 286 261 286 c 0
 269 286 276 284 282 280 c 1
 288 284 296 286 304 286 c 0x8040
 328 286 347 267 347 243 c 0x81
433 329 m 0
 433 305 414 286 390 286 c 0
 382 286 374 287 368 291 c 1
 362 287 355 286 347 286 c 0x40a0
 323 286 304 305 304 329 c 0x4040
 304 353 323 371 347 371 c 0
 355 371 362 370 368 366 c 1
 374 370 382 371 390 371 c 0x40a0
 414 371 433 353 433 329 c 0
175 329 m 0x42
 175 305 156 286 132 286 c 0x41
 124 286 117 287 111 291 c 1
 105 287 98 286 90 286 c 0
 66 286 47 305 47 329 c 0
 47 352 64 370 87 371 c 1x42
 64 372 47 391 47 414 c 0
 47 437 64 456 87 457 c 1x22
 64 458 47 477 47 500 c 1
 47 523 64 542 87 543 c 1
 64 544 47 563 47 586 c 0
 47 609 64 628 87 629 c 1
 64 630 47 648 47 671 c 0x1a
 47 695 66 714 90 714 c 0
 98 714 105 713 111 709 c 1
 117 713 124 714 132 714 c 0x05
 156 714 175 695 175 671 c 0
 175 648 158 630 135 629 c 1
 158 628 175 609 175 586 c 1
 175 563 158 544 135 543 c 1x1a
 158 542 175 523 175 500 c 1
 175 477 158 458 135 457 c 1x22
 158 456 175 437 175 414 c 1
 175 391 158 372 135 371 c 1
 158 370 175 352 175 329 c 0x42
518 414 m 0x2020
 518 390 499 371 475 371 c 0
 467 371 460 373 454 377 c 1
 448 373 440 371 432 371 c 0
 408 371 390 390 390 414 c 0
 390 437 407 456 430 457 c 1x2020
 407 458 390 477 390 500 c 0
 390 523 407 542 430 543 c 1
 407 544 390 563 390 586 c 0
 390 609 407 628 430 629 c 1x1820
 407 630 390 648 390 671 c 1
 390 695 408 714 432 714 c 0
 440 714 448 713 454 709 c 1
 460 713 467 714 475 714 c 0x0420
 499 714 518 695 518 671 c 0
 518 648 500 630 477 629 c 1
 500 628 518 609 518 586 c 1
 518 563 500 544 477 543 c 1x1820
 500 542 518 523 518 500 c 0
 518 477 500 458 477 457 c 1
 500 456 518 437 518 414 c 0x2020
347 414 m 0x2080
 347 390 328 371 304 371 c 0x2040
 296 371 288 373 282 377 c 1
 276 373 269 371 261 371 c 0
 237 371 218 390 218 414 c 0x2080
 218 438 237 457 261 457 c 0
 269 457 276 455 282 451 c 1
 288 455 296 457 304 457 c 0x2040
 328 457 347 438 347 414 c 0x2080
433 757 m 0
 433 733 414 714 390 714 c 0
 382 714 374 716 368 720 c 1
 362 716 355 714 347 714 c 0x04a0
 339 714 331 716 325 720 c 1
 319 716 312 714 304 714 c 0x0440
 296 714 288 716 282 720 c 1
 276 716 269 714 261 714 c 0
 253 714 246 716 240 720 c 1
 234 716 226 714 218 714 c 0
 210 714 203 716 197 720 c 1
 191 716 183 714 175 714 c 0x0680
 151 714 132 733 132 757 c 0x05
 132 781 151 800 175 800 c 0
 183 800 191 798 197 794 c 1
 203 798 210 800 218 800 c 0x0680
 226 800 234 798 240 794 c 1
 246 798 253 800 261 800 c 0
 269 800 276 798 282 794 c 1
 288 798 296 800 304 800 c 0x0440
 312 800 319 798 325 794 c 1
 331 798 339 800 347 800 c 0
 355 800 362 798 368 794 c 1
 374 798 382 800 390 800 c 0x04a0
 414 800 433 781 433 757 c 0
130 371 m 1x40
 123 371 117 374 111 377 c 1
 105 374 99 371 92 371 c 1
 99 371 105 369 111 366 c 1
 117 369 123 371 130 371 c 1x40
473 457 m 1x20
 466 457 460 460 454 463 c 1
 448 460 442 457 435 457 c 1
 442 457 448 454 454 451 c 1
 460 454 466 457 473 457 c 1x20
130 457 m 1
 123 457 117 460 111 463 c 1
 105 460 99 457 92 457 c 1
 99 457 105 454 111 451 c 1
 117 454 123 457 130 457 c 1
473 543 m 1x10
 466 543 460 546 454 549 c 1
 448 546 442 543 435 543 c 1
 442 543 448 540 454 537 c 1
 460 540 466 543 473 543 c 1x10
130 543 m 1
 123 543 117 546 111 549 c 1
 105 546 99 543 92 543 c 1
 99 543 105 540 111 537 c 1
 117 540 123 543 130 543 c 1
473 629 m 1x08
 466 629 460 631 454 634 c 1
 448 631 442 629 435 629 c 1
 442 629 448 626 454 623 c 1
 460 626 466 629 473 629 c 1x08
130 629 m 1
 123 629 117 631 111 634 c 1
 105 631 99 629 92 629 c 1
 99 629 105 626 111 623 c 1
 117 626 123 629 130 629 c 1
EndSplineSet
EndChar

